<?xml version="1.0" encoding="UTF-8"?>
<svg xmlns="http://www.w3.org/2000/svg" xmlns:xlink="http://www.w3.org/1999/xlink" version="1.1" id="Ebene_1" x="0px" y="0px" viewBox="0 0 214 38.10244" xml:space="preserve">
<g>
	<path fill="#1A8AB9" d="M189.97485,4.4589h0.91891l0.85788,2.34441h0.01392l0.84824-2.34441h0.92212v3.29974h-0.58263V5.10685   h-0.00856l-1.00246,2.65179h-0.41019l-0.98853-2.65179h-0.00858v2.65179h-0.56013V4.4589z"></path>
	<path fill="#1A8AB9" d="M196.30124,7.75864h-0.53229V7.39986h-0.00858c-0.05034,0.11138-0.13602,0.20992-0.25917,0.29559   c-0.1221,0.08568-0.26776,0.12852-0.4359,0.12852c-0.14566,0-0.27097-0.0257-0.37485-0.07711   c-0.1039-0.05141-0.18958-0.11888-0.25598-0.20242c-0.06746-0.08461-0.11673-0.17993-0.1478-0.28917   c-0.03105-0.10924-0.04605-0.22062-0.04605-0.33522V5.52133h0.55907v1.24021c0,0.06533,0.00536,0.1328,0.01392,0.20456   c0.00964,0.07176,0.03,0.13602,0.06105,0.19385c0.03107,0.05676,0.0739,0.10496,0.12746,0.14244   c0.05461,0.03641,0.12744,0.05569,0.21741,0.05569c0.08675,0,0.16386-0.01821,0.23026-0.05355   c0.06747-0.03641,0.12103-0.0814,0.16386-0.13816c0.04178-0.05569,0.07283-0.11995,0.09532-0.19278   c0.02142-0.07283,0.03214-0.14673,0.03214-0.2217V5.52133h0.56013V7.75864z"></path>
	<path fill="#1A8AB9" d="M196.99524,5.52133h0.5312v0.35878h0.00964c0.05034-0.11138,0.13602-0.20992,0.25919-0.2956   c0.12209-0.08568,0.26775-0.12852,0.4359-0.12852c0.14565,0,0.27095,0.0257,0.37485,0.07711   c0.10388,0.05141,0.18956,0.11888,0.25597,0.20242c0.06747,0.08461,0.11566,0.181,0.14673,0.28917   c0.03105,0.10924,0.04712,0.22062,0.04712,0.33522v1.39872h-0.55907V6.51843c0-0.06533-0.00534-0.1328-0.01392-0.20456   c-0.00964-0.07176-0.02998-0.13602-0.06105-0.19385c-0.03105-0.05676-0.0739-0.10496-0.12851-0.14137   c-0.05356-0.03748-0.12639-0.05676-0.21634-0.05676c-0.08997,0-0.16815,0.01821-0.23349,0.05355   c-0.06532,0.03641-0.11888,0.08247-0.16064,0.13816c-0.04176,0.05569-0.0739,0.11995-0.09532,0.19278   c-0.02142,0.0739-0.03212,0.14673-0.03212,0.2217v1.23057h-0.56013V5.52133z"></path>
	<path fill="#1A8AB9" d="M199.66095,4.76199c0-0.08996,0.0332-0.16922,0.10066-0.23562   c0.06641-0.0664,0.15102-0.10067,0.25383-0.10067s0.18849,0.03213,0.25812,0.09639c0.07068,0.06319,0.10495,0.14351,0.10495,0.2399   s-0.03427,0.17564-0.10495,0.2399c-0.06963,0.06319-0.1553,0.09532-0.25812,0.09532s-0.18742-0.0332-0.25383-0.10067   C199.69415,4.93014,199.66095,4.85196,199.66095,4.76199z M199.7402,5.52133h0.55905v2.23731h-0.55905V5.52133z"></path>
	<path fill="#1A8AB9" d="M202.53229,6.14144c-0.04391-0.06212-0.10924-0.1146-0.196-0.15636   c-0.08675-0.04177-0.17564-0.06319-0.26561-0.06319c-0.10281,0-0.19278,0.02142-0.26988,0.06319   c-0.07819,0.04177-0.14244,0.09746-0.19385,0.166c-0.05141,0.06747-0.08997,0.14458-0.11459,0.23026   c-0.02464,0.08568-0.03749,0.17136-0.03749,0.25918c0,0.08675,0.01392,0.17243,0.03963,0.25811   c0.02678,0.08568,0.06641,0.16279,0.11888,0.23026c0.05354,0.06854,0.11888,0.12424,0.19814,0.166   c0.07925,0.04177,0.17242,0.06319,0.27739,0.06319c0.08781,0,0.17456-0.01714,0.26132-0.05141   c0.08675-0.03427,0.15742-0.08354,0.20992-0.14887l0.34914,0.35343c-0.09317,0.0996-0.21205,0.17671-0.35664,0.23134   c-0.14458,0.05355-0.29987,0.0814-0.46802,0.0814c-0.16493,0-0.3213-0.02677-0.46803-0.07925   c-0.1478-0.05248-0.27737-0.13066-0.3877-0.23348c-0.11031-0.10174-0.19707-0.22598-0.26025-0.37271   c-0.06425-0.14566-0.09639-0.31166-0.09639-0.49801c0-0.181,0.03214-0.34379,0.09639-0.48945   c0.06319-0.14673,0.14995-0.27096,0.25812-0.37378c0.10924-0.10174,0.23561-0.181,0.3802-0.23776   c0.14458-0.05569,0.2988-0.08354,0.46373-0.08354c0.16495,0,0.32344,0.03106,0.47768,0.09318   c0.15422,0.06212,0.27524,0.1478,0.36627,0.25704L202.53229,6.14144z"></path>
	<path fill="#1A8AB9" d="M204.54576,5.456c0.14673,0,0.27095,0.0257,0.37592,0.07711   c0.10388,0.05141,0.18956,0.11888,0.25597,0.20242c0.06641,0.08461,0.11566,0.181,0.14673,0.28917   c0.03105,0.10924,0.04712,0.22062,0.04712,0.33522v1.39872h-0.56012V6.52807c0-0.06533-0.00429-0.1328-0.01393-0.20242   c-0.00856-0.07069-0.02892-0.13387-0.05783-0.19171c-0.02998-0.05676-0.07176-0.10496-0.12637-0.14137   c-0.05356-0.03749-0.12639-0.05676-0.21635-0.05676c-0.08995,0-0.16814,0.01714-0.23347,0.05141   c-0.06425,0.03427-0.11888,0.08032-0.16278,0.13816c-0.04391,0.05676-0.07605,0.12209-0.09747,0.19278   c-0.02249,0.07176-0.03319,0.14458-0.03319,0.21955v1.22093h-0.55907V4.23506h0.55907v1.599h0.00963   c0.02142-0.04712,0.05356-0.09318,0.09532-0.13816c0.04176-0.04498,0.09103-0.08568,0.14673-0.12102   c0.05676-0.03534,0.11995-0.06426,0.19171-0.08568C204.38403,5.46671,204.46222,5.456,204.54576,5.456z"></path>
	<path fill="#1A8AB9" d="M189.06238,12.20006h-1.98991c-0.26454,0-0.50444-0.03749-0.72078-0.1146   c-0.21527-0.07604-0.40056-0.18635-0.55478-0.33094c-0.15315-0.14458-0.27203-0.3213-0.35558-0.53121   c-0.08461-0.20992-0.12637-0.44768-0.12637-0.71542c0-0.25168,0.04391-0.48088,0.1328-0.68758   c0.0889-0.2067,0.21207-0.38449,0.37057-0.53336s0.34593-0.26454,0.5612-0.347c0.21634-0.08247,0.44981-0.12424,0.70149-0.12424   c0.25169,0,0.48517,0.04177,0.69937,0.12424c0.21419,0.08247,0.40054,0.19813,0.55692,0.347   c0.15744,0.14887,0.27953,0.32665,0.36627,0.53336c0.08676,0.2067,0.13066,0.4359,0.13066,0.68758   c0,0.14887-0.01714,0.28596-0.05141,0.41019c-0.03427,0.12424-0.07817,0.23669-0.1328,0.33844   c-0.05463,0.10067-0.11674,0.18957-0.18636,0.26561c-0.06961,0.07604-0.14244,0.1403-0.21741,0.19278v0.00964h0.8161V12.20006z    M187.08102,9.34264c-0.15851,0-0.3063,0.02999-0.44446,0.08889s-0.25703,0.13923-0.35664,0.24205   c-0.09959,0.10282-0.17778,0.22598-0.23561,0.36842c-0.05785,0.14351-0.08569,0.29881-0.08569,0.46588   c0,0.17778,0.02678,0.33843,0.08141,0.48302c0.05354,0.14458,0.13066,0.26775,0.22812,0.37056   c0.09746,0.10174,0.21527,0.18207,0.35236,0.2399c0.13602,0.05676,0.28703,0.08568,0.45197,0.08568   c0.16171,0,0.31166-0.02892,0.44981-0.08568c0.13815-0.05783,0.25703-0.13816,0.35664-0.2399   c0.09853-0.10282,0.17671-0.22598,0.23241-0.37056s0.08461-0.30523,0.08461-0.48302c0-0.16708-0.02678-0.32237-0.07925-0.46588   c-0.05356-0.14244-0.12852-0.26561-0.22598-0.36842c-0.09853-0.10282-0.21527-0.18314-0.35236-0.24205   S187.24918,9.34264,187.08102,9.34264z"></path>
	<path fill="#1A8AB9" d="M191.51495,12.20006h-0.53229v-0.35878h-0.00856c-0.05034,0.11138-0.13602,0.20992-0.25919,0.2956   c-0.1221,0.08568-0.26775,0.12852-0.4359,0.12852c-0.14566,0-0.27097-0.0257-0.37485-0.07711s-0.18956-0.11888-0.25597-0.20242   c-0.06747-0.08461-0.11674-0.17993-0.1478-0.28917c-0.03107-0.10924-0.04605-0.22062-0.04605-0.33522V9.96275h0.55905v1.24021   c0,0.06533,0.00536,0.1328,0.01393,0.20456c0.00963,0.07176,0.02998,0.13602,0.06104,0.19385   c0.03107,0.05676,0.0739,0.10496,0.12746,0.14244c0.05463,0.03641,0.12744,0.05569,0.21741,0.05569   c0.08675,0,0.16386-0.01821,0.23027-0.05355c0.06747-0.03641,0.12102-0.0814,0.16386-0.13816   c0.04176-0.05569,0.07283-0.11995,0.09531-0.19278c0.02142-0.07283,0.03214-0.14673,0.03214-0.2217V9.96275h0.56013V12.20006z"></path>
	<path fill="#1A8AB9" d="M193.59804,11.91625h-0.01392c-0.05569,0.09853-0.14566,0.181-0.2699,0.24419   s-0.26561,0.09532-0.42412,0.09532c-0.08997,0-0.1842-0.01178-0.28275-0.03427c-0.09746-0.02356-0.18742-0.06212-0.26988-0.11674   c-0.08247-0.05462-0.15102-0.12638-0.20456-0.2142c-0.05463-0.08889-0.08247-0.19813-0.08247-0.3288   c0-0.16815,0.0482-0.30202,0.14244-0.40055c0.09532-0.0996,0.21635-0.17564,0.36629-0.22919   c0.14886-0.05248,0.31487-0.08782,0.49586-0.10496c0.18207-0.01714,0.35986-0.0257,0.53444-0.0257v-0.05569   c0-0.13923-0.05142-0.24312-0.15208-0.30952c-0.10068-0.06747-0.22169-0.10067-0.36093-0.10067   c-0.11781,0-0.23134,0.02463-0.34058,0.07497c-0.10817,0.04927-0.1992,0.11031-0.26988,0.18207l-0.28917-0.34058   c0.12744-0.11781,0.27417-0.2067,0.44017-0.26561c0.166-0.05891,0.33522-0.08889,0.50551-0.08889   c0.1992,0,0.36307,0.02785,0.49159,0.08354c0.12959,0.05676,0.23134,0.12959,0.3063,0.21955   c0.0739,0.08996,0.12637,0.19064,0.15529,0.30309c0.03,0.11138,0.04498,0.22384,0.04498,0.33522v1.36124h-0.52264V11.91625z    M193.58948,11.1794h-0.12639c-0.08997,0-0.18527,0.00428-0.28381,0.01178c-0.09959,0.0075-0.19171,0.02463-0.27524,0.05141   c-0.08461,0.0257-0.15422,0.06319-0.20992,0.11138s-0.08354,0.1146-0.08354,0.19813c0,0.05248,0.01071,0.09746,0.03427,0.1328   s0.05354,0.06426,0.09103,0.08675c0.03749,0.02142,0.07925,0.03641,0.12637,0.04605   c0.04605,0.00964,0.09319,0.01392,0.13924,0.01392c0.19278,0,0.33844-0.05141,0.43803-0.15315   c0.09961-0.10282,0.14995-0.24312,0.14995-0.41983V11.1794z"></path>
	<path fill="#1A8AB9" d="M194.79539,9.96275h0.53123v0.35878h0.00963c0.05034-0.11138,0.13602-0.20992,0.25919-0.2956   c0.1221-0.08568,0.26775-0.12852,0.4359-0.12852c0.14566,0,0.27097,0.0257,0.37485,0.07711s0.18956,0.11888,0.25597,0.20242   c0.06747,0.08461,0.11568,0.181,0.14673,0.28917c0.03105,0.10924,0.04712,0.22062,0.04712,0.33522v1.39872h-0.55905v-1.24021   c0-0.06533-0.00536-0.1328-0.01393-0.20456c-0.00963-0.07176-0.02998-0.13602-0.06104-0.19385   c-0.03107-0.05676-0.0739-0.10496-0.12852-0.14137c-0.05356-0.03749-0.12637-0.05676-0.21634-0.05676   s-0.16815,0.01821-0.23347,0.05355c-0.06534,0.03641-0.11888,0.08247-0.16066,0.13816   c-0.04176,0.05569-0.0739,0.11995-0.09532,0.19278c-0.02141,0.0739-0.03212,0.14673-0.03212,0.2217v1.23057h-0.56015V9.96275z"></path>
	<path fill="#1A8AB9" d="M197.21051,10.41043V9.96275h0.39198V9.3148h0.54942v0.64795h0.55905v0.44768h-0.55905v1.03887   c0,0.0996,0.0182,0.18207,0.05354,0.2474c0.03642,0.06533,0.11568,0.09746,0.2399,0.09746   c0.03749,0,0.07819-0.00321,0.12103-0.01178c0.04391-0.0075,0.08246-0.01928,0.11673-0.03427l0.01929,0.43804   c-0.05034,0.01821-0.10924,0.0332-0.1778,0.04391c-0.06854,0.01071-0.1328,0.01714-0.19492,0.01714   c-0.14993,0-0.27097-0.02142-0.36414-0.06319c-0.09319-0.04177-0.16708-0.0996-0.22169-0.17243   c-0.05356-0.07283-0.09103-0.15744-0.11139-0.25168c-0.02034-0.09532-0.02998-0.19706-0.02998-0.30523v-1.04422H197.21051z"></path>
	<path fill="#1A8AB9" d="M201.18283,12.20006h-0.53229v-0.35878h-0.00856c-0.05034,0.11138-0.13602,0.20992-0.25919,0.2956   c-0.1221,0.08568-0.26775,0.12852-0.4359,0.12852c-0.14566,0-0.27097-0.0257-0.37485-0.07711s-0.18956-0.11888-0.25597-0.20242   c-0.06747-0.08461-0.11674-0.17993-0.1478-0.28917c-0.03107-0.10924-0.04605-0.22062-0.04605-0.33522V9.96275h0.55905v1.24021   c0,0.06533,0.00536,0.1328,0.01393,0.20456c0.00963,0.07176,0.02998,0.13602,0.06105,0.19385   c0.03105,0.05676,0.0739,0.10496,0.12744,0.14244c0.05463,0.03641,0.12744,0.05569,0.21741,0.05569   c0.08676,0,0.16386-0.01821,0.23027-0.05355c0.06747-0.03641,0.12102-0.0814,0.16386-0.13816   c0.04176-0.05569,0.07283-0.11995,0.09532-0.19278c0.02141-0.07283,0.03212-0.14673,0.03212-0.2217V9.96275h0.56013V12.20006z"></path>
	<path fill="#1A8AB9" d="M204.5479,9.89742c0.14566,0,0.27097,0.0257,0.37485,0.07711   c0.10497,0.05141,0.18958,0.11888,0.25703,0.20242c0.06641,0.08461,0.11568,0.181,0.14673,0.28917   c0.03107,0.10924,0.04605,0.22062,0.04605,0.33522v1.39872h-0.55905v-1.24021c0-0.06533-0.00429-0.1328-0.01393-0.20456   c-0.00963-0.07176-0.02998-0.13602-0.06104-0.19385c-0.03107-0.05676-0.07285-0.10496-0.12746-0.14137   c-0.05461-0.03749-0.12637-0.05676-0.21741-0.05676c-0.08675,0-0.16064,0.01928-0.22276,0.05676   c-0.06319,0.03641-0.11353,0.08461-0.15424,0.14351c-0.0407,0.05998-0.06961,0.12531-0.08888,0.19813   c-0.0182,0.0739-0.02785,0.14566-0.02785,0.21741v1.22093h-0.55907v-1.3516c0-0.1403-0.0332-0.25597-0.10066-0.347   c-0.06641-0.0921-0.17137-0.13816-0.31381-0.13816c-0.08461,0-0.15742,0.01821-0.21954,0.05355   c-0.06212,0.03641-0.11246,0.08247-0.15102,0.13816c-0.03963,0.05569-0.06854,0.11995-0.0889,0.19278   c-0.02034,0.0739-0.02998,0.14673-0.02998,0.2217v1.23057h-0.56013V9.96275h0.53122v0.35878h0.00964   c0.02463-0.05569,0.0589-0.10817,0.10066-0.15851c0.04178-0.04927,0.09103-0.09425,0.14888-0.13495   c0.05783-0.0407,0.12315-0.07176,0.19814-0.09532c0.07497-0.02356,0.15636-0.03534,0.24739-0.03534   c0.17351,0,0.31808,0.03856,0.43268,0.11674c0.11568,0.07711,0.20349,0.17993,0.26561,0.30738   c0.07497-0.13602,0.17458-0.24097,0.29881-0.31487C204.2341,9.93383,204.37975,9.89742,204.5479,9.89742z"></path>
	<path fill="#1A8AB9" d="M192.54739,13.72623h0.65759l0.90927,2.5404h0.0182l0.91891-2.5404h0.63297l-1.32376,3.29974h-0.50764   L192.54739,13.72623z"></path>
	<path fill="#1A8AB9" d="M197.19016,16.74215h-0.01392c-0.05569,0.09853-0.14566,0.181-0.2699,0.24419   s-0.26561,0.09532-0.42412,0.09532c-0.08995,0-0.1842-0.01178-0.28273-0.03427c-0.09747-0.02356-0.18742-0.06212-0.2699-0.11674   s-0.15102-0.12638-0.20456-0.2142c-0.05463-0.08889-0.08247-0.19814-0.08247-0.3288c0-0.16815,0.0482-0.30202,0.14246-0.40055   c0.09531-0.0996,0.21634-0.17564,0.36627-0.22919c0.14886-0.05248,0.31488-0.08782,0.49586-0.10496   c0.18208-0.01714,0.35986-0.0257,0.53444-0.0257v-0.05569c0-0.13923-0.05141-0.24312-0.15208-0.30952   c-0.10068-0.06747-0.22169-0.10067-0.36093-0.10067c-0.1178,0-0.23134,0.02463-0.34058,0.07497   c-0.10817,0.04927-0.1992,0.11031-0.26988,0.18207l-0.28917-0.34058c0.12744-0.11781,0.27417-0.2067,0.44017-0.26561   c0.16602-0.0589,0.33522-0.08889,0.50551-0.08889c0.1992,0,0.36307,0.02785,0.49159,0.08354   c0.12959,0.05676,0.23134,0.12959,0.3063,0.21955c0.0739,0.08996,0.12637,0.19064,0.15529,0.30309   c0.03,0.11138,0.04498,0.22384,0.04498,0.33522v1.36124h-0.52264V16.74215z M197.18159,16.00531h-0.12639   c-0.08995,0-0.18527,0.00428-0.28381,0.01178c-0.09959,0.0075-0.1917,0.02463-0.27524,0.05141   c-0.08461,0.0257-0.15422,0.06319-0.20992,0.11138s-0.08354,0.1146-0.08354,0.19813c0,0.05248,0.01071,0.09746,0.03427,0.1328   c0.02356,0.03534,0.05356,0.06426,0.09103,0.08675c0.03749,0.02142,0.07925,0.03641,0.12639,0.04605   c0.04605,0.00964,0.09317,0.01392,0.13922,0.01392c0.19278,0,0.33844-0.05141,0.43803-0.15315   c0.09961-0.10282,0.14995-0.24311,0.14995-0.41983V16.00531z"></path>
	<path fill="#1A8AB9" d="M198.39824,13.50239h0.55907v3.52358h-0.55907V13.50239z"></path>
	<path fill="#1A8AB9" d="M199.66951,13.50239h0.55907v3.52358h-0.55907V13.50239z"></path>
	<path fill="#1A8AB9" d="M203.06778,15.93569c0,0.02463,0,0.04927,0,0.0739c0,0.0257-0.00214,0.05034-0.00536,0.07497h-1.70074   c0.00644,0.08033,0.02678,0.15422,0.06212,0.2217c0.03642,0.0664,0.08354,0.12424,0.14246,0.17243   c0.0589,0.04819,0.12637,0.08568,0.20027,0.11353c0.07497,0.02785,0.15208,0.04177,0.23347,0.04177   c0.1403,0,0.2581-0.0257,0.35449-0.07604c0.09639-0.05141,0.17564-0.12209,0.23776-0.21206l0.37271,0.29774   c-0.22063,0.29881-0.54085,0.44768-0.96068,0.44768c-0.17351,0-0.33415-0.02785-0.47981-0.0814   c-0.14565-0.05462-0.2731-0.13173-0.3802-0.23133c-0.1071-0.09853-0.19063-0.22062-0.25168-0.36521   c-0.05998-0.14458-0.09103-0.30845-0.09103-0.49159c0-0.181,0.03105-0.34486,0.09103-0.49266   c0.06105-0.14673,0.14458-0.2731,0.24954-0.37699c0.10602-0.10389,0.23134-0.18528,0.37592-0.24204   c0.14351-0.05783,0.29988-0.08675,0.46803-0.08675c0.15529,0,0.2988,0.0257,0.43053,0.07711   c0.13281,0.05141,0.24634,0.12745,0.34273,0.22812s0.17242,0.22705,0.22598,0.37806   C203.03993,15.55656,203.06778,15.73327,203.06778,15.93569z M202.50764,15.68401c0-0.07176-0.00963-0.1403-0.02998-0.20563   c-0.02034-0.06533-0.05247-0.12209-0.09532-0.17243c-0.0439-0.04927-0.09853-0.08889-0.166-0.11888   c-0.06641-0.02892-0.14458-0.04391-0.23454-0.04391c-0.16815,0-0.31059,0.05034-0.42734,0.15101   c-0.11566,0.10174-0.18098,0.23133-0.19278,0.38984H202.50764z"></path>
	<path fill="#1A8AB9" d="M203.2959,14.78866h0.62012l0.62439,1.62684h0.00963l0.55478-1.62684h0.58263l-1.05815,2.71712   c-0.0407,0.10282-0.08459,0.19385-0.13066,0.2731c-0.04712,0.07925-0.10281,0.14565-0.16814,0.20028   c-0.06534,0.05462-0.14244,0.09532-0.23027,0.12317c-0.08888,0.02785-0.19492,0.04177-0.31915,0.04177   c-0.04712,0-0.09425-0.00214-0.14244-0.00643c-0.0482-0.00428-0.09746-0.01285-0.14673-0.02571l0.04605-0.48516   c0.03749,0.01285,0.0739,0.02142,0.11032,0.0257c0.03534,0.00536,0.06854,0.0075,0.09959,0.0075   c0.0589,0,0.10924-0.0075,0.14886-0.02142c0.0407-0.01392,0.07498-0.03534,0.10281-0.06533   c0.02785-0.02892,0.05249-0.06533,0.07498-0.10924c0.02141-0.04391,0.04498-0.09425,0.06961-0.15422l0.11246-0.28381   L203.2959,14.78866z"></path>
</g>
<rect x="167.71014" y="0.29576" fill="#1A8AB9" width="1.01035" height="37.50635"></rect>
<g>
	<g>
		<path fill="#1A8AB9" d="M0.30901,1.8853h4.21276l3.93537,10.75708h0.06372L12.4134,1.8853h4.23418v15.14067h-2.67321V4.85731    h-0.04284L9.33376,17.02597H7.45202L2.91796,4.85731H2.87512v12.16865H0.30901V1.8853z"></path>
		<path fill="#1A8AB9" d="M32.04529,11.46536c0,0.91249-0.1569,1.73608-0.4707,2.47079    c-0.3138,0.73363-0.74113,1.35802-1.28305,1.87103s-1.18345,0.9082-1.92458,1.18666    c-0.74166,0.27846-1.54705,0.41662-2.4167,0.41662c-0.86965,0-1.67557-0.13816-2.4167-0.41662    c-0.74113-0.27846-1.3864-0.67366-1.93529-1.18666s-0.97675-1.1374-1.28305-1.87103    c-0.30684-0.7347-0.45999-1.5583-0.45999-2.47079V1.8853h2.69462v9.47296c0,0.44232,0.05676,0.88143,0.17136,1.31625    c0.11406,0.43482,0.30256,0.82253,0.56656,1.16524c0.26346,0.34165,0.61315,0.62011,1.04797,0.83431    c0.43482,0.21313,0.973,0.32023,1.61452,0.32023c0.64153,0,1.1797-0.1071,1.61453-0.32023    c0.43482-0.2142,0.78397-0.49266,1.04797-0.83431c0.264-0.34272,0.4525-0.73042,0.56656-1.16524    c0.11406-0.43482,0.17136-0.87393,0.17136-1.31625V1.8853h2.69463V11.46536z"></path>
		<path fill="#1A8AB9" d="M35.25293,1.8853h3.57123l7.03591,11.33435h0.04284V1.8853h2.69463v15.14067H45.1757L37.99039,5.32855    h-0.04284v11.69742h-2.69462V1.8853z"></path>
		<path fill="#1A8AB9" d="M51.93368,1.8853h2.69463v15.14067h-2.69463V1.8853z"></path>
		<path fill="#1A8AB9" d="M74.28162,17.02597h-9.13131c-1.21237,0-2.31335-0.17457-3.30456-0.52372    c-0.99067-0.34914-1.8389-0.85572-2.54469-1.51867c-0.70579-0.66295-1.25092-1.47583-1.63595-2.43759    c-0.38502-0.96282-0.57727-2.05631-0.57727-3.2826c0-1.1556,0.20295-2.20625,0.6094-3.15515    c0.40644-0.94783,0.973-1.76393,1.70021-2.4483c0.7272-0.68437,1.58561-1.21558,2.57681-1.59364    c0.99067-0.37699,2.06381-0.56656,3.21835-0.56656c1.15507,0,2.22446,0.18957,3.20816,0.56656    c0.98372,0.37806,1.83516,0.90928,2.5554,1.59364c0.7197,0.68437,1.2793,1.50046,1.67878,2.4483    c0.39895,0.9489,0.59869,1.99955,0.59869,3.15515c0,0.68437-0.07818,1.31197-0.23508,1.88174    c-0.15691,0.56977-0.36039,1.08706-0.6094,1.54973c-0.24954,0.46374-0.53497,0.87072-0.85573,1.21986    c-0.32076,0.34914-0.65224,0.64474-0.99442,0.88678v0.04284h3.74259V17.02597z M65.19261,3.91698    c-0.72667,0-1.40783,0.13495-2.04239,0.40591c-0.63403,0.27096-1.1797,0.64153-1.63595,1.11169    c-0.45625,0.47124-0.8161,1.03458-1.07956,1.69003c-0.264,0.65545-0.39573,1.36873-0.39573,2.13878    c0,0.81181,0.12477,1.54973,0.37431,2.21268c0.249,0.66295,0.59869,1.2295,1.04797,1.70074    c0.44875,0.47017,0.98692,0.83752,1.61452,1.10098c0.62707,0.26454,1.31839,0.39627,2.07452,0.39627    c0.74113,0,1.42871-0.13173,2.06327-0.39627c0.63457-0.26346,1.1797-0.63082,1.63595-1.10098    c0.45625-0.47124,0.81289-1.03779,1.06939-1.70074s0.38503-1.40086,0.38503-2.21268c0-0.77005-0.12103-1.48333-0.36361-2.13878    s-0.58797-1.21879-1.03725-1.69003c-0.44875-0.47017-0.98746-0.84073-1.61452-1.11169    C66.66094,4.05192,65.96265,3.91698,65.19261,3.91698z"></path>
		<path fill="#1A8AB9" d="M87.11268,5.43458c-0.39894-0.54085-0.91945-0.93712-1.56097-1.18666s-1.26913-0.37378-1.88174-0.37378    c-0.78451,0-1.49725,0.14244-2.13878,0.42733c-0.64153,0.28488-1.19416,0.67687-1.65737,1.17595    c-0.46374,0.49908-0.81985,1.08385-1.06939,1.75429s-0.37431,1.39658-0.37431,2.18055c0,0.82788,0.12103,1.58293,0.36361,2.2673    c0.24258,0.68437,0.58797,1.27234,1.03725,1.76393c0.44929,0.49266,0.98692,0.87393,1.61452,1.14489    c0.62761,0.27096,1.33286,0.40591,2.11736,0.40591c0.81235,0,1.53259-0.16065,2.15966-0.48088    c0.6276-0.3213,1.13365-0.74541,1.51868-1.27234l2.15966,1.5176c-0.66991,0.8418-1.48975,1.49404-2.45901,1.95671    c-0.96979,0.46374-2.10344,0.69508-3.40041,0.69508c-1.18345,0-2.27051-0.19599-3.26118-0.58798    c-0.99121-0.39198-1.84319-0.94033-2.55593-1.64612c-0.71275-0.70579-1.26913-1.54652-1.66808-2.52327    c-0.39895-0.97675-0.59869-2.05738-0.59869-3.24083c0-1.2113,0.21046-2.30585,0.63082-3.2826    c0.42036-0.97568,0.99817-1.80677,1.73234-2.49114c0.73416-0.68437,1.60007-1.2113,2.59823-1.58293    c0.99817-0.37056,2.08148-0.55585,3.25101-0.55585c0.48409,0,0.99067,0.04712,1.51814,0.13923    c0.52747,0.09318,1.03351,0.23562,1.51867,0.42733c0.48409,0.19278,0.94087,0.43161,1.36819,0.7165    c0.42786,0.28596,0.79147,0.6276,1.09081,1.02708L87.11268,5.43458z"></path>
		<path fill="#1A8AB9" d="M95.3888,10.86988h-5.13275V8.68934h5.13275V10.86988z"></path>
		<path fill="#1A8AB9" d="M102.65872,1.8853h2.33156l6.52236,15.14067h-3.07912l-1.41157-3.46467h-6.56521l-1.36873,3.46467H96.0721    L102.65872,1.8853z M106.08055,11.25223l-2.33049-6.1593l-2.3744,6.1593H106.08055z"></path>
		<path fill="#1A8AB9" d="M111.40554,8.81357v-2.0531h1.79606V3.78846h2.52327v2.97201h2.56718v2.0531h-2.56718v4.76914    c0,0.45624,0.08247,0.83431,0.24633,1.13311c0.16386,0.29988,0.53121,0.44982,1.10098,0.44982    c0.17136,0,0.35664-0.01821,0.55692-0.05355c0.1992-0.03534,0.37699-0.08889,0.53442-0.16065l0.08569,2.01026    c-0.22813,0.08568-0.49908,0.15315-0.81289,0.20349c-0.3138,0.04927-0.61368,0.07497-0.89857,0.07497    c-0.68436,0-1.24021-0.09639-1.66754-0.28917c-0.4284-0.19278-0.76683-0.45624-1.01637-0.79147    c-0.24954-0.33415-0.4209-0.71971-0.51301-1.15453c-0.09318-0.43482-0.13923-0.90178-0.13923-1.40086V8.81357H111.40554z"></path>
		<path fill="#1A8AB9" d="M119.55368,11.85091c0-0.81289,0.14565-1.5508,0.43803-2.21375s0.68758-1.2295,1.18666-1.69967    c0.49908-0.47124,1.09135-0.83431,1.77571-1.09134c0.6833-0.25597,1.4105-0.38449,2.18055-0.38449    c0.77004,0,1.49725,0.12852,2.18162,0.38449c0.68437,0.25704,1.27556,0.62011,1.77464,1.09134    c0.49908,0.47017,0.89536,1.03672,1.18773,1.69967c0.29132,0.66295,0.43803,1.40086,0.43803,2.21375    c0,0.81289-0.14671,1.55402-0.43803,2.22339c-0.29237,0.67044-0.68864,1.2445-1.18773,1.72216    c-0.49908,0.47766-1.09027,0.85144-1.77464,1.1224c-0.68436,0.27096-1.41158,0.40698-2.18162,0.40698    c-0.77005,0-1.49725-0.13602-2.18055-0.40698c-0.68436-0.27096-1.27663-0.64474-1.77571-1.1224    c-0.49908-0.47766-0.89428-1.05172-1.18666-1.72216C119.69933,13.40493,119.55368,12.6638,119.55368,11.85091z     M122.16262,11.85091c0,0.39948,0.05997,0.79789,0.181,1.19737s0.30309,0.75612,0.54621,1.06885    c0.24204,0.3138,0.54835,0.57084,0.91891,0.77005c0.37056,0.20028,0.81288,0.29988,1.32589,0.29988    s0.95533-0.0996,1.32589-0.29988c0.37057-0.19921,0.67687-0.45624,0.91999-0.77005    c0.24203-0.31273,0.42411-0.66937,0.54514-1.06885s0.18208-0.79789,0.18208-1.19737c0-0.39948-0.06105-0.79468-0.18208-1.18666    c-0.12103-0.39198-0.3031-0.74541-0.54514-1.05922c-0.24312-0.3138-0.54942-0.56656-0.91999-0.75934    c-0.37056-0.19171-0.81288-0.2881-1.32589-0.2881s-0.95533,0.09639-1.32589,0.2881    c-0.37057,0.19278-0.67687,0.44553-0.91891,0.75934c-0.24312,0.3138-0.42519,0.66723-0.54621,1.05922    C122.2226,11.05624,122.16262,11.45143,122.16262,11.85091z"></path>
		<path fill="#1A8AB9" d="M145.45035,6.46166c0.67046,0,1.24451,0.11781,1.72217,0.35236    c0.47766,0.23562,0.86964,0.54514,1.17595,0.9307c0.3063,0.38449,0.53122,0.82681,0.67366,1.32589    c0.14244,0.49908,0.2142,1.01209,0.2142,1.54009v6.41526h-2.56612v-5.68806c0-0.29988-0.02141-0.61368-0.06425-0.94141    c-0.04283-0.32772-0.13602-0.62332-0.27846-0.88786c-0.14244-0.26346-0.33844-0.48088-0.58798-0.65224    s-0.58154-0.25597-0.99495-0.25597c-0.39841,0-0.74113,0.08461-1.02602,0.25597s-0.52051,0.39306-0.70578,0.66295    c-0.18529,0.27096-0.3213,0.57405-0.40591,0.90928c-0.08568,0.33522-0.12851,0.66616-0.12851,0.99388v5.60345h-2.56612v-6.20214    c0-0.64153-0.15422-1.17274-0.46053-1.59257c-0.3063-0.4209-0.78719-0.63082-1.4437-0.63082    c-0.38449,0-0.71971,0.0814-1.00461,0.24526c-0.28488,0.16386-0.51729,0.37485-0.69507,0.63082    c-0.17886,0.25704-0.3138,0.55263-0.40591,0.88786c-0.09317,0.33522-0.13922,0.67366-0.13922,1.0153v5.64629h-2.5661V6.76047    h2.43758v1.64719h0.04285c0.11353-0.25704,0.26775-0.49908,0.45946-0.72721c0.19278-0.22812,0.4209-0.43482,0.68436-0.62011    c0.26347-0.18528,0.56656-0.33201,0.90929-0.43804c0.34164-0.1071,0.71971-0.16065,1.1331-0.16065    c0.79897,0,1.46191,0.17778,1.98885,0.53443c0.528,0.35664,0.93391,0.82681,1.2188,1.41157    c0.34271-0.6276,0.79897-1.10848,1.36873-1.4437C144.01094,6.62874,144.68138,6.46166,145.45035,6.46166z"></path>
		<path fill="#1A8AB9" d="M157.85356,9.49794c-0.22813-0.29881-0.54193-0.55906-0.94034-0.78076    c-0.39949-0.22062-0.8343-0.33094-1.30447-0.33094c-0.41447,0-0.79147,0.08568-1.13419,0.25704    c-0.34164,0.17029-0.513,0.45624-0.513,0.85465c0,0.39948,0.18849,0.68115,0.56654,0.84502    c0.37807,0.16386,0.93071,0.33201,1.65791,0.5023c0.38448,0.08568,0.77324,0.20028,1.16524,0.34272    c0.39198,0.14244,0.74863,0.33094,1.06885,0.56656c0.32129,0.23562,0.58156,0.528,0.78076,0.87715    c0.20027,0.34914,0.29988,0.77326,0.29988,1.27234c0,0.6276-0.11781,1.15775-0.35342,1.59257    c-0.23456,0.43589-0.54836,0.78825-0.94034,1.05921c-0.39305,0.27096-0.84824,0.46695-1.36873,0.58798    c-0.52051,0.12102-1.05922,0.18207-1.61507,0.18207c-0.7979,0-1.57544-0.14673-2.33049-0.43911    c-0.75612-0.29131-1.38373-0.709-1.88173-1.25092l1.68895-1.58293c0.28488,0.37164,0.65546,0.67794,1.11169,0.91999    c0.45625,0.24312,0.96283,0.36414,1.51868,0.36414c0.18529,0,0.37378-0.02142,0.56656-0.06426    c0.19278-0.04284,0.37056-0.11031,0.53442-0.20349c0.16386-0.09211,0.29666-0.21741,0.39627-0.37485    c0.09959-0.15637,0.14993-0.34914,0.14993-0.57727c0-0.42733-0.19707-0.73363-0.58905-0.91891    c-0.39198-0.18528-0.97995-0.37056-1.76393-0.55585c-0.38448-0.08568-0.75932-0.19599-1.12239-0.33201    c-0.36415-0.13495-0.68866-0.3138-0.97354-0.53443s-0.513-0.49587-0.68437-0.8236    c-0.17029-0.32772-0.25597-0.73363-0.25597-1.21879c0-0.56977,0.11674-1.06243,0.35236-1.47583    c0.23563-0.4134,0.54514-0.75184,0.93069-1.0153c0.38449-0.26454,0.81932-0.46053,1.30447-0.58798    c0.4841-0.12852,0.98318-0.19278,1.49725-0.19278c0.74113,0,1.46405,0.12852,2.16985,0.38449    c0.70578,0.25704,1.26591,0.64902,1.67932,1.17595L157.85356,9.49794z"></path>
	</g>
</g>
<g>
	<path fill="#1A8AB9" d="M96.58992,23.88623h1.09938l2.16448,3.48716h0.01338v-3.48716h0.82896v4.65883h-1.05279l-2.21107-3.59962   h-0.01285v3.59962h-0.82949V23.88623z"></path>
	<path fill="#1A8AB9" d="M104.82909,27.00497c0,0.03534,0,0.07069,0,0.10603c0,0.03427-0.00268,0.06961-0.00697,0.10496h-2.4017   c0.0091,0.11353,0.03855,0.21848,0.08889,0.31273s0.11727,0.17564,0.20081,0.24312c0.083,0.06854,0.17778,0.12209,0.28274,0.16172   c0.1055,0.03856,0.21527,0.0589,0.32933,0.0589c0.19707,0,0.36414-0.03642,0.50016-0.10817   c0.13548-0.07283,0.2474-0.17243,0.33522-0.29988l0.5264,0.4209c-0.31113,0.4209-0.76308,0.63189-1.35535,0.63189   c-0.2458,0-0.47178-0.03856-0.67794-0.11567c-0.20617-0.07604-0.38503-0.18421-0.53603-0.32558   c-0.15155-0.1403-0.26989-0.31166-0.35558-0.51622c-0.08514-0.20349-0.12798-0.43482-0.12798-0.69401   c0-0.2549,0.04284-0.48623,0.12798-0.694c0.08569-0.20885,0.20296-0.38663,0.35236-0.53336   c0.14886-0.14673,0.32558-0.26132,0.5296-0.34165c0.20403-0.0814,0.42412-0.12209,0.66134-0.12209   c0.21902,0,0.42197,0.03641,0.60833,0.10817c0.18689,0.07283,0.34808,0.17993,0.48409,0.32237   c0.13548,0.14244,0.24204,0.32023,0.31915,0.53336C104.79053,26.47161,104.82909,26.72009,104.82909,27.00497z M104.03923,26.65047   c0-0.10175-0.01446-0.19814-0.04284-0.29024s-0.07336-0.1735-0.13494-0.24312c-0.06158-0.07068-0.13924-0.12638-0.23348-0.16815   s-0.20509-0.06212-0.33201-0.06212c-0.23722,0-0.43803,0.07068-0.60243,0.2142c-0.1644,0.14244-0.25543,0.32558-0.2731,0.54942   H104.03923z"></path>
	<path fill="#1A8AB9" d="M108.60596,28.54506h-0.75077v-0.50658h-0.01285c-0.07069,0.15744-0.19171,0.29667-0.36521,0.41769   c-0.1735,0.12102-0.37806,0.181-0.61475,0.181c-0.2067,0-0.38287-0.03641-0.53014-0.10817   c-0.14673-0.07283-0.26722-0.16815-0.36147-0.28703c-0.09478-0.11781-0.16386-0.25383-0.20777-0.40805   c-0.04391-0.15315-0.06533-0.31059-0.06533-0.47338v-1.97385h0.78932v1.75001c0,0.09211,0.00642,0.1885,0.01981,0.29024   c0.01339,0.10067,0.04177,0.19171,0.08568,0.27203c0.04391,0.0814,0.10389,0.14887,0.181,0.20135   c0.07658,0.05248,0.17832,0.07925,0.30577,0.07925c0.12263,0,0.2308-0.02571,0.32505-0.07604   c0.09425-0.05034,0.17136-0.11567,0.23026-0.19385c0.05997-0.07925,0.10496-0.17029,0.13494-0.2731   c0.03106-0.10282,0.04606-0.20777,0.04606-0.31273v-1.73716h0.79039V28.54506z"></path>
	<path fill="#1A8AB9" d="M109.23035,26.01858v-0.63189h0.55264v-0.91463h0.77647v0.91463h0.78932v0.63189h-0.78932v1.46726   c0,0.1403,0.02463,0.25597,0.07497,0.34807s0.16386,0.13816,0.33951,0.13816c0.05247,0,0.10924-0.00535,0.17136-0.01607   c0.06105-0.01071,0.11567-0.02677,0.16386-0.04926l0.02679,0.61904c-0.07069,0.0257-0.15423,0.04712-0.25062,0.06212   c-0.09639,0.01499-0.18849,0.02249-0.27631,0.02249c-0.20992,0-0.38128-0.02892-0.51301-0.08889   c-0.13174-0.0589-0.23562-0.1403-0.31273-0.24312c-0.07712-0.10282-0.12959-0.2217-0.15744-0.35557   c-0.02892-0.13387-0.04284-0.27739-0.04284-0.43054v-1.47369H109.23035z"></path>
	<path fill="#1A8AB9" d="M112.05349,25.38669h0.75613v0.52586h0.01286c0.08782-0.18421,0.21098-0.33308,0.36949-0.44661   c0.15743-0.1146,0.34164-0.17136,0.55264-0.17136c0.02998,0,0.06319,0.00107,0.09853,0.00321   c0.03535,0.00214,0.06533,0.0075,0.09211,0.01607v0.72399c-0.05248-0.01285-0.09747-0.02142-0.13495-0.02571   s-0.0739-0.0075-0.10924-0.0075c-0.17993,0-0.32452,0.0332-0.43375,0.0996c-0.10925,0.06533-0.19492,0.14458-0.25704,0.23669   c-0.06104,0.09211-0.10281,0.18635-0.12424,0.28274c-0.02248,0.09639-0.0332,0.1735-0.0332,0.23026v1.6911h-0.78933V25.38669z"></path>
	<path fill="#1A8AB9" d="M116.45528,28.14344H116.436c-0.07925,0.1403-0.2067,0.25597-0.38234,0.34593   c-0.17564,0.08996-0.37485,0.13494-0.59869,0.13494c-0.12745,0-0.26025-0.01714-0.39841-0.04927   c-0.13816-0.0332-0.26453-0.08782-0.38127-0.16493c-0.11567-0.07711-0.21314-0.17779-0.28917-0.30309   c-0.07711-0.12424-0.11567-0.27953-0.11567-0.46374c0-0.23669,0.06747-0.42518,0.20135-0.56549s0.30524-0.2474,0.51622-0.32237   c0.21098-0.07497,0.44447-0.12424,0.70043-0.1478c0.25704-0.02463,0.50765-0.03641,0.75398-0.03641v-0.07925   c0-0.19706-0.07176-0.34272-0.2142-0.43804c-0.14244-0.09425-0.31273-0.14137-0.5098-0.14137   c-0.16707,0-0.32665,0.03534-0.48087,0.10603c-0.15315,0.06962-0.2806,0.15529-0.38127,0.25597l-0.40805-0.4798   c0.17992-0.16708,0.3877-0.29238,0.62225-0.37485c0.23455-0.08354,0.47231-0.12531,0.71329-0.12531   c0.28059,0,0.513,0.03963,0.69508,0.11781c0.18099,0.07925,0.32558,0.18207,0.43053,0.30952s0.17886,0.26989,0.22063,0.4284   c0.04177,0.15744,0.06212,0.31487,0.06212,0.47338v1.92137h-0.73685V28.14344z M116.44244,27.1035h-0.17779   c-0.12745,0-0.26132,0.00643-0.40163,0.01714c-0.1403,0.01071-0.26989,0.03534-0.3877,0.07176   c-0.11888,0.03749-0.21741,0.08996-0.29667,0.15851c-0.07925,0.06747-0.11781,0.16065-0.11781,0.27953   c0,0.07497,0.01606,0.13709,0.04926,0.18743c0.03213,0.05034,0.07497,0.09103,0.12745,0.12209   c0.05355,0.02999,0.11246,0.05248,0.17779,0.06533c0.0664,0.01285,0.13173,0.02035,0.19813,0.02035   c0.27203,0,0.47767-0.07283,0.61797-0.21741c0.1403-0.14458,0.21099-0.34272,0.21099-0.59226V27.1035z"></path>
	<path fill="#1A8AB9" d="M118.25777,23.57029h0.79039v4.97478h-0.79039V23.57029z"></path>
	<path fill="#1A8AB9" d="M123.29787,23.88623h0.71757l2.00705,4.65883h-0.94783l-0.43375-1.06564h-2.0199l-0.42197,1.06564h-0.92748   L123.29787,23.88623z M124.35067,26.76828l-0.7165-1.89459l-0.73042,1.89459H124.35067z"></path>
	<path fill="#1A8AB9" d="M126.12103,26.01858v-0.63189h0.55263v-0.91463h0.77647v0.91463h0.7904v0.63189h-0.7904v1.46726   c0,0.1403,0.0257,0.25597,0.07604,0.34807s0.16279,0.13816,0.33843,0.13816c0.05248,0,0.11031-0.00535,0.17136-0.01607   c0.06105-0.01071,0.11673-0.02677,0.16493-0.04926l0.0257,0.61904c-0.06961,0.0257-0.15315,0.04712-0.24953,0.06212   c-0.09639,0.01499-0.18849,0.02249-0.27631,0.02249c-0.21099,0-0.38235-0.02892-0.51301-0.08889   c-0.13174-0.0589-0.23669-0.1403-0.31274-0.24312c-0.07711-0.10282-0.12959-0.2217-0.1585-0.35557   c-0.02785-0.13387-0.04285-0.27739-0.04285-0.43054v-1.47369H126.12103z"></path>
	<path fill="#1A8AB9" d="M128.75995,26.95249c0-0.24954,0.04498-0.47659,0.13495-0.68115   c0.08997-0.20349,0.21207-0.37806,0.36522-0.52265s0.33522-0.25704,0.5462-0.33629   c0.21098-0.07818,0.43375-0.11781,0.67151-0.11781c0.23669,0,0.46053,0.03963,0.67044,0.11781   c0.211,0.07925,0.39307,0.19171,0.54622,0.33629c0.15422,0.14458,0.27524,0.31916,0.3652,0.52265   c0.08997,0.20456,0.13495,0.43161,0.13495,0.68115c0,0.25061-0.04498,0.47873-0.13495,0.68437   c-0.08997,0.2067-0.21098,0.38342-0.3652,0.53014c-0.15315,0.14673-0.33522,0.26239-0.54622,0.34486   c-0.20992,0.08354-0.43375,0.12531-0.67044,0.12531c-0.23776,0-0.46053-0.04177-0.67151-0.12531   c-0.21098-0.08247-0.39305-0.19813-0.5462-0.34486s-0.27525-0.32344-0.36522-0.53014   C128.80493,27.43122,128.75995,27.2031,128.75995,26.95249z M129.5632,26.95249c0,0.12317,0.0182,0.24633,0.05569,0.36842   c0.03748,0.12317,0.09317,0.23241,0.16815,0.3288c0.0739,0.09746,0.16814,0.17564,0.28273,0.23776   c0.11353,0.06105,0.24954,0.09211,0.40805,0.09211c0.15744,0,0.29346-0.03106,0.40805-0.09211   c0.11353-0.06212,0.20778-0.1403,0.28275-0.23776c0.0739-0.09639,0.13066-0.20563,0.16707-0.3288   c0.03749-0.12209,0.05676-0.24526,0.05676-0.36842c0-0.12209-0.01927-0.24419-0.05676-0.36521   c-0.03641-0.11995-0.09317-0.22919-0.16707-0.32558c-0.07497-0.09639-0.16922-0.17457-0.28275-0.23348   c-0.11459-0.0589-0.25061-0.08889-0.40805-0.08889c-0.15851,0-0.29453,0.02999-0.40805,0.08889   c-0.11459,0.0589-0.20883,0.13709-0.28273,0.23348c-0.07498,0.09639-0.13068,0.20563-0.16815,0.32558   C129.58141,26.7083,129.5632,26.8304,129.5632,26.95249z"></path>
	<path fill="#1A8AB9" d="M136.85989,25.29459c0.20671,0,0.38235,0.03641,0.53015,0.10817   c0.14673,0.07283,0.26775,0.16815,0.36198,0.28703c0.09425,0.11781,0.1628,0.25383,0.20671,0.40698   c0.04391,0.15422,0.06641,0.31166,0.06641,0.47445v1.97384h-0.79041v-1.75001c0-0.0921-0.00642-0.18849-0.01927-0.29024   c-0.01285-0.10067-0.04176-0.19171-0.08568-0.2731c-0.04391-0.08032-0.1039-0.1478-0.181-0.20028   c-0.07712-0.05248-0.17886-0.07925-0.3063-0.07925c-0.1221,0-0.22812,0.02678-0.31595,0.07925   c-0.08781,0.05248-0.15958,0.12102-0.21634,0.20349c-0.05783,0.08354-0.09853,0.17671-0.12532,0.2806   c-0.02676,0.10282-0.03961,0.20456-0.03961,0.30523v1.7243h-0.78932v-1.90851c0-0.19706-0.04712-0.36093-0.14137-0.48944   c-0.09425-0.12959-0.24312-0.19492-0.44446-0.19492c-0.11888,0-0.22169,0.0257-0.30952,0.07604   c-0.08781,0.05034-0.15851,0.1146-0.21313,0.19385c-0.05568,0.07925-0.09746,0.17029-0.12531,0.27311   c-0.02892,0.10282-0.04283,0.20777-0.04283,0.31273v1.73715H133.09v-3.15837h0.74969v0.50658h0.01285   c0.03534-0.07925,0.08247-0.15315,0.14137-0.22384c0.05998-0.06961,0.12959-0.13387,0.21098-0.19064   c0.08141-0.05676,0.17458-0.10174,0.27953-0.13494c0.10497-0.0332,0.22171-0.04926,0.34915-0.04926   c0.24525,0,0.44981,0.05462,0.61154,0.16386c0.1628,0.11031,0.28702,0.2549,0.37485,0.43482   c0.10603-0.19278,0.24632-0.34058,0.42197-0.44446C136.4165,25.346,136.6232,25.29459,136.85989,25.29459z"></path>
	<path fill="#1A8AB9" d="M141.65689,23.57029v2.21803h0.02034c0.03856-0.05248,0.08997-0.10817,0.15102-0.16493   s0.13495-0.10924,0.22063-0.15744s0.18527-0.08889,0.2988-0.12209c0.11461-0.0332,0.2442-0.04926,0.38878-0.04926   c0.22383,0,0.42947,0.04284,0.61797,0.12852s0.35129,0.20242,0.4873,0.35129c0.13602,0.14994,0.24097,0.32558,0.31595,0.52693   c0.07497,0.20135,0.11137,0.41876,0.11137,0.65117c0,0.23241-0.03534,0.45089-0.10817,0.65438   c-0.07283,0.20456-0.17564,0.38235-0.30951,0.53336c-0.13388,0.15101-0.29561,0.27203-0.48624,0.362   c-0.19171,0.08996-0.40698,0.13494-0.64903,0.13494c-0.22383,0-0.43268-0.04819-0.62759-0.14458   c-0.196-0.09639-0.34808-0.23669-0.45732-0.4209h-0.01392v0.47338h-0.74969v-4.97478H141.65689z M143.46687,26.95249   c0-0.12209-0.01929-0.24419-0.05569-0.36521c-0.03749-0.11995-0.09425-0.22919-0.16815-0.32558   c-0.07497-0.09639-0.16922-0.17457-0.28275-0.23348c-0.11459-0.0589-0.24846-0.08889-0.40161-0.08889   c-0.14459,0-0.27419,0.03106-0.38878,0.09211c-0.11353,0.06105-0.21098,0.1403-0.29237,0.23669   c-0.08141,0.09639-0.14244,0.2067-0.18422,0.3288c-0.04176,0.12317-0.06212,0.24633-0.06212,0.36842   c0,0.12316,0.02036,0.24526,0.06212,0.36521c0.04178,0.12102,0.10281,0.23026,0.18422,0.32665   c0.08139,0.09639,0.17885,0.1735,0.29237,0.23348c0.11459,0.0589,0.24419,0.08889,0.38878,0.08889   c0.15315,0,0.28702-0.03106,0.40161-0.09211c0.11353-0.06212,0.20778-0.1403,0.28275-0.23776   c0.0739-0.09639,0.13066-0.20563,0.16815-0.3288C143.44759,27.19882,143.46687,27.07565,143.46687,26.95249z"></path>
	<path fill="#1A8AB9" d="M147.1254,28.14344h-0.01929c-0.07925,0.1403-0.2067,0.25597-0.38234,0.34593   c-0.17564,0.08996-0.37485,0.13494-0.59869,0.13494c-0.12744,0-0.26025-0.01714-0.39841-0.04927   c-0.13815-0.0332-0.26454-0.08782-0.38127-0.16493c-0.11568-0.07711-0.21313-0.17779-0.28917-0.30309   c-0.07712-0.12424-0.11566-0.27953-0.11566-0.46374c0-0.23669,0.06746-0.42518,0.20134-0.56549s0.30524-0.2474,0.51622-0.32237   c0.21098-0.07497,0.44446-0.12424,0.70042-0.1478c0.25705-0.02463,0.50766-0.03641,0.75398-0.03641v-0.07925   c0-0.19706-0.07175-0.34272-0.21419-0.43804c-0.14244-0.09425-0.31274-0.14137-0.5098-0.14137   c-0.16708,0-0.32666,0.03534-0.48088,0.10603c-0.15315,0.06962-0.28059,0.15529-0.38127,0.25597l-0.40805-0.4798   c0.17993-0.16708,0.3877-0.29238,0.62225-0.37485c0.23454-0.08354,0.47231-0.12531,0.71327-0.12531   c0.28061,0,0.51302,0.03963,0.69508,0.11781c0.181,0.07925,0.32558,0.18207,0.43054,0.30952   c0.10495,0.12745,0.17885,0.26989,0.22063,0.4284c0.04176,0.15744,0.06212,0.31487,0.06212,0.47338v1.92137h-0.73685V28.14344z    M147.11253,27.1035h-0.17778c-0.12744,0-0.26132,0.00643-0.40163,0.01714c-0.14029,0.01071-0.26988,0.03534-0.3877,0.07176   c-0.11888,0.03749-0.21741,0.08996-0.29666,0.15851c-0.07925,0.06747-0.11781,0.16065-0.11781,0.27953   c0,0.07497,0.01607,0.13709,0.04927,0.18743c0.03212,0.05034,0.07495,0.09103,0.12744,0.12209   c0.05354,0.02999,0.11246,0.05248,0.17778,0.06533c0.06641,0.01285,0.13174,0.02035,0.19814,0.02035   c0.27203,0,0.47766-0.07283,0.61797-0.21741s0.21098-0.34272,0.21098-0.59226V27.1035z"></path>
	<path fill="#1A8AB9" d="M150.64468,26.2285c-0.06961-0.0921-0.166-0.17136-0.28917-0.2399   c-0.12317-0.06747-0.25597-0.10174-0.40163-0.10174c-0.12637,0-0.24312,0.0257-0.34807,0.07925   c-0.10603,0.05248-0.15851,0.1403-0.15851,0.26239c0,0.12317,0.0589,0.20992,0.17458,0.26025   c0.11673,0.05034,0.28595,0.10175,0.5098,0.15422c0.11887,0.02678,0.23775,0.06212,0.35878,0.10603   c0.12102,0.04391,0.23026,0.10175,0.3288,0.17457c0.09853,0.07176,0.17885,0.16172,0.24097,0.26882   c0.06105,0.10817,0.0921,0.23883,0.0921,0.39198c0,0.19278-0.03641,0.35664-0.10924,0.49052   c-0.07175,0.13387-0.16922,0.24204-0.28917,0.32558c-0.12102,0.08354-0.26132,0.14351-0.4209,0.181   c-0.16064,0.03749-0.32558,0.05569-0.49695,0.05569c-0.24632,0-0.48515-0.04498-0.71756-0.13494s-0.42519-0.21848-0.57941-0.38449   l0.52051-0.4873c0.08781,0.1146,0.20134,0.20885,0.34164,0.28274c0.1403,0.07497,0.29666,0.11246,0.46695,0.11246   c0.05783,0,0.11566-0.0075,0.17458-0.02035c0.05997-0.01285,0.11459-0.0332,0.16493-0.06212   c0.05034-0.02892,0.09103-0.06747,0.12209-0.11567c0.03-0.04819,0.04607-0.1071,0.04607-0.17778   c0-0.13066-0.06105-0.22491-0.181-0.28274c-0.12103-0.05676-0.30203-0.11353-0.543-0.17136   c-0.11888-0.0257-0.23347-0.05997-0.34593-0.10174c-0.11139-0.04177-0.21098-0.09639-0.29881-0.16386   c-0.08781-0.06854-0.15851-0.15315-0.21098-0.25383s-0.07925-0.22598-0.07925-0.37485c0-0.17564,0.03642-0.32665,0.10924-0.4541   c0.07176-0.12745,0.16708-0.23133,0.28596-0.31273s0.25168-0.14137,0.40163-0.181c0.14886-0.03963,0.30202-0.0589,0.46053-0.0589   c0.22812,0,0.45088,0.03963,0.66722,0.11781c0.21742,0.07925,0.38985,0.20028,0.5173,0.362L150.64468,26.2285z"></path>
	<path fill="#1A8AB9" d="M154.98114,27.00497c0,0.03534,0,0.07069,0,0.10603c0,0.03427-0.00214,0.06961-0.00642,0.10496h-2.40117   c0.00856,0.11353,0.03856,0.21848,0.0889,0.31273c0.05032,0.09425,0.11673,0.17564,0.20027,0.24312   c0.08354,0.06854,0.17778,0.12209,0.28275,0.16172c0.10602,0.03856,0.21527,0.0589,0.32986,0.0589   c0.19707,0,0.36414-0.03642,0.50015-0.10817c0.13495-0.07283,0.24741-0.17243,0.33522-0.29988l0.52586,0.4209   c-0.31059,0.4209-0.76256,0.63189-1.35481,0.63189c-0.24632,0-0.47231-0.03856-0.67793-0.11567   c-0.20671-0.07604-0.38556-0.18421-0.53658-0.32558c-0.15102-0.1403-0.2699-0.31166-0.35558-0.51622   c-0.08461-0.20349-0.12744-0.43482-0.12744-0.69401c0-0.2549,0.04283-0.48623,0.12744-0.694   c0.08568-0.20885,0.20349-0.38663,0.35236-0.53336c0.14888-0.14673,0.32559-0.26132,0.53015-0.34165   c0.20349-0.0814,0.42412-0.12209,0.6608-0.12209c0.21956,0,0.42198,0.03641,0.60834,0.10817   c0.18742,0.07283,0.34807,0.17993,0.48409,0.32237s0.24205,0.32023,0.31915,0.53336   C154.9426,26.47161,154.98114,26.72009,154.98114,27.00497z M154.19182,26.65047c0-0.10175-0.01392-0.19814-0.04283-0.29024   c-0.02785-0.09211-0.07283-0.1735-0.13495-0.24312c-0.06105-0.07068-0.13924-0.12638-0.23347-0.16815   c-0.09425-0.04177-0.20456-0.06212-0.33202-0.06212c-0.23669,0-0.43803,0.07068-0.60191,0.2142   c-0.16492,0.14244-0.25595,0.32558-0.27309,0.54942H154.19182z"></path>
	<path fill="#1A8AB9" d="M159.08734,28.54506h-0.75076v-0.47338h-0.01286c-0.10924,0.18421-0.26239,0.32451-0.45731,0.4209   s-0.40483,0.14458-0.62868,0.14458c-0.24097,0-0.45732-0.04498-0.64795-0.13494c-0.19064-0.08996-0.35342-0.21099-0.4873-0.362   s-0.23669-0.32879-0.30844-0.53336c-0.07283-0.20349-0.10925-0.42197-0.10925-0.65438c0-0.2324,0.03749-0.44982,0.11246-0.65117   c0.0739-0.20135,0.17993-0.37699,0.31595-0.52693c0.13495-0.14887,0.29773-0.26561,0.48624-0.35129   c0.18849-0.08568,0.39519-0.12852,0.61903-0.12852c0.14458,0,0.27417,0.01606,0.3877,0.04926   c0.11459,0.0332,0.2142,0.0739,0.29988,0.12209s0.15851,0.10067,0.22063,0.15744c0.06105,0.05676,0.11137,0.11246,0.151,0.16493   h0.01929v-2.21803h0.79039V28.54506z M156.48804,26.95249c0,0.12317,0.0182,0.24633,0.05569,0.36842   c0.03748,0.12317,0.09317,0.23241,0.16814,0.3288c0.0739,0.09746,0.16815,0.17564,0.28275,0.23776   c0.11353,0.06105,0.24741,0.09211,0.40163,0.09211c0.14458,0,0.27417-0.02999,0.3877-0.08889   c0.11461-0.05997,0.21207-0.13709,0.29346-0.23348c0.08032-0.09639,0.14244-0.20563,0.18422-0.32665   c0.0407-0.11995,0.0621-0.24205,0.0621-0.36521c0-0.1221-0.02141-0.24526-0.0621-0.36842   c-0.04178-0.12209-0.1039-0.23241-0.18422-0.3288c-0.08139-0.09639-0.17885-0.17564-0.29346-0.23669   c-0.11353-0.06105-0.24312-0.09211-0.3877-0.09211c-0.15422,0-0.2881,0.02999-0.40163,0.08889   c-0.11459,0.0589-0.20885,0.13709-0.28275,0.23348c-0.07497,0.09639-0.13066,0.20563-0.16814,0.32558   C156.50624,26.7083,156.48804,26.8304,156.48804,26.95249z"></path>
	<path fill="#1A8AB9" d="M52.66785,36.22196h-2.80976c-0.37271,0-0.71168-0.05355-1.01638-0.16172   c-0.30523-0.1071-0.56602-0.26239-0.78343-0.46695c-0.21688-0.20349-0.38449-0.4541-0.50337-0.7497   c-0.11834-0.29667-0.17725-0.63296-0.17725-1.00995c0-0.35557,0.06212-0.67901,0.18742-0.97139   c0.12477-0.29131,0.29934-0.54192,0.52318-0.75291c0.22384-0.21099,0.48784-0.37378,0.79254-0.49052   c0.30523-0.11567,0.6351-0.17457,0.99067-0.17457c0.35504,0,0.68437,0.0589,0.98692,0.17457   c0.30256,0.11674,0.56495,0.27953,0.78611,0.49052c0.2217,0.21098,0.39413,0.4616,0.51676,0.75291   c0.12263,0.29239,0.18421,0.61583,0.18421,0.97139c0,0.20992-0.0241,0.40377-0.07229,0.57834   c-0.04819,0.17564-0.11085,0.33522-0.18742,0.47766c-0.07711,0.14244-0.1644,0.26775-0.26347,0.37485   c-0.09853,0.1071-0.20081,0.19814-0.30577,0.27311v0.01285h1.15132V36.22196z M49.87148,32.18859   c-0.22383,0-0.43322,0.04177-0.62867,0.12424c-0.19492,0.08354-0.36307,0.19814-0.50337,0.34272s-0.25115,0.31808-0.33201,0.51943   c-0.08139,0.20242-0.12209,0.42197-0.12209,0.65866c0,0.24954,0.03856,0.47659,0.11513,0.68116   c0.07711,0.20349,0.18475,0.37806,0.32291,0.52264s0.30363,0.25811,0.49641,0.33844   c0.19331,0.08139,0.40591,0.12209,0.63831,0.12209c0.22812,0,0.43964-0.0407,0.6351-0.12209   c0.19492-0.08033,0.36307-0.19385,0.50337-0.33844s0.25008-0.31916,0.32879-0.52264   c0.07925-0.20456,0.11888-0.43161,0.11888-0.68116c0-0.23669-0.03748-0.45624-0.11192-0.65866   c-0.07497-0.20135-0.181-0.37485-0.31916-0.51943c-0.13816-0.14458-0.30416-0.25918-0.49694-0.34272   C50.32291,32.23036,50.10817,32.18859,49.87148,32.18859z"></path>
	<path fill="#1A8AB9" d="M56.22784,36.22196h-0.75023v-0.50658h-0.01339c-0.07015,0.15744-0.19171,0.29667-0.36521,0.41769   c-0.17297,0.12103-0.37806,0.181-0.61475,0.181c-0.2067,0-0.38288-0.03642-0.53014-0.10817   c-0.14673-0.07283-0.26722-0.16815-0.36146-0.28703c-0.09478-0.11781-0.16386-0.25382-0.20777-0.40805   c-0.04391-0.15315-0.06533-0.31059-0.06533-0.47338v-1.97385h0.78933v1.75001c0,0.09211,0.00643,0.1885,0.01981,0.29024   c0.01339,0.10067,0.04177,0.19171,0.08568,0.27203c0.04391,0.08139,0.10389,0.14887,0.181,0.20135   c0.07658,0.05248,0.17832,0.07925,0.30577,0.07925c0.12263,0,0.23133-0.0257,0.32558-0.07604   c0.09425-0.05034,0.17136-0.11567,0.23026-0.19385c0.05944-0.07925,0.10442-0.17029,0.13495-0.2731   c0.03106-0.10282,0.04605-0.20778,0.04605-0.31273v-1.73716h0.78986V36.22196z"></path>
	<path fill="#1A8AB9" d="M59.26786,35.82034h-0.01981c-0.07925,0.1403-0.20617,0.25597-0.38181,0.34593   c-0.17564,0.08996-0.37485,0.13494-0.59869,0.13494c-0.12745,0-0.26025-0.01714-0.39841-0.04927   c-0.13816-0.0332-0.26507-0.08782-0.38128-0.16493s-0.21313-0.17778-0.2897-0.30309   c-0.07658-0.12423-0.11513-0.27953-0.11513-0.46374c0-0.23669,0.06694-0.42518,0.20081-0.56548   c0.13388-0.1403,0.30577-0.2474,0.51622-0.32237c0.21099-0.07497,0.44447-0.12423,0.70097-0.1478   c0.2565-0.02463,0.50765-0.03642,0.75344-0.03642v-0.07925c0-0.19706-0.07122-0.34272-0.21367-0.43804   c-0.14298-0.09425-0.31273-0.14137-0.51033-0.14137c-0.16653,0-0.32665,0.03534-0.48034,0.10603   c-0.15369,0.06961-0.2806,0.15529-0.38128,0.25597l-0.40805-0.4798c0.17993-0.16708,0.38717-0.29238,0.62172-0.37485   c0.23455-0.08354,0.47284-0.12531,0.71382-0.12531c0.2806,0,0.51247,0.03963,0.69454,0.11781   c0.18153,0.07925,0.32558,0.18207,0.43054,0.30952c0.10549,0.12745,0.17886,0.26989,0.22063,0.4284   c0.04177,0.15744,0.06265,0.31487,0.06265,0.47338v1.92137h-0.73685V35.82034z M59.25447,34.7804h-0.17778   c-0.12691,0-0.26079,0.00642-0.40109,0.01714c-0.14084,0.01071-0.26989,0.03534-0.38824,0.07175   c-0.11888,0.03749-0.21741,0.08997-0.29613,0.15851c-0.07925,0.06747-0.11834,0.16065-0.11834,0.27953   c0,0.07497,0.01606,0.13709,0.04927,0.18742c0.03267,0.05034,0.0755,0.09104,0.12798,0.1221   c0.05301,0.02999,0.11192,0.05248,0.17778,0.06533c0.06587,0.01285,0.13173,0.02035,0.1976,0.02035   c0.27203,0,0.47766-0.07283,0.6185-0.21741c0.1403-0.14458,0.21045-0.34272,0.21045-0.59226V34.7804z"></path>
	<path fill="#1A8AB9" d="M61.05696,33.06359h0.75023v0.50658h0.01285c0.07015-0.15744,0.19171-0.29667,0.36521-0.41769   c0.1735-0.12102,0.3786-0.181,0.61529-0.181c0.20617,0,0.38288,0.03642,0.52961,0.10817   c0.14726,0.07283,0.26775,0.16814,0.362,0.28703c0.09425,0.11781,0.16333,0.25383,0.20724,0.40698   c0.04391,0.15422,0.06586,0.31166,0.06586,0.47445v1.97385h-0.78986v-1.75001c0-0.09211-0.00642-0.1885-0.01928-0.29024   c-0.01339-0.10067-0.04177-0.19171-0.08568-0.27311c-0.04391-0.08033-0.10442-0.1478-0.181-0.20028   s-0.17886-0.07925-0.30577-0.07925c-0.12745,0-0.23722,0.0257-0.32933,0.07604c-0.09211,0.05033-0.16761,0.11459-0.22705,0.19385   c-0.05891,0.07925-0.10389,0.17029-0.13494,0.27311c-0.03053,0.10281-0.04605,0.20777-0.04605,0.31273v1.73716h-0.78932V33.06359z"></path>
	<path fill="#1A8AB9" d="M64.56393,33.69548v-0.63189h0.55264v-0.91463h0.77647v0.91463h0.78986v0.63189h-0.78986v1.46726   c0,0.1403,0.02517,0.25597,0.0755,0.34808c0.05034,0.09211,0.16333,0.13816,0.33897,0.13816   c0.05247,0,0.10978-0.00536,0.17136-0.01606c0.06105-0.01071,0.1162-0.02678,0.1644-0.04927l0.02624,0.61904   c-0.07014,0.0257-0.15369,0.04712-0.25008,0.06211c-0.09639,0.015-0.18849,0.02249-0.27631,0.02249   c-0.21045,0-0.38181-0.02892-0.51301-0.08889c-0.13173-0.05891-0.23615-0.1403-0.31273-0.24312   c-0.07711-0.10281-0.12959-0.22169-0.15797-0.35557c-0.02838-0.13387-0.04284-0.27739-0.04284-0.43054v-1.47369H64.56393z"></path>
	<path fill="#1A8AB9" d="M70.26913,36.22196H69.5189v-0.50658h-0.01339c-0.07015,0.15744-0.1917,0.29667-0.36521,0.41769   c-0.17297,0.12103-0.37806,0.181-0.61475,0.181c-0.2067,0-0.38288-0.03642-0.53014-0.10817   c-0.14673-0.07283-0.26721-0.16815-0.36147-0.28703c-0.09478-0.11781-0.16386-0.25382-0.20777-0.40805   c-0.04391-0.15315-0.06533-0.31059-0.06533-0.47338v-1.97385h0.78932v1.75001c0,0.09211,0.00643,0.1885,0.01981,0.29024   c0.01339,0.10067,0.04177,0.19171,0.08569,0.27203c0.04391,0.08139,0.10388,0.14887,0.18099,0.20135   c0.07658,0.05248,0.17832,0.07925,0.30577,0.07925c0.12263,0,0.23134-0.0257,0.32558-0.07604   c0.09425-0.05034,0.17136-0.11567,0.23026-0.19385c0.05944-0.07925,0.10442-0.17029,0.13495-0.2731   c0.03106-0.10282,0.04605-0.20778,0.04605-0.31273v-1.73716h0.78986V36.22196z"></path>
	<path fill="#1A8AB9" d="M75.1186,32.97149c0.20617,0,0.38235,0.03642,0.52961,0.10817   c0.14672,0.07283,0.26775,0.16814,0.36199,0.28703c0.09425,0.11781,0.16333,0.25383,0.20724,0.40698   c0.04391,0.15422,0.06587,0.31166,0.06587,0.47445v1.97385h-0.78986v-1.75001c0-0.09211-0.00642-0.1885-0.01981-0.29024   c-0.01285-0.10067-0.04177-0.19171-0.08514-0.27311c-0.04391-0.08033-0.10442-0.1478-0.181-0.20028   c-0.07711-0.05248-0.17886-0.07925-0.3063-0.07925c-0.12263,0-0.22812,0.02678-0.31594,0.07925s-0.16011,0.12102-0.21688,0.20349   c-0.0573,0.08354-0.09853,0.17672-0.12531,0.2806c-0.02624,0.10282-0.03909,0.20456-0.03909,0.30523v1.7243h-0.78986v-1.90851   c0-0.19706-0.04713-0.36093-0.14137-0.48945c-0.09425-0.12959-0.24258-0.19492-0.44392-0.19492   c-0.11888,0-0.22169,0.0257-0.30952,0.07604c-0.08782,0.05033-0.15904,0.11459-0.21367,0.19385   c-0.05515,0.07925-0.09692,0.17029-0.12531,0.27311c-0.02838,0.10281-0.04284,0.20777-0.04284,0.31273v1.73716h-0.78932v-3.15837   h0.75023v0.50658h0.01286c0.03534-0.07925,0.08247-0.15315,0.14137-0.22384c0.05944-0.06961,0.12959-0.13388,0.21098-0.19064   c0.08086-0.05676,0.17403-0.10174,0.27953-0.13494c0.10496-0.0332,0.22116-0.04927,0.3486-0.04927   c0.2458,0,0.44982,0.05462,0.61208,0.16386c0.16225,0.11031,0.28703,0.2549,0.37485,0.43483   c0.1055-0.19278,0.2458-0.34058,0.42144-0.44447C74.67521,33.0229,74.88137,32.97149,75.1186,32.97149z"></path>
	<path fill="#1A8AB9" d="M82.51436,32.65554c-0.12316-0.16708-0.28328-0.2881-0.48034-0.36521   c-0.1976-0.07711-0.39091-0.11567-0.57941-0.11567c-0.24097,0-0.46053,0.04391-0.65813,0.13173   c-0.19707,0.08782-0.36736,0.20885-0.5098,0.362c-0.14244,0.15422-0.25222,0.33415-0.3288,0.53978   c-0.07711,0.2067-0.11514,0.43054-0.11514,0.67152c0,0.25383,0.03695,0.48623,0.11192,0.69722   c0.07443,0.21099,0.181,0.39199,0.31915,0.543c0.13816,0.15101,0.30363,0.26882,0.49641,0.35236   c0.19331,0.08247,0.41019,0.12423,0.6517,0.12423c0.25008,0,0.47124-0.04927,0.66455-0.1478   c0.19278-0.09853,0.34861-0.22919,0.46696-0.39091l0.66455,0.46696c-0.20616,0.25811-0.45838,0.45946-0.75666,0.6019   c-0.29827,0.14244-0.64688,0.2142-1.04582,0.2142c-0.36468,0-0.69883-0.06105-1.00352-0.181   c-0.30524-0.12102-0.56709-0.29024-0.78664-0.50658c-0.21956-0.21741-0.39038-0.47659-0.51301-0.77647   c-0.12317-0.30095-0.18421-0.63296-0.18421-0.9971c0-0.37271,0.06426-0.71007,0.19385-1.00995   c0.12959-0.30095,0.30684-0.55692,0.53282-0.76683c0.22598-0.21099,0.49266-0.37271,0.7995-0.4873   c0.30737-0.11353,0.64046-0.17136,1.00031-0.17136c0.1494,0,0.30523,0.01499,0.46748,0.04284   c0.16226,0.02892,0.31809,0.07283,0.46696,0.13173c0.14941,0.05998,0.2897,0.1328,0.42144,0.22063   c0.1312,0.08782,0.24311,0.19278,0.33522,0.31594L82.51436,32.65554z"></path>
	<path fill="#1A8AB9" d="M83.56072,34.62939c0-0.24954,0.04498-0.47659,0.13495-0.68115   c0.08942-0.20349,0.21152-0.37806,0.3652-0.52264c0.15315-0.14458,0.33523-0.25704,0.54568-0.3363   c0.21098-0.07818,0.43429-0.11781,0.67151-0.11781c0.23669,0,0.46053,0.03963,0.67098,0.11781   c0.21045,0.07925,0.39252,0.19171,0.54621,0.3363c0.15369,0.14458,0.27524,0.31916,0.3652,0.52264   c0.08997,0.20456,0.13495,0.43161,0.13495,0.68115c0,0.25061-0.04498,0.47874-0.13495,0.68437   c-0.08997,0.2067-0.21152,0.38342-0.3652,0.53014c-0.15369,0.14672-0.33576,0.26239-0.54621,0.34486   c-0.21045,0.08354-0.43429,0.12531-0.67098,0.12531c-0.23722,0-0.46053-0.04177-0.67151-0.12531   c-0.21045-0.08247-0.39252-0.19814-0.54568-0.34486c-0.15369-0.14673-0.27578-0.32344-0.3652-0.53014   C83.60571,35.10812,83.56072,34.88,83.56072,34.62939z M84.36343,34.62939c0,0.12317,0.01875,0.24633,0.05569,0.36842   c0.03748,0.12317,0.09317,0.23241,0.16814,0.3288c0.07443,0.09746,0.16868,0.17564,0.28275,0.23776   c0.11406,0.06105,0.25008,0.0921,0.40804,0.0921c0.15797,0,0.29399-0.03106,0.40805-0.0921   c0.11407-0.06212,0.20831-0.1403,0.28275-0.23776c0.07443-0.09639,0.13066-0.20563,0.16761-0.3288   c0.03748-0.12209,0.05623-0.24526,0.05623-0.36842c0-0.12209-0.01875-0.24419-0.05623-0.36521   c-0.03695-0.11995-0.09318-0.22919-0.16761-0.32558s-0.16868-0.17457-0.28275-0.23347   c-0.11406-0.05891-0.25008-0.08889-0.40805-0.08889c-0.15797,0-0.29398,0.02999-0.40804,0.08889   c-0.11407,0.0589-0.20831,0.13708-0.28275,0.23347c-0.07497,0.09639-0.13066,0.20563-0.16814,0.32558   C84.38218,34.3852,84.36343,34.50729,84.36343,34.62939z"></path>
	<path fill="#1A8AB9" d="M91.66066,32.97149c0.20617,0,0.38235,0.03642,0.52961,0.10817   c0.14673,0.07283,0.26775,0.16814,0.362,0.28703c0.09425,0.11781,0.16332,0.25383,0.20724,0.40698   c0.04391,0.15422,0.06586,0.31166,0.06586,0.47445v1.97385h-0.78986v-1.75001c0-0.09211-0.00643-0.1885-0.01981-0.29024   c-0.01286-0.10067-0.04177-0.19171-0.08514-0.27311c-0.04391-0.08033-0.10442-0.1478-0.181-0.20028   c-0.07711-0.05248-0.17886-0.07925-0.3063-0.07925c-0.12263,0-0.22813,0.02678-0.31595,0.07925s-0.16011,0.12102-0.21687,0.20349   c-0.0573,0.08354-0.09853,0.17672-0.12531,0.2806c-0.02624,0.10282-0.0391,0.20456-0.0391,0.30523v1.7243h-0.78985v-1.90851   c0-0.19706-0.04713-0.36093-0.14137-0.48945c-0.09425-0.12959-0.24258-0.19492-0.44393-0.19492   c-0.11888,0-0.22169,0.0257-0.30952,0.07604c-0.08782,0.05033-0.15904,0.11459-0.21366,0.19385   c-0.05516,0.07925-0.09692,0.17029-0.12531,0.27311c-0.02838,0.10281-0.04284,0.20777-0.04284,0.31273v1.73716h-0.78933v-3.15837   h0.75024v0.50658h0.01285c0.03535-0.07925,0.08247-0.15315,0.14137-0.22384c0.05944-0.06961,0.12959-0.13388,0.21099-0.19064   c0.08086-0.05676,0.17403-0.10174,0.27953-0.13494c0.10496-0.0332,0.22116-0.04927,0.34861-0.04927   c0.2458,0,0.44982,0.05462,0.61208,0.16386c0.16225,0.11031,0.28703,0.2549,0.37485,0.43483   c0.10549-0.19278,0.2458-0.34058,0.42143-0.44447C91.21727,33.0229,91.42344,32.97149,91.66066,32.97149z"></path>
	<path fill="#1A8AB9" d="M94.63428,33.06359v0.44125h0.01981c0.03909-0.06211,0.09103-0.12423,0.15422-0.18849   c0.06373-0.06319,0.14191-0.11995,0.23402-0.17029c0.0921-0.05033,0.19599-0.0921,0.31219-0.12531   c0.1162-0.0332,0.24686-0.04927,0.39198-0.04927c0.2233,0,0.42947,0.04284,0.6185,0.12852   c0.18849,0.08568,0.35075,0.20242,0.48676,0.35129c0.13602,0.14994,0.24097,0.32558,0.31595,0.52693   c0.07443,0.20135,0.11192,0.41876,0.11192,0.65117s-0.03642,0.45089-0.1087,0.65438   c-0.07229,0.20456-0.17564,0.38234-0.30952,0.53336c-0.13387,0.15101-0.29613,0.27203-0.48677,0.362   s-0.40697,0.13494-0.64795,0.13494c-0.22384,0-0.42893-0.04605-0.61529-0.13816c-0.18689-0.09211-0.33041-0.21741-0.43108-0.37485   h-0.01339v2.00062h-0.78932v-4.73809H94.63428z M96.47639,34.62939c0-0.12209-0.0182-0.24419-0.05569-0.36521   c-0.03749-0.11995-0.09318-0.22919-0.16762-0.32558c-0.07497-0.09639-0.16921-0.17457-0.28327-0.23347   c-0.11407-0.05891-0.24794-0.08889-0.40109-0.08889c-0.14512,0-0.27417,0.03106-0.38824,0.09211   c-0.11406,0.06105-0.21205,0.1403-0.29292,0.23669c-0.0814,0.09639-0.14244,0.2067-0.18421,0.3288   c-0.04177,0.12316-0.06265,0.24633-0.06265,0.36842c0,0.12317,0.02088,0.24526,0.06265,0.36521   c0.04177,0.12102,0.10281,0.23026,0.18421,0.32665c0.08086,0.09639,0.17886,0.1735,0.29292,0.23348   c0.11407,0.0589,0.24312,0.08889,0.38824,0.08889c0.15315,0,0.28703-0.03106,0.40109-0.0921   c0.11406-0.06212,0.20831-0.1403,0.28327-0.23776c0.07444-0.09639,0.13013-0.20563,0.16762-0.3288   C96.45819,34.87572,96.47639,34.75255,96.47639,34.62939z"></path>
	<path fill="#1A8AB9" d="M101.05651,36.22196h-0.75024v-0.50658h-0.01338c-0.07015,0.15744-0.19171,0.29667-0.36521,0.41769   c-0.17297,0.12103-0.37806,0.181-0.61475,0.181c-0.2067,0-0.38288-0.03642-0.53014-0.10817   c-0.14673-0.07283-0.26721-0.16815-0.36146-0.28703c-0.09479-0.11781-0.16386-0.25382-0.20777-0.40805   c-0.04391-0.15315-0.06533-0.31059-0.06533-0.47338v-1.97385h0.78932v1.75001c0,0.09211,0.00642,0.1885,0.01981,0.29024   c0.01338,0.10067,0.04176,0.19171,0.08568,0.27203c0.04391,0.08139,0.10389,0.14887,0.181,0.20135   c0.07658,0.05248,0.17832,0.07925,0.30577,0.07925c0.12263,0,0.23133-0.0257,0.32558-0.07604   c0.09425-0.05034,0.17136-0.11567,0.23027-0.19385c0.05943-0.07925,0.10442-0.17029,0.13494-0.2731   c0.03106-0.10282,0.04605-0.20778,0.04605-0.31273v-1.73716h0.78986V36.22196z"></path>
	<path fill="#1A8AB9" d="M101.68143,33.69548v-0.63189h0.55264v-0.91463h0.77647v0.91463h0.78986v0.63189h-0.78986v1.46726   c0,0.1403,0.02516,0.25597,0.0755,0.34808s0.16333,0.13816,0.33897,0.13816c0.05247,0,0.10977-0.00536,0.17136-0.01606   c0.06105-0.01071,0.1162-0.02678,0.1644-0.04927l0.02624,0.61904c-0.07014,0.0257-0.15369,0.04712-0.25008,0.06211   c-0.09639,0.015-0.18849,0.02249-0.27631,0.02249c-0.21045,0-0.38181-0.02892-0.51301-0.08889   c-0.13174-0.05891-0.23615-0.1403-0.31273-0.24312c-0.07712-0.10281-0.12959-0.22169-0.15797-0.35557   c-0.02838-0.13387-0.04284-0.27739-0.04284-0.43054v-1.47369H101.68143z"></path>
	<path fill="#1A8AB9" d="M104.40551,31.99045c0-0.12638,0.04713-0.23776,0.14191-0.33201   c0.09425-0.09425,0.21367-0.14137,0.35825-0.14137c0.14512,0,0.26668,0.04498,0.3652,0.13494   c0.09907,0.08996,0.14834,0.20242,0.14834,0.33843c0,0.13602-0.04927,0.24954-0.14834,0.33951   c-0.09853,0.08997-0.22009,0.13494-0.3652,0.13494c-0.14458,0-0.264-0.04712-0.35825-0.14137   C104.45264,32.22929,104.40551,32.1179,104.40551,31.99045z M104.51743,33.06359h0.78986v3.15837h-0.78986V33.06359z"></path>
	<path fill="#1A8AB9" d="M106.39917,33.06359h0.75024v0.50658h0.01285c0.06962-0.15744,0.19171-0.29667,0.36521-0.41769   s0.37806-0.181,0.61475-0.181c0.2067,0,0.38342,0.03642,0.53014,0.10817c0.14672,0.07283,0.26775,0.16814,0.36199,0.28703   c0.09425,0.11781,0.1628,0.25383,0.2067,0.40698c0.04391,0.15422,0.0664,0.31166,0.0664,0.47445v1.97385h-0.79039v-1.75001   c0-0.09211-0.00642-0.1885-0.01928-0.29024c-0.01286-0.10067-0.04177-0.19171-0.08568-0.27311   c-0.04391-0.08033-0.10389-0.1478-0.181-0.20028c-0.07604-0.05248-0.17886-0.07925-0.30524-0.07925   c-0.12745,0-0.23775,0.0257-0.32986,0.07604c-0.0921,0.05033-0.16708,0.11459-0.22705,0.19385   c-0.05891,0.07925-0.10389,0.17029-0.13495,0.27311c-0.02998,0.10281-0.04605,0.20777-0.04605,0.31273v1.73716h-0.78879V33.06359z"></path>
	<path fill="#1A8AB9" d="M113.57109,33.06359v2.87563c0,0.28489-0.03534,0.543-0.10496,0.77326   c-0.07068,0.23026-0.17886,0.42519-0.32665,0.58583c-0.14672,0.15958-0.33201,0.28381-0.55585,0.37164   s-0.48837,0.13173-0.79575,0.13173c-0.12745,0-0.2624-0.01178-0.40484-0.0332c-0.14244-0.02249-0.28275-0.05462-0.4209-0.09853   c-0.13816-0.04391-0.27097-0.09853-0.39841-0.16493c-0.12745-0.06533-0.24097-0.1403-0.34164-0.22384l0.4541-0.61154   c0.15315,0.14458,0.32665,0.2549,0.51943,0.33201s0.3877,0.11567,0.58584,0.11567c0.18849,0,0.347-0.02784,0.47659-0.08353   c0.12959-0.05462,0.23241-0.13066,0.30952-0.22705c0.07711-0.09746,0.13173-0.21206,0.16493-0.34379   c0.03213-0.13173,0.04926-0.27739,0.04926-0.43589V35.7957h-0.01392c-0.11353,0.15529-0.25918,0.27417-0.43697,0.35557   c-0.17778,0.08247-0.37699,0.12317-0.59547,0.12317c-0.23669,0-0.45196-0.04391-0.64474-0.13173   c-0.19385-0.08782-0.35664-0.20563-0.49052-0.35557c-0.13387-0.14887-0.23776-0.32344-0.31273-0.52265   c-0.07498-0.1992-0.11138-0.41126-0.11138-0.6351c0-0.22812,0.03534-0.44339,0.10817-0.64474   c0.07282-0.20135,0.17564-0.37699,0.30952-0.52586c0.13387-0.14994,0.29559-0.26775,0.48623-0.35557   c0.19171-0.08782,0.40484-0.13173,0.64153-0.13173c0.22384,0,0.43269,0.04605,0.62547,0.13816s0.347,0.23455,0.46053,0.42733   h0.01286v-0.47338H113.57109z M111.88642,33.61623c-0.14458,0-0.27311,0.02678-0.38449,0.07925   c-0.11246,0.05141-0.2067,0.12317-0.28381,0.21313c-0.07604,0.08889-0.13602,0.19492-0.17671,0.31808   c-0.04177,0.12209-0.06319,0.25276-0.06319,0.39306c0,0.12638,0.02142,0.24954,0.06319,0.36735   c0.0407,0.11781,0.10067,0.22383,0.17671,0.31808c0.07711,0.09425,0.17136,0.16922,0.28381,0.22598   c0.11138,0.05676,0.23776,0.08568,0.37806,0.08568c0.14458,0,0.27525-0.02785,0.39091-0.08247   c0.11674-0.05462,0.21527-0.12745,0.29667-0.21955c0.08139-0.09211,0.14351-0.19814,0.18742-0.31809   c0.04391-0.11995,0.06533-0.24633,0.06533-0.37699c0-0.13602-0.02142-0.26454-0.06533-0.38663   c-0.04391-0.12317-0.10603-0.23026-0.18742-0.3213c-0.0814-0.09211-0.17886-0.16493-0.29238-0.21634   C112.16059,33.643,112.03101,33.61623,111.88642,33.61623z"></path>
	<path fill="#1A8AB9" d="M116.466,31.56313h1.65255c0.30202,0,0.60725,0.03963,0.91463,0.11888   c0.3063,0.07818,0.58262,0.20884,0.82895,0.39091c0.24526,0.18207,0.44447,0.4209,0.59869,0.71757   c0.15315,0.29559,0.23026,0.66294,0.23026,1.10205c0,0.40805-0.07711,0.75933-0.23026,1.05279   c-0.15422,0.29453-0.35342,0.5355-0.59869,0.724c-0.24633,0.18849-0.52264,0.32772-0.82895,0.41769   c-0.30737,0.08996-0.61261,0.13494-0.91463,0.13494H116.466V31.56313z M117.98681,35.49797   c0.2142,0,0.42947-0.02464,0.64474-0.07497c0.2142-0.05141,0.40913-0.13602,0.58263-0.25704   c0.17243-0.12103,0.3138-0.28381,0.42411-0.49052c0.10925-0.20563,0.16386-0.46695,0.16386-0.7829   c0-0.33308-0.05462-0.60511-0.16386-0.8161c-0.11031-0.20992-0.25168-0.37485-0.42411-0.49373   c-0.1735-0.11781-0.36842-0.1992-0.58263-0.24311c-0.21526-0.04391-0.43053-0.06533-0.64474-0.06533h-0.69079v3.2237H117.98681z"></path>
	<path fill="#1A8AB9" d="M124.59914,34.68187c0,0.03534,0,0.07069,0,0.10603c0,0.03427-0.00214,0.06961-0.00642,0.10496h-2.40224   c0.00964,0.11353,0.03856,0.21848,0.08889,0.31273c0.05034,0.09425,0.11781,0.17564,0.20135,0.24311   c0.08247,0.06854,0.17779,0.12209,0.28275,0.16172c0.10496,0.03856,0.21527,0.05891,0.3288,0.05891   c0.19706,0,0.36414-0.03642,0.50015-0.10817c0.13602-0.07283,0.2474-0.17243,0.33522-0.29988l0.52693,0.4209   c-0.31166,0.4209-0.76362,0.63189-1.35589,0.63189c-0.24525,0-0.47123-0.03856-0.67793-0.11567   c-0.20563-0.07604-0.38448-0.18421-0.5355-0.32558c-0.15208-0.1403-0.26989-0.31166-0.35557-0.51622   c-0.08568-0.20349-0.12852-0.43483-0.12852-0.694c0-0.2549,0.04284-0.48623,0.12852-0.69401   c0.08568-0.20884,0.20242-0.38663,0.35236-0.53336c0.14887-0.14672,0.32558-0.26132,0.52908-0.34165   c0.20456-0.08139,0.42411-0.12209,0.66187-0.12209c0.21848,0,0.42197,0.03642,0.60833,0.10817   c0.18635,0.07283,0.34807,0.17993,0.48409,0.32237c0.13495,0.14244,0.24205,0.32023,0.31916,0.53336   C124.56059,34.14851,124.59914,34.39698,124.59914,34.68187z M123.80981,34.32737c0-0.10174-0.01499-0.19813-0.04284-0.29024   c-0.02892-0.09211-0.0739-0.1735-0.13495-0.24312c-0.06212-0.07069-0.13923-0.12638-0.23347-0.16814   c-0.09425-0.04177-0.20564-0.06212-0.33201-0.06212c-0.23776,0-0.43804,0.07069-0.60297,0.2142   c-0.16386,0.14244-0.2549,0.32558-0.2731,0.54942H123.80981z"></path>
	<path fill="#1A8AB9" d="M129.26439,32.97149c0.20671,0,0.38235,0.03642,0.53015,0.10817   c0.14673,0.07283,0.26775,0.16814,0.362,0.28703c0.09424,0.11781,0.16278,0.25383,0.2067,0.40698   c0.04391,0.15422,0.06641,0.31166,0.06641,0.47445v1.97385h-0.79041v-1.75001c0-0.09211-0.00642-0.1885-0.01927-0.29024   c-0.01285-0.10067-0.04176-0.19171-0.08568-0.27311c-0.04391-0.08033-0.10388-0.1478-0.181-0.20028   s-0.17885-0.07925-0.3063-0.07925c-0.12209,0-0.22812,0.02678-0.31595,0.07925c-0.08781,0.05248-0.15958,0.12102-0.21634,0.20349   c-0.05783,0.08354-0.09853,0.17672-0.12531,0.2806c-0.02678,0.10282-0.03963,0.20456-0.03963,0.30523v1.7243h-0.78932v-1.90851   c0-0.19706-0.04713-0.36093-0.14137-0.48945c-0.09425-0.12959-0.24311-0.19492-0.44446-0.19492   c-0.11888,0-0.2217,0.0257-0.30952,0.07604c-0.08781,0.05033-0.1585,0.11459-0.21313,0.19385   c-0.05569,0.07925-0.09746,0.17029-0.12531,0.27311c-0.02892,0.10281-0.04284,0.20777-0.04284,0.31273v1.73716h-0.78932v-3.15837   h0.74969v0.50658h0.01286c0.03534-0.07925,0.08247-0.15315,0.14137-0.22384c0.05998-0.06961,0.12959-0.13388,0.21099-0.19064   s0.17457-0.10174,0.27953-0.13494c0.10496-0.0332,0.2217-0.04927,0.34914-0.04927c0.24526,0,0.44982,0.05462,0.61154,0.16386   c0.1628,0.11031,0.28703,0.2549,0.37485,0.43483c0.10603-0.19278,0.24634-0.34058,0.42197-0.44447   C128.821,33.0229,129.02771,32.97149,129.26439,32.97149z"></path>
	<path fill="#1A8AB9" d="M131.29822,34.62939c0-0.24954,0.04498-0.47659,0.13495-0.68115   c0.08888-0.20349,0.21098-0.37806,0.3652-0.52264c0.15315-0.14458,0.33522-0.25704,0.54514-0.3363   c0.21098-0.07818,0.43483-0.11781,0.67151-0.11781c0.23669,0,0.46054,0.03963,0.67152,0.11781   c0.20992,0.07925,0.39198,0.19171,0.5462,0.3363c0.15315,0.14458,0.27525,0.31916,0.36522,0.52264   c0.08995,0.20456,0.13493,0.43161,0.13493,0.68115c0,0.25061-0.04498,0.47874-0.13493,0.68437   c-0.08997,0.2067-0.21207,0.38342-0.36522,0.53014c-0.15422,0.14672-0.33629,0.26239-0.5462,0.34486   c-0.21098,0.08354-0.43483,0.12531-0.67152,0.12531c-0.23668,0-0.46053-0.04177-0.67151-0.12531   c-0.20992-0.08247-0.39198-0.19814-0.54514-0.34486c-0.15422-0.14673-0.27632-0.32344-0.3652-0.53014   C131.3432,35.10812,131.29822,34.88,131.29822,34.62939z M132.10039,34.62939c0,0.12317,0.01929,0.24633,0.05569,0.36842   c0.03749,0.12317,0.09319,0.23241,0.16815,0.3288c0.07497,0.09746,0.16922,0.17564,0.28275,0.23776   c0.11459,0.06105,0.25061,0.0921,0.40804,0.0921c0.15851,0,0.29453-0.03106,0.40805-0.0921   c0.11461-0.06212,0.20885-0.1403,0.28275-0.23776c0.07497-0.09639,0.13066-0.20563,0.16815-0.3288   c0.03748-0.12209,0.05569-0.24526,0.05569-0.36842c0-0.12209-0.01822-0.24419-0.05569-0.36521   c-0.03749-0.11995-0.09319-0.22919-0.16815-0.32558c-0.0739-0.09639-0.16814-0.17457-0.28275-0.23347   c-0.11353-0.05891-0.24954-0.08889-0.40805-0.08889c-0.15742,0-0.29344,0.02999-0.40804,0.08889   c-0.11353,0.0589-0.20778,0.13708-0.28275,0.23347s-0.13066,0.20563-0.16815,0.32558   C132.11967,34.3852,132.10039,34.50729,132.10039,34.62939z"></path>
	<path fill="#1A8AB9" d="M135.62825,33.06359h0.74969v0.50658h0.01286c0.07068-0.15744,0.1917-0.29667,0.3652-0.41769   c0.17349-0.12102,0.37914-0.181,0.61581-0.181c0.20564,0,0.38235,0.03642,0.52908,0.10817   c0.1478,0.07283,0.26775,0.16814,0.36198,0.28703c0.09425,0.11781,0.16386,0.25383,0.20778,0.40698   c0.04391,0.15422,0.06534,0.31166,0.06534,0.47445v1.97385h-0.78932v-1.75001c0-0.09211-0.00644-0.1885-0.01929-0.29024   c-0.01392-0.10067-0.04176-0.19171-0.08568-0.27311c-0.04391-0.08033-0.10495-0.1478-0.181-0.20028   c-0.0771-0.05248-0.17885-0.07925-0.3063-0.07925c-0.12744,0-0.23669,0.0257-0.3288,0.07604   c-0.0921,0.05033-0.16814,0.11459-0.22705,0.19385c-0.0589,0.07925-0.10388,0.17029-0.13495,0.27311   c-0.03105,0.10281-0.04605,0.20777-0.04605,0.31273v1.73716h-0.78932V33.06359z"></path>
	<path fill="#1A8AB9" d="M141.31845,33.9054c-0.06961-0.09211-0.166-0.17136-0.28917-0.2399   c-0.12317-0.06747-0.25597-0.10175-0.40163-0.10175c-0.12637,0-0.24312,0.0257-0.34807,0.07925   c-0.10603,0.05248-0.15851,0.1403-0.15851,0.26239c0,0.12317,0.0589,0.20992,0.17458,0.26025   c0.11673,0.05034,0.28595,0.10175,0.5098,0.15422c0.11888,0.02678,0.23776,0.06212,0.35878,0.10603s0.23026,0.10175,0.3288,0.17457   c0.09853,0.07176,0.17885,0.16172,0.24097,0.26882c0.06105,0.10817,0.09212,0.23883,0.09212,0.39199   c0,0.19278-0.03642,0.35664-0.10925,0.49052c-0.07175,0.13387-0.16922,0.24204-0.28917,0.32558   c-0.12102,0.08354-0.26132,0.14351-0.4209,0.181c-0.16064,0.03748-0.32558,0.05569-0.49693,0.05569   c-0.24634,0-0.48517-0.04498-0.71758-0.13494s-0.42519-0.21848-0.57941-0.38449l0.52051-0.4873   c0.08781,0.1146,0.20134,0.20885,0.34164,0.28275c0.1403,0.07497,0.29666,0.11245,0.46695,0.11245   c0.05783,0,0.11568-0.0075,0.17458-0.02035c0.05998-0.01285,0.11459-0.0332,0.16493-0.06212   c0.05034-0.02892,0.09103-0.06747,0.1221-0.11567c0.02998-0.04819,0.04605-0.1071,0.04605-0.17778   c0-0.13066-0.06105-0.22491-0.181-0.28274c-0.12103-0.05676-0.30202-0.11353-0.543-0.17136   c-0.11888-0.0257-0.23347-0.05998-0.34593-0.10175c-0.11139-0.04177-0.21098-0.09639-0.29881-0.16386   c-0.08781-0.06854-0.15851-0.15315-0.21098-0.25383c-0.05247-0.10067-0.07925-0.22598-0.07925-0.37485   c0-0.17564,0.03642-0.32665,0.10925-0.4541c0.07175-0.12745,0.16707-0.23133,0.28595-0.31273   c0.11888-0.0814,0.25168-0.14137,0.40163-0.181c0.14886-0.03963,0.30202-0.05891,0.46053-0.05891   c0.22812,0,0.45088,0.03963,0.66724,0.11781c0.21741,0.07925,0.38983,0.20028,0.51729,0.362L141.31845,33.9054z"></path>
	<path fill="#1A8AB9" d="M142.1881,33.69548v-0.63189h0.55264v-0.91463h0.77647v0.91463h0.78932v0.63189h-0.78932v1.46726   c0,0.1403,0.02463,0.25597,0.07497,0.34808s0.16386,0.13816,0.33951,0.13816c0.05247,0,0.10924-0.00536,0.17136-0.01606   c0.06105-0.01071,0.11566-0.02678,0.16386-0.04927l0.02678,0.61904c-0.07069,0.0257-0.15424,0.04712-0.25063,0.06211   c-0.09639,0.015-0.18849,0.02249-0.27631,0.02249c-0.20992,0-0.38129-0.02892-0.51302-0.08889   c-0.13173-0.05891-0.23561-0.1403-0.31273-0.24312c-0.07712-0.10281-0.12959-0.22169-0.15744-0.35557   c-0.02892-0.13387-0.04283-0.27739-0.04283-0.43054v-1.47369H142.1881z"></path>
	<path fill="#1A8AB9" d="M145.01125,33.06359h0.75612v0.52586h0.01286c0.08781-0.18421,0.21098-0.33308,0.36949-0.44661   c0.15742-0.1146,0.34164-0.17136,0.55263-0.17136c0.02998,0,0.06319,0.00107,0.09853,0.00322   c0.03535,0.00214,0.06534,0.0075,0.09212,0.01606v0.72399c-0.05249-0.01285-0.09747-0.02142-0.13495-0.0257   c-0.03749-0.00428-0.0739-0.0075-0.10924-0.0075c-0.17993,0-0.32452,0.0332-0.43376,0.0996   c-0.10924,0.06533-0.19492,0.14458-0.25703,0.23669c-0.06105,0.09211-0.10283,0.18636-0.12424,0.28274   c-0.02249,0.09639-0.0332,0.1735-0.0332,0.23027v1.6911h-0.78932V33.06359z"></path>
	<path fill="#1A8AB9" d="M149.41304,35.82034h-0.01929c-0.07925,0.1403-0.2067,0.25597-0.38234,0.34593   c-0.17564,0.08996-0.37485,0.13494-0.59868,0.13494c-0.12746,0-0.26025-0.01714-0.39842-0.04927   c-0.13815-0.0332-0.26453-0.08782-0.38127-0.16493c-0.11566-0.07711-0.21312-0.17778-0.28917-0.30309   c-0.0771-0.12423-0.11566-0.27953-0.11566-0.46374c0-0.23669,0.06747-0.42518,0.20134-0.56548   c0.13388-0.1403,0.30524-0.2474,0.51622-0.32237c0.21098-0.07497,0.44447-0.12423,0.70044-0.1478   c0.25703-0.02463,0.50764-0.03642,0.75398-0.03642v-0.07925c0-0.19706-0.07176-0.34272-0.2142-0.43804   c-0.14244-0.09425-0.31273-0.14137-0.5098-0.14137c-0.16707,0-0.32666,0.03534-0.48088,0.10603   c-0.15315,0.06961-0.28059,0.15529-0.38127,0.25597l-0.40805-0.4798c0.17993-0.16708,0.3877-0.29238,0.62225-0.37485   c0.23454-0.08354,0.47231-0.12531,0.71327-0.12531c0.28061,0,0.51302,0.03963,0.69508,0.11781   c0.181,0.07925,0.32558,0.18207,0.43054,0.30952c0.10495,0.12745,0.17885,0.26989,0.22063,0.4284   c0.04176,0.15744,0.06212,0.31487,0.06212,0.47338v1.92137h-0.73685V35.82034z M149.40019,34.7804h-0.1778   c-0.12744,0-0.26132,0.00642-0.40163,0.01714c-0.14029,0.01071-0.26988,0.03534-0.3877,0.07175   c-0.11888,0.03749-0.21741,0.08997-0.29666,0.15851c-0.07925,0.06747-0.11781,0.16065-0.11781,0.27953   c0,0.07497,0.01607,0.13709,0.04927,0.18742c0.03212,0.05034,0.07497,0.09104,0.12744,0.1221   c0.05356,0.02999,0.11246,0.05248,0.1778,0.06533c0.06639,0.01285,0.13173,0.02035,0.19812,0.02035   c0.27203,0,0.47768-0.07283,0.61797-0.21741c0.1403-0.14458,0.211-0.34272,0.211-0.59226V34.7804z"></path>
	<path fill="#1A8AB9" d="M150.68324,33.69548v-0.63189h0.55263v-0.91463h0.77647v0.91463h0.78932v0.63189h-0.78932v1.46726   c0,0.1403,0.02463,0.25597,0.07497,0.34808s0.16386,0.13816,0.33951,0.13816c0.05247,0,0.10924-0.00536,0.17136-0.01606   c0.06105-0.01071,0.11568-0.02678,0.16386-0.04927l0.02678,0.61904c-0.07069,0.0257-0.15422,0.04712-0.25061,0.06211   c-0.09639,0.015-0.18851,0.02249-0.27632,0.02249c-0.20992,0-0.38127-0.02892-0.513-0.08889   c-0.13174-0.05891-0.23563-0.1403-0.31274-0.24312c-0.0771-0.10281-0.12958-0.22169-0.15742-0.35557   c-0.02892-0.13387-0.04285-0.27739-0.04285-0.43054v-1.47369H150.68324z"></path>
	<path fill="#1A8AB9" d="M153.32111,34.62939c0-0.24954,0.04498-0.47659,0.13493-0.68115   c0.08997-0.20349,0.21207-0.37806,0.36522-0.52264s0.33522-0.25704,0.5462-0.3363c0.21098-0.07818,0.43376-0.11781,0.67152-0.11781   c0.23561,0,0.46053,0.03963,0.67044,0.11781c0.20992,0.07925,0.39198,0.19171,0.5462,0.3363s0.27632,0.31916,0.36629,0.52264   c0.08781,0.20456,0.13493,0.43161,0.13493,0.68115c0,0.25061-0.04712,0.47874-0.13493,0.68437   c-0.08997,0.2067-0.21207,0.38342-0.36629,0.53014c-0.15422,0.14672-0.33629,0.26239-0.5462,0.34486   c-0.20992,0.08354-0.43483,0.12531-0.67044,0.12531c-0.23776,0-0.46054-0.04177-0.67152-0.12531   c-0.21098-0.08247-0.39305-0.19814-0.5462-0.34486c-0.15315-0.14673-0.27525-0.32344-0.36522-0.53014   C153.36609,35.10812,153.32111,34.88,153.32111,34.62939z M154.12434,34.62939c0,0.12317,0.0182,0.24633,0.05569,0.36842   c0.03748,0.12317,0.09319,0.23241,0.16815,0.3288c0.0739,0.09746,0.16814,0.17564,0.28275,0.23776   c0.11353,0.06105,0.24954,0.0921,0.40805,0.0921c0.15742,0,0.29344-0.03106,0.40697-0.0921   c0.11353-0.06212,0.20778-0.1403,0.28275-0.23776c0.07497-0.09639,0.13066-0.20563,0.16922-0.3288   c0.03641-0.12209,0.05569-0.24526,0.05569-0.36842c0-0.12209-0.01929-0.24419-0.05569-0.36521   c-0.03856-0.11995-0.09425-0.22919-0.16922-0.32558s-0.16922-0.17457-0.28275-0.23347   c-0.11353-0.05891-0.24954-0.08889-0.40697-0.08889c-0.15851,0-0.29453,0.02999-0.40805,0.08889   c-0.11461,0.0589-0.20885,0.13708-0.28275,0.23347c-0.07497,0.09639-0.13068,0.20563-0.16815,0.32558   C154.14255,34.3852,154.12434,34.50729,154.12434,34.62939z"></path>
	<path fill="#1A8AB9" d="M157.65114,33.06359h0.75719v0.52586h0.01286c0.08781-0.18421,0.21098-0.33308,0.36842-0.44661   c0.15851-0.1146,0.34271-0.17136,0.55263-0.17136c0.03105,0,0.06425,0.00107,0.09961,0.00322   c0.03427,0.00214,0.06532,0.0075,0.0921,0.01606v0.72399c-0.05356-0.01285-0.09854-0.02142-0.13495-0.0257   c-0.03749-0.00428-0.0739-0.0075-0.10925-0.0075c-0.17992,0-0.32449,0.0332-0.43375,0.0996   c-0.11031,0.06533-0.19598,0.14458-0.25703,0.23669s-0.10281,0.18636-0.12531,0.28274   c-0.02142,0.09639-0.03214,0.1735-0.03214,0.23027v1.6911h-0.79039V33.06359z"></path>
</g>
<path fill="#1A8AB9" d="M194.69046,0.05122c-10.47649,0-18.99947,8.52352-18.99947,18.99946  c0,10.47648,8.52298,19.00054,18.99947,19.00054c10.47647,0,19.00053-8.52406,19.00053-19.00054  C213.69099,8.57474,205.16693,0.05122,194.69046,0.05122z M176.19456,18.96199c3.78249,0.08347,7.55339,2.92161,10.18643,5.38323  c-2.16602,1.46552-4.55649,3.20308-7.0331,5.03301c-1.99284-2.95146-3.15782-6.50583-3.15782-10.32755  C176.19008,19.02076,176.19443,18.99191,176.19456,18.96199z M194.69046,37.55214c-5.5463,0-10.51726-2.4653-13.91096-6.34377  c2.50519-1.81112,4.92236-3.55979,7.14368-5.13362c4.89337,4.87316,8.90652,10.37788,15.967,7.38478  c4.95792-2.10176,6.55518-6.93798,5.00685-10.59041c-1.31552-3.10308-7.82819-5.84449-18.06851-1.00961  c-3.32008-4.74853-8.23923-8.54815-13.68378-8.63571c2.44856-7.35205,9.38159-12.67349,17.54573-12.67349  c10.2023,0,18.50145,8.29915,18.50145,18.50038C213.19191,29.25299,204.89276,37.55214,194.69046,37.55214z M192.11217,23.61627  c6.97211-3.47866,13.60393-4.04274,15.45413,0.32177c0.80511,1.89921-0.49567,5.52774-3.67418,6.87519  C198.88622,32.93534,195.8336,28.92761,192.11217,23.61627z"></path>
</svg>
