<?xml version="1.0" encoding="utf-8"?>
<!-- Generator: Adobe Illustrator 24.2.3, SVG Export Plug-In . SVG Version: 6.00 Build 0)  -->
<svg version="1.1"
	 id="svg2" xmlns:cc="http://creativecommons.org/ns#" xmlns:dc="http://purl.org/dc/elements/1.1/" xmlns:rdf="http://www.w3.org/1999/02/22-rdf-syntax-ns#" xmlns:svg="http://www.w3.org/2000/svg"
	 xmlns="http://www.w3.org/2000/svg" xmlns:xlink="http://www.w3.org/1999/xlink" x="0px" y="0px" viewBox="0 0 1180.8 229.5"
	 style="enable-background:new 0 0 1180.8 229.5;" xml:space="preserve">
<style type="text/css">
	.st0{fill:#6CADDF;}
	.st1{fill:#FFFFFF;}
</style>
<g id="g10" transform="matrix(1.25,0,0,-1.25,0,229.16782)">
	<g id="g12" transform="scale(0.49662546,0.49662546)">
		<path id="path14" class="st0" d="M0-0.5h369.7v369.7H0V-0.5z"/>
		<path id="path16" class="st1" d="M88.1,34.6H46.7v186.2l41.4,5.6V34.6"/>
		<path id="path18" class="st1" d="M160,34.6h-41.1v117.6h38.2l0.8-20.6c4.7,8.3,10.2,14.3,16.5,18c6.3,3.7,14.2,5.6,23.5,5.6h3.3
			v-43.9h-8.9c-12.8,0-21.4-1.5-25.8-4.4c-4.4-2.9-6.6-9.9-6.6-21.1V34.6"/>
		<path id="path20" class="st1" d="M211.3,34.6l52.6,86.7h-45.4l7.2,30.9h103.2l-52.6-86.5h51l-4.8-31.1L211.3,34.6"/>
		<path id="path22" d="M440.7,121.8v96.7h11v-87.4h35.8v-9.3L440.7,121.8"/>
		<path id="path24" d="M524.5,186.1c-10,0-17.2-7.3-18.9-18.5h36.1C542,178.7,535.4,186.1,524.5,186.1z M552.6,159.6H505
			c-0.7-21.4,7.7-30.2,23.7-30.2c7.4,0,15.3,1.9,20.6,4.6l1-9.2c-6.6-2.7-14.6-4.3-23.5-4.3c-21.5,0-33,11.6-33,36.5
			c0,21.4,11.5,37.3,31.2,37.3c19.6,0,27.8-13.6,27.8-29.4C552.9,163.6,552.9,161.8,552.6,159.6"/>
		<path id="path26" d="M581.7,205.9c-4,0-7.3,3.2-7.3,7.3c0,4,3.3,7.3,7.3,7.3c4.2,0,7.5-3.3,7.5-7.3
			C589.2,209.1,585.9,205.9,581.7,205.9z M587,121.8h-10.6v62.6c-3.4,0.6-8.3,1.1-12.5,1.4v6.2c6.3,0.9,15.8,1.3,23.1,1V121.8"/>
		<path id="path28" d="M646.9,185.4c-14.2,0-21.2-16.6-21.2-29.3v-24.9c4.2-1.3,8.6-1.9,14.1-1.9c14.6,0,24.4,8.9,24.4,30.4
			C664.1,175.8,658.7,185.4,646.9,185.4z M625.7,190.3c0-4-0.4-9.5-1.1-13l0.3-0.1c3.9,10.7,13.2,17.2,24.2,17.2
			c16.8,0,26.4-11.6,26.4-33.7c0-25.4-14.3-39.7-36.7-39.7c-9.6,0-16.3,0.7-23.7,2.7v94.2c-3.4,0.6-8.3,1.1-12.5,1.4v6.2
			c6.3,0.9,15.8,1.3,23.1,1L625.7,190.3"/>
		<path id="path30" d="M707.8,177.2l0.3-0.1c4.2,10.3,13.2,17.3,25.5,17.3c16.3,0,21.5-10.3,21.5-22.9v-49.7h-10.8v46.2
			c0,11.2-3,17.6-13.5,17.6c-12.8,0-21.8-12.6-21.8-29.5v-34.3h-10.6v62.6c-3.4,0.6-8.3,1.1-12.5,1.4v6.2c6.3,0.9,15.8,1.3,23.1,1
			C709.1,188.4,708.7,181.6,707.8,177.2"/>
		<path id="path32" d="M790,205.9c-4,0-7.3,3.2-7.3,7.3c0,4,3.3,7.3,7.3,7.3c4.2,0,7.5-3.3,7.5-7.3
			C797.4,209.1,794.1,205.9,790,205.9z M795.3,121.8h-10.6v62.6c-3.4,0.6-8.3,1.1-12.5,1.4v6.2c6.3,0.9,15.8,1.3,23.1,1V121.8"/>
		<path id="path34" d="M815.3,121.8v7.6l36.3,54.3c-4.6-0.1-12.2-0.3-20.2-0.3h-15.3v9.6h47.9v-7.5l-36-54.2
			c4.3,0.1,13.9,0.3,20.6,0.3h16.1v-9.9H815.3"/>
		<path id="path36" d="M876.7,153.2h33.3v8.6h-33.3V153.2z"/>
		<path id="path38" d="M950.2,210.2c-3.6,0-6.4-0.1-9.3-0.4v-34.8c1.6-0.1,4.4-0.3,8.7-0.3c14.9,0,23.5,7.6,23.5,18.3
			C973.1,205.6,965.1,210.2,950.2,210.2z M976.6,121.8l-35.3,44.7h-0.4v-44.7h-11v96.7c6.2,0.3,12.5,0.4,22.8,0.4
			c18.2,0,32-6.3,32-24.4c0-17.2-13.8-26.7-31.4-27.4c2.7-3.3,6-7,8.5-10l29.1-35.4L976.6,121.8"/>
		<path id="path40" d="M1029.2,186.1c-10,0-17.2-7.3-18.9-18.5h36.1C1046.7,178.7,1040.1,186.1,1029.2,186.1L1029.2,186.1z
			 M1057.3,159.6h-47.6c-0.7-21.4,7.7-30.2,23.6-30.2c7.5,0,15.3,1.9,20.6,4.6l1-9.2c-6.6-2.7-14.6-4.3-23.5-4.3
			c-21.5,0-33,11.6-33,36.5c0,21.4,11.5,37.3,31.2,37.3c19.6,0,27.8-13.6,27.8-29.4C1057.6,163.6,1057.6,161.8,1057.3,159.6"/>
		<path id="path42" d="M1101.7,120.9c-15.9,0-30.8,7-30.8,34c0,23.4,11.8,39.1,35,39.1c5.9,0,11.6-0.9,16.8-2.4l-1.1-9.5
			c-4.7,1.9-10.3,3.1-16.3,3.1c-15.3,0-22.9-11.3-22.9-28.5c0-14.6,4.6-26.7,21.8-26.7c6.3,0,13.2,1.6,17.9,4l1-9.3
			C1118.2,122.9,1110.5,120.9,1101.7,120.9"/>
		<path id="path44" d="M1129.5,219.2v6.2c6.3,0.9,15.8,1.3,23.1,1v-34.8c0-4.7-0.3-10.6-1.1-14.2l0.3-0.1
			c4.2,10.5,13.2,17.2,25.4,17.2c16.3,0,21.5-10.3,21.5-22.9v-49.7h-10.7v46.2c0,11.2-3,17.6-13.5,17.6c-12.7,0-21.8-12.6-21.8-29.5
			v-34.3H1142v96C1138.6,218.4,1133.7,219,1129.5,219.2"/>
		<path id="path46" d="M1248.6,186.1c-10,0-17.2-7.3-18.9-18.5h36.1C1266.1,178.7,1259.5,186.1,1248.6,186.1L1248.6,186.1z
			 M1276.7,159.6h-47.6c-0.7-21.4,7.7-30.2,23.6-30.2c7.5,0,15.3,1.9,20.6,4.6l1-9.2c-6.6-2.7-14.6-4.3-23.5-4.3
			c-21.5,0-33,11.6-33,36.5c0,21.4,11.5,37.3,31.2,37.3c19.6,0,27.8-13.6,27.8-29.4C1277,163.6,1277,161.8,1276.7,159.6"/>
		<path id="path48" d="M1309.8,177.2l0.3-0.1c4.2,10.3,13.2,17.3,25.5,17.3c16.3,0,21.5-10.3,21.5-22.9v-49.7h-10.8v46.2
			c0,11.2-3,17.6-13.5,17.6c-12.8,0-21.8-12.6-21.8-29.5v-34.3h-10.6v62.6c-3.4,0.6-8.3,1.1-12.5,1.4v6.2c6.3,0.9,15.8,1.3,23.1,1
			C1311.1,188.4,1310.7,181.6,1309.8,177.2"/>
		<path id="path50" d="M1377.2,121.8v7.6l36.3,54.3c-4.6-0.1-12.2-0.3-20.2-0.3h-15.3v9.6h47.9v-7.5l-36-54.2
			c4.3,0.1,13.9,0.3,20.6,0.3h16.1v-9.9H1377.2"/>
		<path id="path52" d="M1469.5,186.1c-10,0-17.2-7.3-18.9-18.5h36.1C1487,178.7,1480.4,186.1,1469.5,186.1z M1497.6,159.6H1450
			c-0.7-21.4,7.7-30.2,23.7-30.2c7.5,0,15.3,1.9,20.6,4.6l1-9.2c-6.6-2.7-14.6-4.3-23.5-4.3c-21.5,0-33,11.6-33,36.5
			c0,21.4,11.5,37.3,31.2,37.3c19.6,0,27.8-13.6,27.8-29.4C1497.9,163.6,1497.9,161.8,1497.6,159.6"/>
		<path id="path54" d="M1530.7,177.2l0.3-0.1c4.2,10.3,13.2,17.3,25.5,17.3c16.3,0,21.5-10.3,21.5-22.9v-49.7h-10.8v46.2
			c0,11.2-3,17.6-13.5,17.6c-12.8,0-21.8-12.6-21.8-29.5v-34.3h-10.6v62.6c-3.4,0.6-8.3,1.1-12.5,1.4v6.2c6.3,0.9,15.8,1.3,23.1,1
			C1532,188.4,1531.6,181.6,1530.7,177.2"/>
		<path id="path56" d="M1623.8,120.6c-14.3,0-18.5,6.3-18.5,21.1v42.9h-15.5v8.4h15.5v23.6l10.8,3V193h20.9v-8.4H1616v-38.4
			c0-12.7,2.3-16,10.8-16c3.6,0,7.3,0.4,10.2,1.3v-9.3C1633.2,121.2,1628.2,120.6,1623.8,120.6"/>
		<path id="path58" d="M1667.9,175.1l0.3-0.1c2.9,10.5,10.2,21.1,25.2,19.4l-0.6-10.6c-15.6,2.6-23.2-9.5-23.2-33.4v-28.5H1659v62.6
			c-3.4,0.6-8.3,1.1-12.5,1.4v6.2c6.3,0.9,15.8,1.3,23.1,1C1669.6,188.3,1669,181.3,1667.9,175.1"/>
		<path id="path60" d="M1759.2,121.8c0,4.6,0.4,11.3,1.3,15.8l-0.3,0.1c-4.2-10.3-13.2-17.3-25.5-17.3c-16.5,0-21.5,10.3-21.5,22.9
			v41.1c-3.4,0.6-8.3,1.1-12.5,1.4v6.2c6.6,0.9,16.1,1.3,23.2,1v-46.1c0-11.2,3-17.6,13.5-17.6c12.7,0,21.6,12.6,21.6,29.5V193h10.7
			v-62.6c3.4-0.6,8.3-1.1,12.5-1.4v-6.2C1776,121.9,1766.5,121.5,1759.2,121.8"/>
		<path id="path62" d="M1891.4,121.8v46c0,10.8-2.4,17.8-12.8,17.8c-11,0-21.4-11.3-21.4-29.8v-34h-10.7v46.2
			c0,9.7-1.9,17.6-12.8,17.6c-11.9,0-21.5-12.3-21.5-29.8v-34h-10.6v62.6c-3.4,0.6-8.3,1.1-12.5,1.4v6.2c6.3,0.9,15.8,1.3,23.1,1
			c0-4.6-0.4-11.3-1.1-15.8l0.1-0.1c4.2,10.5,13.5,17.3,25.2,17.3c16.1,0,19.5-11.6,19.8-17.1c2.7,6.7,10.5,17.1,24.8,17.1
			c13.5,0,21.1-7.2,21.1-23.2v-49.4L1891.4,121.8"/>
		<path id="path64" d="M465.8,65.5c-2.5,0.6-4.8,0.9-7.1,0.9c-7.4,0-12.3-4.5-12.3-15.3c0-8.1,2.7-12.9,8.7-12.9
			c7.1,0,10.7,8.4,10.7,14.7L465.8,65.5L465.8,65.5z M465.8,34.4c0,2.2,0.2,5.6,0.6,7.8l-0.1,0.1c-2-5.1-6.6-8.5-12.3-8.5
			c-8.9,0-13.2,6.5-13.2,16.9c0,12.8,7.2,20,18.4,20c2.1,0,4.2-0.1,6.6-0.4v12.4c-1.7,0.3-4.2,0.6-6.3,0.7v3.1
			c3.2,0.4,7.9,0.7,11.6,0.5V38.7c1.7-0.3,4.2-0.6,6.3-0.7v-3.1C474.3,34.4,469.5,34.2,465.8,34.4"/>
		<path id="path66" d="M497.5,66.8c-5,0-8.7-3.7-9.5-9.3h18.2C506.3,63,503,66.8,497.5,66.8z M511.6,53.4h-24
			c-0.4-10.7,3.9-15.2,11.9-15.2c3.8,0,7.7,0.9,10.4,2.3l0.5-4.6c-3.3-1.4-7.4-2.2-11.8-2.2c-10.8,0-16.6,5.8-16.6,18.4
			c0,10.7,5.8,18.8,15.7,18.8c9.9,0,14-6.9,14-14.8C511.8,55.4,511.8,54.5,511.6,53.4"/>
		<path id="path68" d="M528.1,61.2l0.1-0.1c1.4,5.3,5.1,10.6,12.7,9.7l-0.3-5.3c-7.9,1.3-11.7-4.8-11.7-16.8V34.4h-5.3v31.5
			c-1.7,0.3-4.2,0.6-6.3,0.7v3.1c3.2,0.4,7.9,0.6,11.6,0.5C528.9,67.8,528.6,64.3,528.1,61.2"/>
		<path id="path70" d="M575.1,57.5c-0.9,0-3.5,0-4.7-0.1V39.1c1.3-0.2,3.5-0.4,6.6-0.4c8.6,0,12.3,4.3,12.3,10
			C589.3,55.4,583.1,57.5,575.1,57.5z M577.4,78.8c-2.4,0-4.9-0.1-7-0.1V61.7c1.5-0.1,2.7-0.1,4.6-0.1c8.7,0,13.2,3.4,13.2,9.2
			C588.2,75.4,586,78.8,577.4,78.8z M576.6,34.2c-3,0-7.6,0.1-11.8,0.2v48.7c3.3,0.1,7.7,0.2,13.6,0.2c10.6,0,15.6-4.5,15.6-11.5
			c0-5.3-3.7-9.9-9.2-11.5v-0.1c7.2-1.1,10.3-6.1,10.3-11.3C595.1,43.5,591.9,34.2,576.6,34.2"/>
		<path id="path72" d="M624.5,51.2c-13.5,0-16.4-4.3-16.4-7.7c0-3.2,2.3-5.3,5.8-5.3c6.3,0,10.5,6.3,10.5,12.5L624.5,51.2
			L624.5,51.2z M624.7,34.4c0,2.7,0,5.5,0.4,7.6H625c-1.7-4.5-6.3-8.2-12.5-8.2c-5.7,0-9.8,3-9.8,8.7c0,7.5,7.8,12.7,21.8,12.7v3
			c0,5.4-1.9,8.4-8.2,8.4c-3.5,0-7.8-1.1-11-3.1l-0.5,4.8c3.4,1.5,7.6,2.7,12.4,2.7c9.9,0,12.7-4.9,12.7-11.7V38.7
			c1.7-0.3,4.2-0.6,6.3-0.7v-3.1C633,34.4,628.2,34.2,624.7,34.4"/>
		<path id="path74" d="M655.7,30.6c-4.2-11-7.4-14.7-15.2-14.7c-1.3,0-3.1,0.1-4.5,0.4l0.6,5c1.4-0.5,2.9-0.7,4.5-0.7
			c4.3,0,6.5,2,9.3,9.6l1.7,4.3l-13.7,35.8h6.2l7.5-20.6c1.2-3.2,1.9-5.8,2.7-8.5h0.1c0.6,2.3,2.2,6.8,3.6,10.9l6.4,18.2h5.9
			L655.7,30.6"/>
		<path id="path76" d="M689.8,66.8c-5,0-8.7-3.7-9.5-9.3h18.2C698.6,63,695.3,66.8,689.8,66.8z M703.9,53.4H680
			c-0.4-10.7,3.9-15.2,11.9-15.2c3.8,0,7.7,0.9,10.4,2.3l0.5-4.6c-3.3-1.4-7.4-2.2-11.8-2.2c-10.8,0-16.6,5.8-16.6,18.4
			c0,10.7,5.8,18.8,15.7,18.8c9.9,0,14-6.9,14-14.8C704.1,55.4,704.1,54.5,703.9,53.4"/>
		<path id="path78" d="M720.3,61.2l0.1-0.1c1.4,5.3,5.1,10.6,12.7,9.7l-0.3-5.3c-7.9,1.3-11.7-4.8-11.7-16.8V34.4h-5.3v31.5
			c-1.7,0.3-4.2,0.6-6.3,0.7v3.1c3.2,0.4,7.9,0.6,11.6,0.5C721.2,67.8,720.9,64.3,720.3,61.2"/>
		<path id="path80" d="M746.1,76.7c-2,0-3.7,1.6-3.7,3.7c0,2,1.7,3.7,3.7,3.7c2.1,0,3.8-1.7,3.8-3.7
			C749.8,78.3,748.2,76.7,746.1,76.7z M748.7,34.4h-5.3v31.5c-1.7,0.3-4.2,0.6-6.3,0.7v3.1c3.2,0.4,7.9,0.6,11.6,0.5V34.4"/>
		<path id="path82" d="M767.3,33.7c-2.7,0-5.4,0.3-7.6,0.7l0.1,5c2.3-0.6,5.2-1.2,8-1.2c5.2,0,8.8,2.3,8.8,6.1
			c0,8.6-17.5,3.2-17.5,16c0,6,4.9,10.5,14,10.5c2.2,0,4.8-0.4,7-0.8l-0.1-4.7c-2.4,0.8-5,1.2-7.4,1.2c-5.3,0-7.9-2.2-7.9-5.7
			c0-8.6,17.5-3.7,17.5-15.9C782.3,38.7,776.6,33.7,767.3,33.7"/>
		<path id="path84" d="M804.8,34c-8,0-15.5,3.5-15.5,17.1c0,11.8,5.9,19.7,17.6,19.7c3,0,5.8-0.4,8.4-1.2l-0.6-4.8
			c-2.4,0.9-5.2,1.6-8.2,1.6c-7.7,0-11.5-5.7-11.5-14.4c0-7.4,2.3-13.4,11-13.4c3.2,0,6.6,0.8,9,2l0.5-4.7
			C813.1,35,809.2,34,804.8,34"/>
		<path id="path86" d="M818.8,83.4v3.1c3.2,0.4,7.9,0.7,11.6,0.5V69.5c0-2.4-0.1-5.3-0.6-7.1l0.1-0.1c2.1,5.3,6.6,8.7,12.8,8.7
			c8.2,0,10.8-5.2,10.8-11.5v-25h-5.4v23.2c0,5.6-1.5,8.9-6.8,8.9c-6.4,0-11-6.3-11-14.9V34.4h-5.3v48.3
			C823.4,83,820.9,83.3,818.8,83.4"/>
		<path id="path88" d="M878.7,66.8c-5,0-8.7-3.7-9.5-9.3h18.2C887.5,63,884.2,66.8,878.7,66.8z M892.9,53.4h-23.9
			c-0.4-10.7,3.9-15.2,11.9-15.2c3.8,0,7.7,0.9,10.4,2.3l0.5-4.6c-3.3-1.4-7.4-2.2-11.8-2.2c-10.8,0-16.6,5.8-16.6,18.4
			c0,10.7,5.8,18.8,15.7,18.8c9.9,0,14-6.9,14-14.8C893,55.4,893,54.5,892.9,53.4"/>
		<path id="path90" d="M909.5,62.3l0.1-0.1c2.1,5.2,6.6,8.7,12.8,8.7c8.2,0,10.8-5.2,10.8-11.5v-25h-5.4v23.2c0,5.6-1.5,8.9-6.8,8.9
			c-6.4,0-11-6.3-11-14.9V34.4h-5.3v31.5c-1.7,0.3-4.2,0.6-6.3,0.7v3.1c3.2,0.4,7.9,0.6,11.6,0.5C910.2,67.9,909.9,64.5,909.5,62.3"
			/>
		<path id="path92" d="M979.6,69.9c-0.9,2.5-1.6,4.6-2.2,7.1h-0.1c-0.6-2.4-1.3-4.7-2.2-7.1l-7.1-19.3h18.6L979.6,69.9z M992.4,34.4
			l-4.3,12h-21.6l-4.3-12h-5.7l18.1,48.7h6l18.1-48.7H992.4"/>
		<path id="path94" d="M1026.3,34.4l-14.1,18.8V34.4h-5.3v48.3c-1.7,0.3-4.2,0.6-6.3,0.7v3.1c3.2,0.4,7.9,0.7,11.6,0.5V54.1
			l13.5,16.1h6.6L1018,53.9l15.4-19.6H1026.3"/>
		<path id="path96" d="M1058.9,51.2c-13.5,0-16.4-4.3-16.4-7.7c0-3.2,2.3-5.3,5.8-5.3c6.3,0,10.5,6.3,10.5,12.5
			C1058.9,50.6,1058.9,51.2,1058.9,51.2z M1059.2,34.4c0,2.7,0,5.5,0.4,7.6h-0.1c-1.7-4.5-6.3-8.2-12.5-8.2c-5.7,0-9.8,3-9.8,8.7
			c0,7.5,7.8,12.7,21.8,12.7v3c0,5.4-2,8.4-8.2,8.4c-3.5,0-7.8-1.1-11-3.1l-0.5,4.8c3.4,1.5,7.6,2.7,12.4,2.7
			c9.9,0,12.7-4.9,12.7-11.7V38.7c1.7-0.3,4.2-0.6,6.3-0.7v-3.1C1067.4,34.4,1062.6,34.2,1059.2,34.4"/>
		<path id="path98" d="M1100.2,65.5c-2.5,0.6-4.8,0.9-7.1,0.9c-7.4,0-12.3-4.5-12.3-15.3c0-8.1,2.7-12.9,8.7-12.9
			c7.1,0,10.7,8.4,10.7,14.7V65.5z M1100.2,34.4c0,2.2,0.2,5.6,0.6,7.8l-0.1,0.1c-2-5.1-6.6-8.5-12.3-8.5c-8.9,0-13.2,6.5-13.2,16.9
			c0,12.8,7.2,20,18.4,20c2.1,0,4.2-0.1,6.6-0.4v12.4c-1.7,0.3-4.2,0.6-6.3,0.7v3.1c3.2,0.4,7.9,0.7,11.6,0.5V38.7
			c1.7-0.3,4.2-0.6,6.3-0.7v-3.1C1108.6,34.4,1103.9,34.2,1100.2,34.4"/>
		<path id="path100" d="M1131.9,66.8c-5,0-8.7-3.7-9.5-9.3h18.2C1140.7,63,1137.3,66.8,1131.9,66.8z M1146,53.4H1122
			c-0.4-10.7,3.9-15.2,11.9-15.2c3.7,0,7.7,0.9,10.4,2.3l0.5-4.6c-3.3-1.4-7.4-2.2-11.8-2.2c-10.8,0-16.6,5.8-16.6,18.4
			c0,10.7,5.8,18.8,15.7,18.8c9.9,0,14-6.9,14-14.8C1146.1,55.4,1146.1,54.5,1146,53.4"/>
		<path id="path102" d="M1203.1,34.4v23.1c0,5.4-1.2,8.9-6.4,8.9c-5.5,0-10.7-5.7-10.7-15V34.4h-5.4v23.2c0,4.9-0.9,8.9-6.4,8.9
			c-6,0-10.8-6.2-10.8-15V34.4h-5.3v31.5c-1.7,0.3-4.2,0.6-6.3,0.7v3.1c3.2,0.4,7.9,0.6,11.6,0.5c0-2.3-0.2-5.7-0.6-7.9l0.1-0.1
			c2.1,5.3,6.8,8.7,12.7,8.7c8.1,0,9.8-5.8,10-8.6c1.4,3.4,5.3,8.6,12.5,8.6c6.8,0,10.6-3.6,10.6-11.7V34.4L1203.1,34.4"/>
		<path id="path104" d="M1226,76.7c-2,0-3.7,1.6-3.7,3.7c0,2,1.7,3.7,3.7,3.7c2.1,0,3.8-1.7,3.8-3.7
			C1229.8,78.3,1228.1,76.7,1226,76.7z M1228.7,34.4h-5.3v31.5c-1.7,0.3-4.2,0.6-6.3,0.7v3.1c3.2,0.4,7.9,0.6,11.6,0.5V34.4"/>
		<path id="path106" d="M1253.9,66.8c-5,0-8.7-3.7-9.5-9.3h18.2C1262.6,63,1259.3,66.8,1253.9,66.8z M1268,53.4H1244
			c-0.4-10.7,3.9-15.2,11.9-15.2c3.7,0,7.7,0.9,10.4,2.3l0.5-4.6c-3.3-1.4-7.4-2.2-11.8-2.2c-10.8,0-16.6,5.8-16.6,18.4
			c0,10.7,5.8,18.8,15.7,18.8c9.9,0,14-6.9,14-14.8C1268.1,55.4,1268.1,54.5,1268,53.4"/>
		<path id="path108" d="M1315.6,65.5c-2.5,0.6-4.8,0.9-7.1,0.9c-7.4,0-12.3-4.5-12.3-15.3c0-8.1,2.7-12.9,8.7-12.9
			c7.1,0,10.7,8.4,10.7,14.7V65.5z M1315.6,34.4c0,2.2,0.2,5.6,0.6,7.8l-0.2,0.1c-2-5.1-6.6-8.5-12.3-8.5c-8.9,0-13.2,6.5-13.2,16.9
			c0,12.8,7.2,20,18.4,20c2.1,0,4.2-0.1,6.6-0.4v12.4c-1.7,0.3-4.2,0.6-6.3,0.7v3.1c3.2,0.4,7.9,0.7,11.6,0.5V38.7
			c1.7-0.3,4.2-0.6,6.3-0.7v-3.1C1324,34.4,1319.2,34.2,1315.6,34.4"/>
		<path id="path110" d="M1347.2,66.8c-5.1,0-8.7-3.7-9.5-9.3h18.2C1356,63,1352.7,66.8,1347.2,66.8z M1361.3,53.4h-23.9
			c-0.4-10.7,3.9-15.2,11.9-15.2c3.7,0,7.7,0.9,10.4,2.3l0.5-4.6c-3.3-1.4-7.4-2.2-11.8-2.2c-10.8,0-16.6,5.8-16.6,18.4
			c0,10.7,5.8,18.8,15.7,18.8c9.9,0,14-6.9,14-14.8C1361.5,55.4,1361.5,54.5,1361.3,53.4"/>
		<path id="path112" d="M1377.8,61.2l0.1-0.1c1.5,5.3,5.1,10.6,12.7,9.7l-0.3-5.3c-7.9,1.3-11.7-4.8-11.7-16.8V34.4h-5.3v31.5
			c-1.7,0.3-4.2,0.6-6.3,0.7v3.1c3.2,0.4,7.9,0.6,11.6,0.5C1378.6,67.8,1378.3,64.3,1377.8,61.2"/>
		<path id="path114" d="M1457.5,34.4h-6.8l-10.1,35c-0.8,2.7-1.4,5.3-1.8,7.8h-0.1c-0.4-2.5-1-5.1-1.7-7.8l-9.9-35h-6.7l-13.1,48.7
			h5.9l8.8-33.6c0.9-3.3,1.5-6.1,2-9.2h0.1c0.6,3,1.2,5.9,2,8.7l9.6,34h6.5l10.1-34.5c0.7-2.5,1.5-5.5,1.9-8.2h0.1
			c0.4,2.6,0.9,4.9,1.6,7.4l9.2,35.3h5.4L1457.5,34.4"/>
		<path id="path116" d="M1484.1,76.7c-2,0-3.7,1.6-3.7,3.7c0,2,1.7,3.7,3.7,3.7c2.1,0,3.7-1.7,3.7-3.7
			C1487.9,78.3,1486.2,76.7,1484.1,76.7z M1486.8,34.4h-5.3v31.5c-1.7,0.3-4.2,0.6-6.3,0.7v3.1c3.2,0.4,7.9,0.6,11.6,0.5V34.4"/>
		<path id="path118" d="M1505.3,33.7c-2.7,0-5.4,0.3-7.6,0.7l0.2,5c2.3-0.6,5.2-1.2,8-1.2c5.2,0,8.8,2.3,8.8,6.1
			c0,8.6-17.5,3.2-17.5,16c0,6,4.9,10.5,14,10.5c2.2,0,4.8-0.4,7-0.8l-0.1-4.7c-2.4,0.8-5,1.2-7.4,1.2c-5.3,0-7.9-2.2-7.9-5.7
			c0-8.6,17.5-3.7,17.5-15.9C1520.3,38.7,1514.7,33.7,1505.3,33.7"/>
		<path id="path120" d="M1536.2,33.7c-2.7,0-5.4,0.3-7.6,0.7l0.2,5c2.3-0.6,5.2-1.2,8-1.2c5.2,0,8.8,2.3,8.8,6.1
			c0,8.6-17.5,3.2-17.5,16c0,6,4.9,10.5,14,10.5c2.2,0,4.8-0.4,7-0.8l-0.1-4.7c-2.4,0.8-5,1.2-7.4,1.2c-5.3,0-7.9-2.2-7.9-5.7
			c0-8.6,17.5-3.7,17.5-15.9C1551.2,38.7,1545.5,33.7,1536.2,33.7"/>
		<path id="path122" d="M1573.7,66.8c-5.1,0-8.7-3.7-9.5-9.3h18.2C1582.5,63,1579.1,66.8,1573.7,66.8z M1587.8,53.4h-23.9
			c-0.4-10.7,3.9-15.2,11.9-15.2c3.7,0,7.7,0.9,10.4,2.3l0.5-4.6c-3.3-1.4-7.4-2.2-11.8-2.2c-10.8,0-16.6,5.8-16.6,18.4
			c0,10.7,5.8,18.8,15.7,18.8c9.9,0,14-6.9,14-14.8C1587.9,55.4,1587.9,54.5,1587.8,53.4"/>
		<path id="path124" d="M1604.4,62.3l0.2-0.1c2.1,5.2,6.6,8.7,12.8,8.7c8.2,0,10.8-5.2,10.8-11.5v-25h-5.4v23.2
			c0,5.6-1.5,8.9-6.8,8.9c-6.4,0-11-6.3-11-14.9V34.4h-5.3v31.5c-1.7,0.3-4.2,0.6-6.3,0.7v3.1c3.2,0.4,7.9,0.6,11.6,0.5
			C1605.1,67.9,1604.9,64.5,1604.4,62.3"/>
		<path id="path126" d="M1646.8,33.7c-2.7,0-5.4,0.3-7.6,0.7l0.2,5c2.3-0.6,5.2-1.2,8-1.2c5.2,0,8.8,2.3,8.8,6.1
			c0,8.6-17.5,3.2-17.5,16c0,6,4.9,10.5,14,10.5c2.2,0,4.8-0.4,7-0.8l-0.1-4.7c-2.4,0.8-5,1.2-7.4,1.2c-5.3,0-7.9-2.2-7.9-5.7
			c0-8.6,17.5-3.7,17.5-15.9C1661.8,38.7,1656.1,33.7,1646.8,33.7"/>
		<path id="path128" d="M1684.3,34c-8,0-15.5,3.5-15.5,17.1c0,11.8,5.9,19.7,17.6,19.7c3,0,5.8-0.4,8.4-1.2l-0.6-4.8
			c-2.4,0.9-5.2,1.6-8.2,1.6c-7.7,0-11.5-5.7-11.5-14.4c0-7.4,2.3-13.4,11-13.4c3.2,0,6.6,0.8,9,2l0.5-4.7
			C1692.6,35,1688.7,34,1684.3,34"/>
		<path id="path130" d="M1698.3,83.4v3.1c3.2,0.4,7.9,0.7,11.6,0.5V69.5c0-2.4-0.1-5.3-0.6-7.1l0.2-0.1c2.1,5.3,6.6,8.7,12.8,8.7
			c8.2,0,10.8-5.2,10.8-11.5v-25h-5.4v23.2c0,5.6-1.5,8.9-6.8,8.9c-6.4,0-11-6.3-11-14.9V34.4h-5.3v48.3
			C1702.9,83,1700.4,83.3,1698.3,83.4"/>
		<path id="path132" d="M1765,51.2c-13.5,0-16.4-4.3-16.4-7.7c0-3.2,2.3-5.3,5.8-5.3c6.3,0,10.5,6.3,10.5,12.5
			C1765,50.6,1765,51.2,1765,51.2z M1765.3,34.4c0,2.7,0,5.5,0.4,7.6h-0.1c-1.7-4.5-6.3-8.2-12.5-8.2c-5.7,0-9.8,3-9.8,8.7
			c0,7.5,7.8,12.7,21.8,12.7v3c0,5.4-1.9,8.4-8.1,8.4c-3.5,0-7.8-1.1-11-3.1l-0.5,4.8c3.4,1.5,7.6,2.7,12.4,2.7
			c9.9,0,12.7-4.9,12.7-11.7V38.7c1.7-0.3,4.2-0.6,6.3-0.7v-3.1C1773.5,34.4,1768.7,34.2,1765.3,34.4"/>
		<path id="path134" d="M1805.4,82.2c-1.8,0.6-3.8,0.8-5.6,0.8c-5.5,0-7.9-3.2-7.9-10.1v-2.7h10.6V66h-10.6V34.4h-5.4V66h-7.8v4.3
			h7.8v2.5c0,10,5,14.6,13.6,14.6c2,0,4-0.2,5.9-0.7L1805.4,82.2"/>
		<path id="path136" d="M1819,33.8c-7.2,0-9.3,3.2-9.3,10.6V66h-7.8v4.3h7.8v11.9l5.4,1.5V70.2h10.5V66h-10.5V46.6
			c0-6.4,1.2-8.1,5.4-8.1c1.8,0,3.7,0.2,5.1,0.6v-4.7C1823.8,34.1,1821.2,33.8,1819,33.8"/>
		<path id="path138" d="M1847,66.8c-5,0-8.7-3.7-9.5-9.3h18.2C1855.8,63,1852.5,66.8,1847,66.8z M1861.2,53.4h-23.9
			c-0.4-10.7,3.9-15.2,11.9-15.2c3.7,0,7.7,0.9,10.4,2.3l0.5-4.6c-3.3-1.4-7.4-2.2-11.8-2.2c-10.8,0-16.6,5.8-16.6,18.4
			c0,10.7,5.8,18.8,15.7,18.8c9.9,0,14-6.9,14-14.8C1861.3,55.4,1861.3,54.5,1861.2,53.4"/>
		<path id="path140" d="M1877.8,62.3l0.1-0.1c2.1,5.2,6.6,8.7,12.8,8.7c8.2,0,10.8-5.2,10.8-11.5v-25h-5.4v23.2
			c0,5.6-1.5,8.9-6.8,8.9c-6.4,0-11-6.3-11-14.9V34.4h-5.3v31.5c-1.7,0.3-4.2,0.6-6.3,0.7v3.1c3.2,0.4,7.9,0.6,11.6,0.5
			C1878.5,67.9,1878.3,64.5,1877.8,62.3"/>
	</g>
</g>
</svg>
