<?xml version="1.0" ?><svg viewBox="0 0 512 512" xmlns="http://www.w3.org/2000/svg"><g id="Cloud_key_access_security"><path d="M157.2407,90.38a95.2877,95.2877,0,0,1,172.8428,0,41.8707,41.8707,0,0,0,37.8574,24.1318h.373a85.4023,85.4023,0,0,1,85.4,86.0518,6.5009,6.5009,0,0,0,6.4522,6.5483h.0488a6.5,6.5,0,0,0,6.499-6.4516,98.4027,98.4027,0,0,0-98.4-99.1485h-.2753A28.8406,28.8406,0,0,1,341.8725,84.899a108.2888,108.2888,0,0,0-196.4209,0,28.8433,28.8433,0,0,1-26.1044,16.6123h-.337A98.4029,98.4029,0,0,0,20.61,200.66c.3995,53.8486,45.06,97.6582,99.5547,97.6582h33.29a6.5,6.5,0,1,0,0-13h-33.29c-47.38,0-86.208-38.021-86.5547-84.7549a85.4025,85.4025,0,0,1,85.4-86.0518h.3555A41.8811,41.8811,0,0,0,157.2407,90.38Z"/><path d="M119.4233,132.3912a67.022,67.022,0,0,0-67.02,67.5347,6.5,6.5,0,0,0,6.499,6.4521h.0489a6.5007,6.5007,0,0,0,6.4521-6.5478,54.0217,54.0217,0,0,1,54.0117-54.439l.3594,0h.0088a6.5,6.5,0,0,0,.0088-13Z"/><path d="M350.9741,291.6378a16.54,16.54,0,1,0-16.54,16.5395A16.5588,16.5588,0,0,0,350.9741,291.6378Z"/><path d="M462.5294,231.6656c-24.1485-4.3135-70.04-16.9785-106.083-53.3315a26.9819,26.9819,0,0,0-38.3926,0c-36.041,36.352-81.9336,49.0171-106.0811,53.331A27.1815,27.1815,0,0,0,189.65,259.63c3.5439,74.7173,24.6094,135.9716,62.6113,182.0615,30.6631,37.189,63.8692,53.4355,76.7236,58.6943a21.71,21.71,0,0,0,16.5323,0c12.8535-5.2588,46.06-21.5053,76.7236-58.6943,38.002-46.09,59.0664-107.3442,62.6094-182.0615A27.1774,27.1774,0,0,0,462.5294,231.6656ZM330.75,487.0052c-13.6236-6.0366-41.9278-21.405-68.459-53.5832-36.1768-43.8765-56.2481-102.5557-59.6553-174.4073a14.1461,14.1461,0,0,1,11.6231-14.5517c25.66-4.584,74.4658-18.0816,113.0273-56.9756v-.0005a14.1952,14.1952,0,0,1,3.4639-2.5649v32.6987c-.2456.17-.4925.3381-.7261.5322-31.9048,26.4959-67.2534,39.8064-93.1846,46.4508a11.31,11.31,0,0,0-8.4072,12.0529c5.457,57.863,23.1694,105.2882,52.7622,141.1794a175.1881,175.1881,0,0,0,46.127,39.8853,19.6215,19.6215,0,0,0,3.4287,1.5813Zm10.1841-93.2629a6.5,6.5,0,0,1-13,0V320.4479a29.54,29.54,0,1,1,13,0V340.58H363.107a6.5,6.5,0,1,1,0,13H340.9342v13.4184H363.107a6.5,6.5,0,1,1,0,13H340.9342Zm130.93-134.728c-3.4062,71.852-23.4775,130.5312-59.6543,174.4077-26.5322,32.1789-54.8369,47.5473-68.46,53.5837V459.3028a19.6265,19.6265,0,0,0,3.4292-1.5815,175.206,175.206,0,0,0,46.1274-39.8853c29.5908-35.8886,47.3023-83.3195,52.7608-141.18a11.31,11.31,0,0,0-8.4073-12.0532c-25.9306-6.644-61.2793-19.9548-93.1841-46.45-.2314-.1921-.476-.3581-.719-.5271l-.007-32.7041a14.1928,14.1928,0,0,1,3.4648,2.5657c38.5625,38.8945,87.3682,52.3921,113.0283,56.9761A14.1439,14.1439,0,0,1,471.8643,259.0143Z"/></g></svg>