<?xml version="1.0" encoding="UTF-8" standalone="no"?>
<!-- Created with Inkscape (http://www.inkscape.org/) -->

<svg
   xmlns:dc="http://purl.org/dc/elements/1.1/"
   xmlns:cc="http://creativecommons.org/ns#"
   xmlns:rdf="http://www.w3.org/1999/02/22-rdf-syntax-ns#"
   xmlns:svg="http://www.w3.org/2000/svg"
   xmlns="http://www.w3.org/2000/svg"
   version="1.1"
   width="1400.7651"
   height="229.49156"
   id="svg2"
   xml:space="preserve"><metadata
     id="metadata8"><rdf:RDF><cc:Work
         rdf:about=""><dc:format>image/svg+xml</dc:format><dc:type
           rdf:resource="http://purl.org/dc/dcmitype/StillImage" /><dc:title></dc:title></cc:Work></rdf:RDF></metadata><defs
     id="defs6" /><g
     transform="matrix(1.25,0,0,-1.25,0,229.49156)"
     id="g10"><g
       transform="scale(0.49732704,0.49732704)"
       id="g12"><path
         d="m 0,0 369.16,0 0,369.16 L 0,369.16 0,0 z"
         id="path14"
         style="fill:#6caddf;fill-opacity:1;fill-rule:nonzero;stroke:none" /><path
         d="m 87.9688,35.0586 -41.3165,0 0,185.9764 41.3165,5.606 0,-191.5824"
         id="path16"
         style="fill:#ffffff;fill-opacity:1;fill-rule:nonzero;stroke:none" /><path
         d="m 159.785,35.0586 -41.062,0 0,117.4214 38.191,0 0.781,-20.585 c 4.7,8.25 10.188,14.238 16.493,17.988 6.292,3.73 14.14,5.594 23.515,5.594 l 3.266,0 0,-43.789 -8.867,0 c -12.778,0 -21.348,-1.454 -25.735,-4.364 -4.394,-2.91 -6.582,-9.9334 -6.582,-21.0545 l 0,-51.2109"
         id="path18"
         style="fill:#ffffff;fill-opacity:1;fill-rule:nonzero;stroke:none" /><path
         d="m 211.008,35.0586 52.515,86.5434 -45.347,0 7.168,30.878 103.086,0 -52.524,-86.4058 50.957,0 -4.82,-31.0156 -111.035,0"
         id="path20"
         style="fill:#ffffff;fill-opacity:1;fill-rule:nonzero;stroke:none" /><path
         d="m 459.309,71.25 c -6.223,0 -12.129,-4.707 -12.129,-15.3203 0,-10.1367 4.386,-15.7266 12.129,-15.7266 6.222,0 11.89,4.7969 11.89,15.7266 0,9.5781 -3.988,15.3203 -11.89,15.3203 z m -0.875,-36.1523 c -10.618,0 -17.481,6.4648 -17.481,20.3515 0,11.336 7.027,20.75 18.914,20.75 9.653,0 17.559,-5.3515 17.559,-19.8711 0,-11.8086 -7.266,-21.2304 -18.992,-21.2304"
         id="path22"
         style="fill:#000000;fill-opacity:1;fill-rule:nonzero;stroke:none" /><path
         d="m 510.195,88.7305 c -1.996,0.6328 -4.148,0.8789 -6.226,0.8789 -6.063,0 -8.778,-3.5156 -8.778,-11.1719 l 0,-2.9609 11.735,0 0,-4.7071 -11.735,0 0,-34.9492 -5.98,0 0,34.9492 -8.625,0 0,4.7071 8.625,0 0,2.7929 c 0,11.0938 5.5,16.2032 15,16.2032 2.234,0 4.387,-0.2344 6.543,-0.711 l -0.559,-5.0312"
         id="path24"
         style="fill:#000000;fill-opacity:1;fill-rule:nonzero;stroke:none" /><path
         d="m 543.598,35.1836 c -7.977,0 -10.293,3.5078 -10.293,11.7305 l 0,23.8554 -8.617,0 0,4.7071 8.617,0 0,13.1757 5.988,1.668 0,-14.8437 11.648,0 0,-4.7071 -11.648,0 0,-21.3828 c 0,-7.1015 1.273,-8.9375 5.98,-8.9375 1.997,0 4.075,0.2344 5.668,0.7227 l 0,-5.1953 c -2.074,-0.4805 -4.867,-0.793 -7.343,-0.793"
         id="path26"
         style="fill:#000000;fill-opacity:1;fill-rule:nonzero;stroke:none" /><path
         d="m 554.273,90.0898 0,3.4258 c 3.516,0.4766 8.778,0.7227 12.852,0.5547 l 0,-19.3828 c 0,-2.6367 -0.16,-5.9102 -0.641,-7.9023 l 0.161,-0.0743 c 2.316,5.8164 7.339,9.5664 14.125,9.5664 9.097,0 11.968,-5.7421 11.968,-12.7617 l 0,-27.6953 -5.984,0 0,25.6953 c 0,6.2266 -1.676,9.8125 -7.5,9.8125 -7.106,0 -12.129,-7.0234 -12.129,-16.4375 l 0,-19.0703 -5.91,0 0,53.4649 c -1.914,0.3242 -4.629,0.6445 -6.942,0.8046"
         id="path28"
         style="fill:#000000;fill-opacity:1;fill-rule:nonzero;stroke:none" /><path
         d="m 619.762,71.6484 c -5.586,0 -9.582,-4.0703 -10.539,-10.2929 l 20.113,0 c 0.16,6.1445 -3.512,10.2929 -9.574,10.2929 z m 15.636,-14.7617 -26.492,0 C 608.508,45 613.215,40.0508 622.074,40.0508 c 4.153,0 8.535,1.0351 11.488,2.5547 L 634.125,37.5 c -3.672,-1.5234 -8.141,-2.4023 -13.09,-2.4023 -11.969,0 -18.355,6.4648 -18.355,20.3515 0,11.8946 6.386,20.75 17.398,20.75 10.934,0 15.484,-7.5781 15.484,-16.3554 0,-0.7227 0,-1.7579 -0.164,-2.9571"
         id="path30"
         style="fill:#000000;fill-opacity:1;fill-rule:nonzero;stroke:none" /><path
         d="m 673.828,61.3555 c -0.957,0 -3.91,0 -5.183,-0.0782 l 0,-20.2695 c 1.433,-0.2383 3.828,-0.4805 7.335,-0.4805 9.5,0 13.649,4.7071 13.649,11.0157 0,7.5781 -6.941,9.8125 -15.801,9.8125 z m 2.555,23.625 c -2.633,0 -5.426,-0.0782 -7.738,-0.1563 l 0,-18.7617 c 1.671,-0.0781 3.031,-0.0781 5.105,-0.0781 9.574,0 14.605,3.75 14.605,10.1367 0,5.1094 -2.476,8.8594 -11.972,8.8594 z m -0.879,-49.4063 c -3.274,0 -8.379,0.168 -13.008,0.2461 l 0,53.8672 c 3.672,0.0781 8.539,0.2422 15.004,0.2422 11.73,0 17.234,-4.9492 17.234,-12.7735 0,-5.9062 -4.066,-11.0156 -10.132,-12.7617 l 0,-0.1679 c 7.98,-1.1914 11.414,-6.7774 11.414,-12.5274 0,-5.8203 -3.512,-16.125 -20.512,-16.125"
         id="path32"
         style="fill:#000000;fill-opacity:1;fill-rule:nonzero;stroke:none" /><path
         d="m 727.66,54.4141 c -14.922,0 -18.113,-4.7071 -18.113,-8.5352 0,-3.5937 2.555,-5.9062 6.465,-5.9062 7.019,0 11.648,6.9414 11.648,13.8046 l 0,0.6368 z m 0.32,-18.5938 c 0,3.0352 0,6.0664 0.399,8.3789 l -0.16,0 c -1.914,-5.0273 -7.024,-9.1015 -13.805,-9.1015 -6.305,0 -10.855,3.3593 -10.855,9.6601 0,8.2969 8.621,14.0508 24.101,14.0508 l 0,3.2695 c 0,5.9766 -2.152,9.336 -9.015,9.336 -3.833,0 -8.622,-1.1993 -12.129,-3.4375 l -0.559,5.2773 c 3.75,1.668 8.379,2.9453 13.727,2.9453 10.929,0 14.043,-5.4297 14.043,-12.9297 l 0,-22.664 c 1.914,-0.3125 4.628,-0.6328 6.941,-0.793 l 0,-3.4336 c -3.59,-0.4805 -8.856,-0.7148 -12.688,-0.5586"
         id="path34"
         style="fill:#000000;fill-opacity:1;fill-rule:nonzero;stroke:none" /><path
         d="m 761.949,35.8203 -6.226,0 -15.004,39.6563 6.785,0 9.258,-25.8477 c 0.875,-2.4805 1.515,-4.707 2.23,-7.0234 l 0.078,0 c 0.641,2.1523 1.36,4.5429 2.16,6.6992 l 9.497,26.1719 6.543,0 -15.321,-39.6563"
         id="path36"
         style="fill:#000000;fill-opacity:1;fill-rule:nonzero;stroke:none" /><path
         d="m 803.586,54.4141 c -14.926,0 -18.117,-4.7071 -18.117,-8.5352 0,-3.5937 2.554,-5.9062 6.465,-5.9062 7.019,0 11.652,6.9414 11.652,13.8046 l 0,0.6368 z m 0.316,-18.5938 c 0,3.0352 0,6.0664 0.399,8.3789 l -0.16,0 c -1.914,-5.0273 -7.024,-9.1015 -13.805,-9.1015 -6.305,0 -10.856,3.3593 -10.856,9.6601 0,8.2969 8.622,14.0508 24.106,14.0508 l 0,3.2695 c 0,5.9766 -2.156,9.336 -9.02,9.336 -3.828,0 -8.621,-1.1993 -12.128,-3.4375 l -0.563,5.2773 c 3.754,1.668 8.383,2.9453 13.73,2.9453 10.934,0 14.043,-5.4297 14.043,-12.9297 l 0,-22.664 c 1.914,-0.3125 4.629,-0.6328 6.946,-0.793 l 0,-3.4336 c -3.59,-0.4805 -8.86,-0.7148 -12.692,-0.5586"
         id="path38"
         style="fill:#000000;fill-opacity:1;fill-rule:nonzero;stroke:none" /><path
         d="m 831.402,65.5078 0.16,-0.0781 c 1.59,5.8203 5.665,11.7265 14.043,10.7695 l -0.316,-5.9062 c -8.703,1.4336 -12.93,-5.2657 -12.93,-18.5938 l 0,-15.8789 -5.906,0 0,34.8711 c -1.918,0.3242 -4.629,0.6367 -6.941,0.8008 l 0,3.4297 c 3.511,0.4765 8.773,0.7226 12.847,0.5547 0,-2.625 -0.316,-6.543 -0.957,-9.9688"
         id="path40"
         style="fill:#000000;fill-opacity:1;fill-rule:nonzero;stroke:none" /><path
         d="m 859.07,82.6641 c -2.23,0 -4.066,1.7617 -4.066,4.0742 0,2.2265 1.836,4.0625 4.066,4.0625 2.317,0 4.153,-1.836 4.153,-4.0625 0,-2.3125 -1.836,-4.0742 -4.153,-4.0742 z m 2.957,-46.8438 -5.906,0 0,34.8711 c -1.918,0.3242 -4.629,0.6367 -6.941,0.8008 l 0,3.4297 c 3.511,0.4765 8.773,0.7226 12.847,0.5547 l 0,-39.6563"
         id="path42"
         style="fill:#000000;fill-opacity:1;fill-rule:nonzero;stroke:none" /><path
         d="m 896.566,54.4141 c -14.921,0 -18.113,-4.7071 -18.113,-8.5352 0,-3.5937 2.555,-5.9062 6.465,-5.9062 7.02,0 11.648,6.9414 11.648,13.8046 l 0,0.6368 z m 0.321,-18.5938 c 0,3.0352 0,6.0664 0.398,8.3789 l -0.16,0 c -1.914,-5.0273 -7.023,-9.1015 -13.805,-9.1015 -6.304,0 -10.855,3.3593 -10.855,9.6601 0,8.2969 8.621,14.0508 24.101,14.0508 l 0,3.2695 c 0,5.9766 -2.152,9.336 -9.015,9.336 -3.828,0 -8.621,-1.1993 -12.129,-3.4375 l -0.559,5.2773 c 3.75,1.668 8.379,2.9453 13.727,2.9453 10.93,0 14.043,-5.4297 14.043,-12.9297 l 0,-22.664 c 1.914,-0.3125 4.629,-0.6328 6.941,-0.793 l 0,-3.4336 c -3.59,-0.4805 -8.855,-0.7148 -12.687,-0.5586"
         id="path44"
         style="fill:#000000;fill-opacity:1;fill-rule:nonzero;stroke:none" /><path
         d="m 924.625,66.7109 0.16,-0.0898 c 2.317,5.75 7.34,9.6562 14.203,9.6562 9.098,0 11.969,-5.7421 11.969,-12.7617 l 0,-27.6953 -5.98,0 0,25.6953 c 0,6.2266 -1.68,9.8125 -7.504,9.8125 -7.102,0 -12.129,-7.0234 -12.129,-16.4375 l 0,-19.0703 -5.906,0 0,34.8711 c -1.918,0.3242 -4.629,0.6367 -6.942,0.8008 l 0,3.4297 c 3.512,0.4765 8.774,0.7226 12.848,0.5547 0,-2.5469 -0.242,-6.375 -0.719,-8.7657"
         id="path46"
         style="fill:#000000;fill-opacity:1;fill-rule:nonzero;stroke:none" /><path
         d="m 1000.55,75.1641 c -1.034,2.7187 -1.749,5.1093 -2.39,7.9023 l -0.164,0 c -0.633,-2.6367 -1.434,-5.1836 -2.391,-7.8242 l -7.824,-21.3086 20.589,0 -7.82,21.2305 z m 14.21,-39.3438 -4.71,13.25 -23.941,0 -4.785,-13.25 -6.308,0 20.035,53.8672 6.619,0 20.03,-53.8672 -6.94,0"
         id="path48"
         style="fill:#000000;fill-opacity:1;fill-rule:nonzero;stroke:none" /><path
         d="m 1042.57,35.3438 c -8.85,0 -17.15,3.9023 -17.15,18.914 0,13.0078 6.54,21.7891 19.47,21.7891 3.27,0 6.46,-0.4805 9.33,-1.3594 l -0.64,-5.2734 c -2.63,1.0468 -5.74,1.7578 -9.09,1.7578 -8.54,0 -12.77,-6.3008 -12.77,-15.8789 0,-8.1446 2.55,-14.8438 12.13,-14.8438 3.51,0 7.34,0.8789 9.98,2.2344 l 0.55,-5.1836 c -2.63,-1.0469 -6.94,-2.1562 -11.81,-2.1562"
         id="path50"
         style="fill:#000000;fill-opacity:1;fill-rule:nonzero;stroke:none" /><path
         d="m 1084.29,54.4141 c -14.92,0 -18.12,-4.7071 -18.12,-8.5352 0,-3.5937 2.56,-5.9062 6.47,-5.9062 7.02,0 11.65,6.9414 11.65,13.8046 l 0,0.6368 z m 0.31,-18.5938 c 0,3.0352 0,6.0664 0.4,8.3789 l -0.16,0 c -1.91,-5.0273 -7.02,-9.1015 -13.8,-9.1015 -6.3,0 -10.85,3.3593 -10.85,9.6601 0,8.2969 8.61,14.0508 24.1,14.0508 l 0,3.2695 c 0,5.9766 -2.16,9.336 -9.02,9.336 -3.83,0 -8.62,-1.1993 -12.13,-3.4375 l -0.56,5.2773 c 3.75,1.668 8.38,2.9453 13.73,2.9453 10.93,0 14.04,-5.4297 14.04,-12.9297 l 0,-22.664 c 1.92,-0.3125 4.63,-0.6328 6.94,-0.793 l 0,-3.4336 c -3.58,-0.4805 -8.85,-0.7148 -12.69,-0.5586"
         id="path52"
         style="fill:#000000;fill-opacity:1;fill-rule:nonzero;stroke:none" /><path
         d="m 1129.18,70.293 c -2.71,0.6445 -5.26,0.957 -7.81,0.957 -8.14,0 -13.57,-4.9414 -13.57,-16.9141 0,-8.9375 3.03,-14.2851 9.58,-14.2851 7.9,0 11.8,9.2539 11.8,16.2773 l 0,13.9649 z m 0,-34.4727 c 0,2.3945 0.24,6.2227 0.72,8.6211 l -0.15,0.0781 c -2.24,-5.664 -7.26,-9.4218 -13.65,-9.4218 -9.82,0 -14.61,7.1875 -14.61,18.7578 0,14.1211 7.98,22.1015 20.36,22.1015 2.31,0 4.62,-0.1562 7.33,-0.3906 l 0,13.7188 c -1.91,0.3242 -4.62,0.6445 -6.93,0.8046 l 0,3.4258 c 3.51,0.4766 8.77,0.7227 12.84,0.5547 l 0,-53.4648 c 1.92,-0.3125 4.63,-0.6328 6.95,-0.793 l 0,-3.4336 c -3.51,-0.4805 -8.78,-0.7148 -12.86,-0.5586"
         id="path54"
         style="fill:#000000;fill-opacity:1;fill-rule:nonzero;stroke:none" /><path
         d="m 1163.39,71.6484 c -5.59,0 -9.58,-4.0703 -10.54,-10.2929 l 20.11,0 c 0.17,6.1445 -3.51,10.2929 -9.57,10.2929 z m 15.64,-14.7617 -26.5,0 c -0.4,-11.8867 4.32,-16.8359 13.17,-16.8359 4.15,0 8.54,1.0351 11.49,2.5547 l 0.56,-5.1055 c -3.67,-1.5234 -8.14,-2.4023 -13.09,-2.4023 -11.96,0 -18.35,6.4648 -18.35,20.3515 0,11.8946 6.39,20.75 17.4,20.75 10.93,0 15.48,-7.5781 15.48,-16.3554 0,-0.7227 0,-1.7579 -0.16,-2.9571"
         id="path56"
         style="fill:#000000;fill-opacity:1;fill-rule:nonzero;stroke:none" /><path
         d="m 1241.42,35.8203 0,25.6133 c 0,5.9883 -1.37,9.8945 -7.11,9.8945 -6.15,0 -11.9,-6.3008 -11.9,-16.5937 l 0,-18.9141 -5.97,0 0,25.6953 c 0,5.4258 -1.04,9.8125 -7.11,9.8125 -6.62,0 -11.98,-6.8554 -11.98,-16.5937 l 0,-18.9141 -5.89,0 0,34.8711 c -1.92,0.3242 -4.63,0.6367 -6.95,0.8008 l 0,3.4297 c 3.51,0.4765 8.78,0.7226 12.84,0.5547 0,-2.5469 -0.23,-6.2969 -0.63,-8.7657 l 0.09,-0.0898 c 2.3,5.8281 7.5,9.6562 14.04,9.6562 8.94,0 10.85,-6.4648 11.01,-9.4921 1.51,3.75 5.83,9.4921 13.8,9.4921 7.5,0 11.73,-3.9804 11.73,-12.9296 l 0,-27.5274 -5.97,0"
         id="path58"
         style="fill:#000000;fill-opacity:1;fill-rule:nonzero;stroke:none" /><path
         d="m 1273.2,31.6719 c -4.63,-12.2071 -8.13,-16.2813 -16.84,-16.2813 -1.43,0 -3.42,0.1563 -5.02,0.4024 l 0.64,5.5078 c 1.58,-0.5586 3.19,-0.8047 4.94,-0.8047 4.79,0 7.19,2.2383 10.3,10.6172 l 1.83,4.707 -15.15,39.6563 6.85,0 8.3,-22.7422 c 1.28,-3.586 2.15,-6.4571 3.03,-9.4141 l 0.09,0 c 0.71,2.5586 2.39,7.5 3.99,12.0508 l 7.09,20.1055 6.54,0 -16.59,-43.8047"
         id="path60"
         style="fill:#000000;fill-opacity:1;fill-rule:nonzero;stroke:none" /><path
         d="m 1328.07,71.25 c -6.22,0 -12.14,-4.707 -12.14,-15.3203 0,-10.1367 4.39,-15.7266 12.14,-15.7266 6.22,0 11.88,4.7969 11.88,15.7266 0,9.5781 -3.98,15.3203 -11.88,15.3203 z m -0.88,-36.1523 c -10.62,0 -17.48,6.4648 -17.48,20.3515 0,11.336 7.02,20.75 18.91,20.75 9.66,0 17.56,-5.3515 17.56,-19.8711 0,-11.8086 -7.26,-21.2304 -18.99,-21.2304"
         id="path62"
         style="fill:#000000;fill-opacity:1;fill-rule:nonzero;stroke:none" /><path
         d="m 1378.96,88.7305 c -2.01,0.6328 -4.17,0.8789 -6.24,0.8789 -6.06,0 -8.77,-3.5156 -8.77,-11.1719 l 0,-2.9609 11.72,0 0,-4.7071 -11.72,0 0,-34.9492 -5.99,0 0,34.9492 -8.61,0 0,4.7071 8.61,0 0,2.7929 c 0,11.0938 5.51,16.2032 15,16.2032 2.25,0 4.39,-0.2344 6.54,-0.711 l -0.54,-5.0312"
         id="path64"
         style="fill:#000000;fill-opacity:1;fill-rule:nonzero;stroke:none" /><path
         d="m 1408.37,35.0977 c -3.99,0 -7.83,0.5664 -10.78,1.3554 l 0.32,5.9883 c 3.12,-1.1133 7.26,-1.9922 11.02,-1.9922 6.94,0 12.76,2.793 12.76,10.1367 0,12.7618 -24.98,7.8985 -24.98,24.8907 0,8.5468 6.86,14.9336 18.67,14.9336 3.36,0 6.47,-0.3985 9.67,-1.0469 l -0.32,-5.5078 c -3.04,0.8789 -6.63,1.4492 -9.74,1.4492 -7.82,0 -11.97,-3.6719 -11.97,-9.1836 0,-12.3711 24.98,-7.8984 24.98,-24.7344 0,-9.5 -7.42,-16.289 -19.63,-16.289"
         id="path66"
         style="fill:#000000;fill-opacity:1;fill-rule:nonzero;stroke:none" /><path
         d="m 1452.39,35.3438 c -8.86,0 -17.17,3.9023 -17.17,18.914 0,13.0078 6.55,21.7891 19.48,21.7891 3.28,0 6.46,-0.4805 9.33,-1.3594 l -0.63,-5.2734 c -2.63,1.0468 -5.74,1.7578 -9.09,1.7578 -8.55,0 -12.78,-6.3008 -12.78,-15.8789 0,-8.1446 2.56,-14.8438 12.13,-14.8438 3.52,0 7.35,0.8789 9.98,2.2344 L 1464.2,37.5 c -2.63,-1.0469 -6.94,-2.1562 -11.81,-2.1562"
         id="path68"
         style="fill:#000000;fill-opacity:1;fill-rule:nonzero;stroke:none" /><path
         d="m 1478.29,82.6641 c -2.23,0 -4.06,1.7617 -4.06,4.0742 0,2.2265 1.83,4.0625 4.06,4.0625 2.33,0 4.16,-1.836 4.16,-4.0625 0,-2.3125 -1.83,-4.0742 -4.16,-4.0742 z m 2.96,-46.8438 -5.91,0 0,34.8711 c -1.91,0.3242 -4.63,0.6367 -6.93,0.8008 l 0,3.4297 c 3.5,0.4765 8.77,0.7226 12.84,0.5547 l 0,-39.6563"
         id="path70"
         style="fill:#000000;fill-opacity:1;fill-rule:nonzero;stroke:none" /><path
         d="m 1508.29,71.6484 c -5.58,0 -9.58,-4.0703 -10.54,-10.2929 l 20.11,0 c 0.17,6.1445 -3.5,10.2929 -9.57,10.2929 z m 15.65,-14.7617 -26.51,0 c -0.39,-11.8867 4.32,-16.8359 13.18,-16.8359 4.15,0 8.53,1.0351 11.49,2.5547 l 0.56,-5.1055 c -3.68,-1.5234 -8.15,-2.4023 -13.1,-2.4023 -11.96,0 -18.35,6.4648 -18.35,20.3515 0,11.8946 6.39,20.75 17.39,20.75 10.94,0 15.49,-7.5781 15.49,-16.3554 0,-0.7227 0,-1.7579 -0.15,-2.9571"
         id="path72"
         style="fill:#000000;fill-opacity:1;fill-rule:nonzero;stroke:none" /><path
         d="m 1541.54,66.7109 0.17,-0.0898 c 2.3,5.75 7.33,9.6562 14.2,9.6562 9.1,0 11.97,-5.7421 11.97,-12.7617 l 0,-27.6953 -5.99,0 0,25.6953 c 0,6.2266 -1.68,9.8125 -7.51,9.8125 -7.09,0 -12.12,-7.0234 -12.12,-16.4375 l 0,-19.0703 -5.9,0 0,34.8711 c -1.92,0.3242 -4.63,0.6367 -6.95,0.8008 l 0,3.4297 c 3.51,0.4765 8.78,0.7226 12.85,0.5547 0,-2.5469 -0.24,-6.375 -0.72,-8.7657"
         id="path74"
         style="fill:#000000;fill-opacity:1;fill-rule:nonzero;stroke:none" /><path
         d="m 1594.98,35.3438 c -8.86,0 -17.16,3.9023 -17.16,18.914 0,13.0078 6.55,21.7891 19.47,21.7891 3.28,0 6.47,-0.4805 9.34,-1.3594 l -0.64,-5.2734 c -2.63,1.0468 -5.75,1.7578 -9.1,1.7578 -8.53,0 -12.76,-6.3008 -12.76,-15.8789 0,-8.1446 2.55,-14.8438 12.13,-14.8438 3.52,0 7.34,0.8789 9.97,2.2344 l 0.56,-5.1836 c -2.63,-1.0469 -6.94,-2.1562 -11.81,-2.1562"
         id="path76"
         style="fill:#000000;fill-opacity:1;fill-rule:nonzero;stroke:none" /><path
         d="m 1629.19,71.6484 c -5.59,0 -9.58,-4.0703 -10.54,-10.2929 l 20.11,0 c 0.17,6.1445 -3.51,10.2929 -9.57,10.2929 z m 15.64,-14.7617 -26.5,0 c -0.39,-11.8867 4.32,-16.8359 13.17,-16.8359 4.15,0 8.54,1.0351 11.5,2.5547 l 0.55,-5.1055 c -3.67,-1.5234 -8.14,-2.4023 -13.09,-2.4023 -11.96,0 -18.35,6.4648 -18.35,20.3515 0,11.8946 6.39,20.75 17.39,20.75 10.94,0 15.49,-7.5781 15.49,-16.3554 0,-0.7227 0,-1.7579 -0.16,-2.9571"
         id="path78"
         style="fill:#000000;fill-opacity:1;fill-rule:nonzero;stroke:none" /><path
         d="m 1661.32,35.0977 c -2.95,0 -5.98,0.3242 -8.38,0.8007 l 0.17,5.5078 c 2.54,-0.7226 5.74,-1.2773 8.85,-1.2773 5.75,0 9.74,2.5547 9.74,6.707 0,9.4922 -19.31,3.586 -19.31,17.7149 0,6.6211 5.42,11.6484 15.47,11.6484 2.48,0 5.27,-0.3984 7.76,-0.8789 l -0.17,-5.1836 c -2.63,0.8789 -5.51,1.3555 -8.22,1.3555 -5.83,0 -8.7,-2.3906 -8.7,-6.3086 0,-9.4922 19.39,-4.0703 19.39,-17.5547 0,-7.0234 -6.22,-12.5312 -16.6,-12.5312"
         id="path80"
         style="fill:#000000;fill-opacity:1;fill-rule:nonzero;stroke:none" /><path
         d="m 1726.08,54.4141 c -14.92,0 -18.11,-4.7071 -18.11,-8.5352 0,-3.5937 2.55,-5.9062 6.46,-5.9062 7.03,0 11.65,6.9414 11.65,13.8046 l 0,0.6368 z m 0.32,-18.5938 c 0,3.0352 0,6.0664 0.41,8.3789 l -0.17,0 c -1.91,-5.0273 -7.02,-9.1015 -13.8,-9.1015 -6.31,0 -10.86,3.3593 -10.86,9.6601 0,8.2969 8.62,14.0508 24.1,14.0508 l 0,3.2695 c 0,5.9766 -2.14,9.336 -9.02,9.336 -3.83,0 -8.61,-1.1993 -12.13,-3.4375 l -0.55,5.2773 c 3.75,1.668 8.38,2.9453 13.73,2.9453 10.92,0 14.04,-5.4297 14.04,-12.9297 l 0,-22.664 c 1.91,-0.3125 4.63,-0.6328 6.94,-0.793 l 0,-3.4336 c -3.59,-0.4805 -8.86,-0.7148 -12.69,-0.5586"
         id="path82"
         style="fill:#000000;fill-opacity:1;fill-rule:nonzero;stroke:none" /><path
         d="m 1754.15,66.7109 0.16,-0.0898 c 2.31,5.75 7.34,9.6562 14.2,9.6562 9.1,0 11.97,-5.7421 11.97,-12.7617 l 0,-27.6953 -5.98,0 0,25.6953 c 0,6.2266 -1.68,9.8125 -7.51,9.8125 -7.1,0 -12.13,-7.0234 -12.13,-16.4375 l 0,-19.0703 -5.9,0 0,34.8711 c -1.92,0.3242 -4.63,0.6367 -6.94,0.8008 l 0,3.4297 c 3.51,0.4765 8.77,0.7226 12.84,0.5547 0,-2.5469 -0.24,-6.375 -0.71,-8.7657"
         id="path84"
         style="fill:#000000;fill-opacity:1;fill-rule:nonzero;stroke:none" /><path
         d="m 1818.12,70.293 c -2.72,0.6445 -5.27,0.957 -7.82,0.957 -8.14,0 -13.57,-4.9414 -13.57,-16.9141 0,-8.9375 3.03,-14.2851 9.58,-14.2851 7.9,0 11.81,9.2539 11.81,16.2773 l 0,13.9649 z m 0,-34.4727 c 0,2.3945 0.23,6.2227 0.72,8.6211 l -0.16,0.0781 c -2.24,-5.664 -7.26,-9.4218 -13.65,-9.4218 -9.82,0 -14.61,7.1875 -14.61,18.7578 0,14.1211 7.99,22.1015 20.35,22.1015 2.33,0 4.63,-0.1562 7.35,-0.3906 l 0,13.7188 c -1.92,0.3242 -4.63,0.6445 -6.95,0.8046 l 0,3.4258 c 3.52,0.4766 8.78,0.7227 12.85,0.5547 l 0,-53.4648 c 1.92,-0.3125 4.63,-0.6328 6.95,-0.793 l 0,-3.4336 c -3.52,-0.4805 -8.78,-0.7148 -12.85,-0.5586"
         id="path86"
         style="fill:#000000;fill-opacity:1;fill-rule:nonzero;stroke:none" /><path
         d="m 1891.01,35.8203 0,25.3789 -29.28,0 0,-25.3789 -6.15,0 0,53.8672 6.15,0 0,-23.3789 29.28,0 0,23.3789 6.07,0 0,-53.8672 -6.07,0"
         id="path88"
         style="fill:#000000;fill-opacity:1;fill-rule:nonzero;stroke:none" /><path
         d="m 1937.98,35.8203 c 0,2.5586 0.23,6.3086 0.72,8.7774 l -0.16,0.082 c -2.32,-5.7461 -7.35,-9.6602 -14.21,-9.6602 -9.18,0 -11.98,5.75 -11.98,12.7735 l 0,22.8984 c -1.91,0.3242 -4.63,0.6367 -6.93,0.8008 l 0,3.4297 c 3.67,0.4765 8.94,0.7226 12.93,0.5547 l 0,-25.6914 c 0,-6.2227 1.67,-9.8125 7.5,-9.8125 7.1,0 12.05,7.0195 12.05,16.4335 l 0,19.0704 5.98,0 0,-34.8711 c 1.91,-0.3125 4.63,-0.6328 6.95,-0.793 l 0,-3.4336 c -3.52,-0.4805 -8.79,-0.7148 -12.85,-0.5586"
         id="path90"
         style="fill:#000000;fill-opacity:1;fill-rule:nonzero;stroke:none" /><path
         d="m 2010.72,35.8203 0,25.6133 c 0,5.9883 -1.35,9.8945 -7.1,9.8945 -6.15,0 -11.89,-6.3008 -11.89,-16.5937 l 0,-18.9141 -5.99,0 0,25.6953 c 0,5.4258 -1.03,9.8125 -7.1,9.8125 -6.62,0 -11.97,-6.8554 -11.97,-16.5937 l 0,-18.9141 -5.9,0 0,34.8711 c -1.92,0.3242 -4.63,0.6367 -6.95,0.8008 l 0,3.4297 c 3.51,0.4765 8.78,0.7226 12.85,0.5547 0,-2.5469 -0.23,-6.2969 -0.64,-8.7657 l 0.08,-0.0898 c 2.32,5.8281 7.5,9.6562 14.05,9.6562 8.93,0 10.85,-6.4648 11.01,-9.4921 1.52,3.75 5.83,9.4921 13.8,9.4921 7.5,0 11.74,-3.9804 11.74,-12.9296 l 0,-27.5274 -5.99,0"
         id="path92"
         style="fill:#000000;fill-opacity:1;fill-rule:nonzero;stroke:none" /><path
         d="m 2051.21,54.4141 c -14.92,0 -18.11,-4.7071 -18.11,-8.5352 0,-3.5937 2.55,-5.9062 6.46,-5.9062 7.02,0 11.65,6.9414 11.65,13.8046 l 0,0.6368 z m 0.32,-18.5938 c 0,3.0352 0,6.0664 0.39,8.3789 l -0.15,0 c -1.92,-5.0273 -7.02,-9.1015 -13.81,-9.1015 -6.3,0 -10.85,3.3593 -10.85,9.6601 0,8.2969 8.62,14.0508 24.1,14.0508 l 0,3.2695 c 0,5.9766 -2.16,9.336 -9.01,9.336 -3.83,0 -8.63,-1.1993 -12.13,-3.4375 l -0.57,5.2773 c 3.75,1.668 8.38,2.9453 13.73,2.9453 10.94,0 14.05,-5.4297 14.05,-12.9297 l 0,-22.664 c 1.91,-0.3125 4.62,-0.6328 6.94,-0.793 l 0,-3.4336 c -3.59,-0.4805 -8.86,-0.7148 -12.69,-0.5586"
         id="path94"
         style="fill:#000000;fill-opacity:1;fill-rule:nonzero;stroke:none" /><path
         d="m 2079.27,66.7109 0.16,-0.0898 c 2.32,5.75 7.34,9.6562 14.21,9.6562 9.09,0 11.97,-5.7421 11.97,-12.7617 l 0,-27.6953 -5.99,0 0,25.6953 c 0,6.2266 -1.68,9.8125 -7.5,9.8125 -7.1,0 -12.13,-7.0234 -12.13,-16.4375 l 0,-19.0703 -5.9,0 0,34.8711 c -1.92,0.3242 -4.63,0.6367 -6.95,0.8008 l 0,3.4297 c 3.51,0.4765 8.78,0.7226 12.85,0.5547 0,-2.5469 -0.23,-6.375 -0.72,-8.7657"
         id="path96"
         style="fill:#000000;fill-opacity:1;fill-rule:nonzero;stroke:none" /><path
         d="m 2124.17,82.6641 c -2.24,0 -4.07,1.7617 -4.07,4.0742 0,2.2265 1.83,4.0625 4.07,4.0625 2.3,0 4.14,-1.836 4.14,-4.0625 0,-2.3125 -1.84,-4.0742 -4.14,-4.0742 z m 2.95,-46.8438 -5.9,0 0,34.8711 c -1.92,0.3242 -4.63,0.6367 -6.95,0.8008 l 0,3.4297 c 3.51,0.4765 8.78,0.7226 12.85,0.5547 l 0,-39.6563"
         id="path98"
         style="fill:#000000;fill-opacity:1;fill-rule:nonzero;stroke:none" /><path
         d="m 2152.65,35.1836 c -7.99,0 -10.3,3.5078 -10.3,11.7305 l 0,23.8554 -8.62,0 0,4.7071 8.62,0 0,13.1757 5.98,1.668 0,-14.8437 11.66,0 0,-4.7071 -11.66,0 0,-21.3828 c 0,-7.1015 1.28,-8.9375 5.99,-8.9375 2,0 4.07,0.2344 5.67,0.7227 l 0,-5.1953 c -2.08,-0.4805 -4.87,-0.793 -7.34,-0.793"
         id="path100"
         style="fill:#000000;fill-opacity:1;fill-rule:nonzero;stroke:none" /><path
         d="m 2174.4,82.6641 c -2.22,0 -4.06,1.7617 -4.06,4.0742 0,2.2265 1.84,4.0625 4.06,4.0625 2.33,0 4.16,-1.836 4.16,-4.0625 0,-2.3125 -1.83,-4.0742 -4.16,-4.0742 z m 2.96,-46.8438 -5.9,0 0,34.8711 c -1.92,0.3242 -4.63,0.6367 -6.94,0.8008 l 0,3.4297 c 3.51,0.4765 8.77,0.7226 12.84,0.5547 l 0,-39.6563"
         id="path102"
         style="fill:#000000;fill-opacity:1;fill-rule:nonzero;stroke:none" /><path
         d="m 2204.4,71.6484 c -5.58,0 -9.59,-4.0703 -10.54,-10.2929 l 20.11,0 c 0.16,6.1445 -3.51,10.2929 -9.57,10.2929 z m 15.64,-14.7617 -26.5,0 c -0.4,-11.8867 4.31,-16.8359 13.17,-16.8359 4.16,0 8.53,1.0351 11.49,2.5547 l 0.56,-5.1055 c -3.67,-1.5234 -8.13,-2.4023 -13.09,-2.4023 -11.97,0 -18.36,6.4648 -18.36,20.3515 0,11.8946 6.39,20.75 17.41,20.75 10.93,0 15.49,-7.5781 15.49,-16.3554 0,-0.7227 0,-1.7579 -0.17,-2.9571"
         id="path104"
         style="fill:#000000;fill-opacity:1;fill-rule:nonzero;stroke:none" /><path
         d="m 2236.53,35.0977 c -2.95,0 -5.98,0.3242 -8.38,0.8007 l 0.16,5.5078 c 2.56,-0.7226 5.74,-1.2773 8.87,-1.2773 5.74,0 9.72,2.5547 9.72,6.707 0,9.4922 -19.3,3.586 -19.3,17.7149 0,6.6211 5.42,11.6484 15.48,11.6484 2.48,0 5.27,-0.3984 7.74,-0.8789 l -0.17,-5.1836 c -2.62,0.8789 -5.5,1.3555 -8.21,1.3555 -5.83,0 -8.7,-2.3906 -8.7,-6.3086 0,-9.4922 19.39,-4.0703 19.39,-17.5547 0,-7.0234 -6.23,-12.5312 -16.6,-12.5312"
         id="path106"
         style="fill:#000000;fill-opacity:1;fill-rule:nonzero;stroke:none" /><path
         d="m 440.566,153.145 0,90.742 10.352,0 0,-82 33.609,0 0,-8.742 -43.961,0"
         id="path108"
         style="fill:#000000;fill-opacity:1;fill-rule:nonzero;stroke:none" /><path
         d="m 517.875,213.508 c -9.406,0 -16.133,-6.86 -17.742,-17.348 l 33.875,0 c 0.269,10.356 -5.918,17.348 -16.133,17.348 z m 26.348,-24.875 -44.629,0 c -0.672,-20.031 7.261,-28.36 22.179,-28.36 6.993,0 14.383,1.747 19.36,4.297 l 0.941,-8.601 c -6.183,-2.551 -13.715,-4.035 -22.047,-4.035 -20.164,0 -30.922,10.886 -30.922,34.277 0,20.027 10.758,34.949 29.309,34.949 18.418,0 26.078,-12.762 26.078,-27.558 0,-1.2 0,-2.95 -0.269,-4.969"
         id="path110"
         style="fill:#000000;fill-opacity:1;fill-rule:nonzero;stroke:none" /><path
         d="m 570.176,232.051 c -3.766,0 -6.856,2.961 -6.856,6.855 0,3.77 3.09,6.864 6.856,6.864 3.894,0 6.988,-3.094 6.988,-6.864 0,-3.894 -3.094,-6.855 -6.988,-6.855 z m 4.969,-78.906 -9.946,0 0,58.75 c -3.226,0.535 -7.797,1.074 -11.691,1.335 l 0,5.786 c 5.91,0.808 14.785,1.207 21.637,0.945 l 0,-66.816"
         id="path112"
         style="fill:#000000;fill-opacity:1;fill-rule:nonzero;stroke:none" /><path
         d="m 630,212.832 c -13.312,0 -19.898,-15.598 -19.898,-27.422 l 0,-23.39 c 3.902,-1.211 8.066,-1.747 13.179,-1.747 13.711,0 22.852,8.329 22.852,28.497 0,15.058 -5.11,24.062 -16.133,24.062 z m -19.898,4.57 c 0,-3.761 -0.399,-8.879 -1.075,-12.238 l 0.27,-0.125 c 3.633,10.078 12.367,16.121 22.719,16.121 15.726,0 24.738,-10.887 24.738,-31.59 0,-23.789 -13.442,-37.234 -34.414,-37.234 -9.012,0 -15.328,0.672 -22.184,2.555 l 0,88.324 c -3.226,0.535 -7.797,1.07 -11.695,1.344 l 0,5.785 c 5.914,0.797 14.785,1.199 21.641,0.933 l 0,-33.875"
         id="path114"
         style="fill:#000000;fill-opacity:1;fill-rule:nonzero;stroke:none" /><path
         d="m 685.801,205.164 0.269,-0.125 c 3.895,9.68 12.368,16.262 23.926,16.262 15.324,0 20.164,-9.68 20.164,-21.504 l 0,-46.652 -10.082,0 0,43.289 c 0,10.48 -2.82,16.535 -12.637,16.535 -11.961,0 -20.433,-11.836 -20.433,-27.696 l 0,-32.128 -9.946,0 0,58.75 c -3.23,0.535 -7.8,1.074 -11.695,1.335 l 0,5.786 c 5.91,0.808 14.785,1.207 21.641,0.945 0,-4.309 -0.403,-10.762 -1.207,-14.797"
         id="path116"
         style="fill:#000000;fill-opacity:1;fill-rule:nonzero;stroke:none" /><path
         d="m 761.488,232.051 c -3.761,0 -6.855,2.961 -6.855,6.855 0,3.77 3.094,6.864 6.855,6.864 3.899,0 6.989,-3.094 6.989,-6.864 0,-3.894 -3.09,-6.855 -6.989,-6.855 z m 4.973,-78.906 -9.945,0 0,58.75 c -3.231,0.535 -7.801,1.074 -11.696,1.335 l 0,5.786 c 5.91,0.808 14.785,1.207 21.641,0.945 l 0,-66.816"
         id="path118"
         style="fill:#000000;fill-opacity:1;fill-rule:nonzero;stroke:none" /><path
         d="m 783.945,153.145 0,7.128 34.008,50.95 c -4.301,-0.137 -11.426,-0.278 -18.949,-0.278 l -14.387,0 0,9.016 44.899,0 0,-6.992 -33.739,-50.821 c 4.032,0.137 13.035,0.274 19.356,0.274 l 15.058,0 0,-9.277 -46.246,0"
         id="path120"
         style="fill:#000000;fill-opacity:1;fill-rule:nonzero;stroke:none" /><path
         d="m 890.957,151.934 c -6.723,0 -13.176,0.937 -18.148,2.285 l 0.535,10.086 c 5.246,-1.883 12.238,-3.367 18.551,-3.367 11.699,0 21.511,4.707 21.511,17.078 0,21.504 -42.078,13.3 -42.078,41.945 0,14.375 11.563,25.137 31.461,25.137 5.645,0 10.887,-0.672 16.266,-1.75 l -0.539,-9.278 c -5.11,1.477 -11.157,2.422 -16.403,2.422 -13.172,0 -20.164,-6.187 -20.164,-15.457 0,-20.84 42.074,-13.312 42.074,-41.68 0,-15.996 -12.5,-27.421 -33.066,-27.421"
         id="path122"
         style="fill:#000000;fill-opacity:1;fill-rule:nonzero;stroke:none" /><path
         d="m 988.43,153.145 c 0,4.296 0.398,10.617 1.203,14.785 l -0.27,0.136 c -3.894,-9.675 -12.367,-16.269 -23.925,-16.269 -15.458,0 -20.165,9.676 -20.165,21.512 l 0,38.586 c -3.226,0.535 -7.796,1.074 -11.695,1.335 l 0,5.786 c 6.184,0.808 15.055,1.207 21.777,0.945 l 0,-43.289 c 0,-10.492 2.825,-16.535 12.637,-16.535 11.965,0 20.301,11.828 20.301,27.695 l 0,32.129 10.082,0 0,-58.75 c 3.225,-0.535 7.795,-1.074 11.695,-1.348 l 0,-5.781 c -5.91,-0.801 -14.789,-1.211 -21.64,-0.937"
         id="path124"
         style="fill:#000000;fill-opacity:1;fill-rule:nonzero;stroke:none" /><path
         d="m 1056.72,212.832 c -13.31,0 -19.89,-15.598 -19.89,-27.422 l 0,-23.39 c 4.03,-1.211 8.06,-1.747 13.17,-1.747 13.72,0 22.85,8.329 22.85,28.497 0,15.058 -5.1,24.062 -16.13,24.062 z m -41.53,0.398 0,5.786 c 5.91,0.808 14.78,1.207 21.5,0.945 0,-4.031 -0.13,-10.625 -1.07,-14.523 l 0.27,-0.133 c 3.76,9.675 12.23,15.855 22.99,15.855 15.59,0 24.6,-10.887 24.6,-31.59 0,-23.925 -13.18,-37.234 -34.15,-37.234 -4.57,0 -7.93,0.137 -12.5,0.945 l 0,-33.613 -9.95,0 0,92.227 c -3.23,0.535 -7.8,1.074 -11.69,1.335"
         id="path126"
         style="fill:#000000;fill-opacity:1;fill-rule:nonzero;stroke:none" /><path
         d="m 1123.01,213.508 c -9.42,0 -16.13,-6.86 -17.76,-17.348 l 33.88,0 c 0.27,10.356 -5.91,17.348 -16.12,17.348 z m 26.35,-24.875 -44.64,0 c -0.67,-20.031 7.26,-28.36 22.18,-28.36 7,0 14.39,1.747 19.36,4.297 l 0.94,-8.601 c -6.18,-2.551 -13.71,-4.035 -22.04,-4.035 -20.17,0 -30.92,10.886 -30.92,34.277 0,20.027 10.75,34.949 29.3,34.949 18.41,0 26.08,-12.762 26.08,-27.558 0,-1.2 0,-2.95 -0.26,-4.969"
         id="path128"
         style="fill:#000000;fill-opacity:1;fill-rule:nonzero;stroke:none" /><path
         d="m 1178.66,203.152 0.27,-0.136 c 2.68,9.816 9.54,19.765 23.66,18.144 l -0.54,-9.937 c -14.66,2.418 -21.78,-8.879 -21.78,-31.332 l 0,-26.746 -9.95,0 0,58.75 c -3.22,0.535 -7.79,1.074 -11.7,1.335 l 0,5.786 c 5.92,0.808 14.8,1.207 21.65,0.945 0,-4.445 -0.53,-11.027 -1.61,-16.809"
         id="path130"
         style="fill:#000000;fill-opacity:1;fill-rule:nonzero;stroke:none" /><path
         d="m 1237.68,152.336 c -14.93,0 -28.9,6.59 -28.9,31.863 0,21.914 11.01,36.699 32.79,36.699 5.52,0 10.9,-0.808 15.73,-2.285 l -1.07,-8.879 c -4.43,1.75 -9.68,2.961 -15.32,2.961 -14.39,0 -21.52,-10.617 -21.52,-26.75 0,-13.711 4.31,-25.007 20.44,-25.007 5.91,0 12.37,1.484 16.8,3.769 l 0.95,-8.738 c -4.45,-1.75 -11.7,-3.633 -19.9,-3.633"
         id="path132"
         style="fill:#000000;fill-opacity:1;fill-rule:nonzero;stroke:none" /><path
         d="m 1296.16,212.832 c -10.48,0 -20.43,-7.93 -20.43,-25.812 0,-17.071 7.4,-26.485 20.43,-26.485 10.49,0 20.03,8.067 20.03,26.485 0,16.132 -6.72,25.812 -20.03,25.812 z m -1.47,-60.898 c -17.88,0 -29.45,10.886 -29.45,34.277 0,19.094 11.84,34.949 31.87,34.949 16.26,0 29.57,-9.004 29.57,-33.465 0,-19.902 -12.24,-35.761 -31.99,-35.761"
         id="path134"
         style="fill:#000000;fill-opacity:1;fill-rule:nonzero;stroke:none" /><path
         d="m 1430.73,153.145 0,43.156 c 0,10.078 -2.28,16.668 -11.96,16.668 -10.35,0 -20.03,-10.625 -20.03,-27.969 l 0,-31.855 -10.08,0 0,43.289 c 0,9.14 -1.75,16.535 -11.96,16.535 -11.16,0 -20.17,-11.563 -20.17,-27.969 l 0,-31.855 -9.95,0 0,58.75 c -3.22,0.535 -7.79,1.074 -11.7,1.335 l 0,5.786 c 5.92,0.808 14.8,1.207 21.65,0.945 0,-4.309 -0.41,-10.625 -1.07,-14.797 l 0.13,-0.125 c 3.9,9.805 12.63,16.262 23.66,16.262 15.06,0 18.28,-10.891 18.55,-15.996 2.55,6.316 9.82,15.996 23.25,15.996 12.64,0 19.77,-6.723 19.77,-21.781 l 0,-46.375 -10.09,0"
         id="path136"
         style="fill:#000000;fill-opacity:1;fill-rule:nonzero;stroke:none" /><path
         d="m 1497.02,212.832 c -13.31,0 -19.89,-15.598 -19.89,-27.422 l 0,-23.39 c 4.03,-1.211 8.07,-1.747 13.17,-1.747 13.71,0 22.85,8.329 22.85,28.497 0,15.058 -5.1,24.062 -16.13,24.062 z m -41.54,0.398 0,5.786 c 5.92,0.808 14.79,1.207 21.51,0.945 0,-4.031 -0.13,-10.625 -1.07,-14.523 l 0.26,-0.133 c 3.77,9.675 12.24,15.855 22.99,15.855 15.6,0 24.6,-10.887 24.6,-31.59 0,-23.925 -13.17,-37.234 -34.14,-37.234 -4.57,0 -7.93,0.137 -12.5,0.945 l 0,-33.613 -9.95,0 0,92.227 c -3.22,0.535 -7.8,1.074 -11.7,1.335"
         id="path138"
         style="fill:#000000;fill-opacity:1;fill-rule:nonzero;stroke:none" /><path
         d="m 1586.69,153.145 c 0,4.296 0.4,10.617 1.21,14.785 l -0.27,0.136 c -3.9,-9.675 -12.37,-16.269 -23.93,-16.269 -15.46,0 -20.16,9.676 -20.16,21.512 l 0,38.586 c -3.23,0.535 -7.8,1.074 -11.7,1.335 l 0,5.786 c 6.19,0.808 15.05,1.207 21.77,0.945 l 0,-43.289 c 0,-10.492 2.83,-16.535 12.64,-16.535 11.97,0 20.3,11.828 20.3,27.695 l 0,32.129 10.08,0 0,-58.75 c 3.23,-0.535 7.8,-1.074 11.7,-1.348 l 0,-5.781 c -5.92,-0.801 -14.79,-1.211 -21.64,-0.937"
         id="path140"
         style="fill:#000000;fill-opacity:1;fill-rule:nonzero;stroke:none" /><path
         d="m 1641.82,152.07 c -13.45,0 -17.35,5.918 -17.35,19.754 l 0,40.196 -14.51,0 0,7.941 14.51,0 0,22.18 10.09,2.82 0,-25 19.62,0 0,-7.941 -19.62,0 0,-36.024 c 0,-11.965 2.15,-15.058 10.08,-15.058 3.36,0 6.85,0.41 9.54,1.21 l 0,-8.73 c -3.49,-0.813 -8.19,-1.348 -12.36,-1.348"
         id="path142"
         style="fill:#000000;fill-opacity:1;fill-rule:nonzero;stroke:none" /><path
         d="m 1678.52,232.051 c -3.76,0 -6.86,2.961 -6.86,6.855 0,3.77 3.1,6.864 6.86,6.864 3.9,0 6.99,-3.094 6.99,-6.864 0,-3.894 -3.09,-6.855 -6.99,-6.855 z m 4.98,-78.906 -9.96,0 0,58.75 c -3.22,0.535 -7.79,1.074 -11.69,1.335 l 0,5.786 c 5.91,0.808 14.79,1.207 21.65,0.945 l 0,-66.816"
         id="path144"
         style="fill:#000000;fill-opacity:1;fill-rule:nonzero;stroke:none" /><path
         d="m 1718.58,205.164 0.27,-0.125 c 3.9,9.68 12.37,16.262 23.93,16.262 15.33,0 20.16,-9.68 20.16,-21.504 l 0,-46.652 -10.08,0 0,43.289 c 0,10.48 -2.82,16.535 -12.64,16.535 -11.96,0 -20.43,-11.836 -20.43,-27.696 l 0,-32.128 -9.95,0 0,58.75 c -3.22,0.535 -7.79,1.074 -11.7,1.335 l 0,5.786 c 5.92,0.808 14.8,1.207 21.65,0.945 0,-4.309 -0.41,-10.762 -1.21,-14.797"
         id="path146"
         style="fill:#000000;fill-opacity:1;fill-rule:nonzero;stroke:none" /><path
         d="m 1826.41,211.355 c -4.44,1.075 -8.87,1.477 -13.18,1.477 -13.71,0 -22.85,-8.34 -22.85,-28.496 0,-15.059 5.11,-24.063 16.13,-24.063 13.31,0 19.9,15.586 19.9,27.559 l 0,23.523 z m -23.93,-92.761 c -7.39,0 -13.85,0.945 -19.09,2.422 l 0.81,10.214 c 5.51,-2.148 13.04,-3.625 19.35,-3.625 14.53,0 22.86,5.372 22.86,21.782 l 0,5.906 c 0,4.844 0.13,8.738 0.94,12.371 l -0.27,0.129 c -3.76,-9.68 -12.23,-15.859 -22.58,-15.859 -15.73,0 -24.73,10.625 -24.73,31.589 0,23.801 13.3,37.375 34.81,37.375 7.39,0 15.06,-0.675 21.78,-1.882 l 0,-72.192 c 0,-11.558 -5.38,-28.23 -33.88,-28.23"
         id="path148"
         style="fill:#000000;fill-opacity:1;fill-rule:nonzero;stroke:none" /><path
         d="m 1922.8,152.07 c -28.09,0 -40.99,17.469 -40.99,44.364 0,27.289 13.17,48.254 44.09,48.254 6.98,0 14.25,-1.075 20.97,-2.684 l -1.08,-9.543 c -7.53,2.285 -14.52,3.496 -21.64,3.496 -22.05,0 -31.19,-17.207 -31.19,-37.91 0,-23.399 10.35,-36.836 32.53,-36.836 6.99,0 15.73,2.012 21.38,4.844 l 1.07,-9.153 c -6.99,-2.949 -15.72,-4.832 -25.14,-4.832"
         id="path150"
         style="fill:#000000;fill-opacity:1;fill-rule:nonzero;stroke:none" /><path
         d="m 1985.61,213.508 c -9.42,0 -16.14,-6.86 -17.76,-17.348 l 33.88,0 c 0.27,10.356 -5.91,17.348 -16.12,17.348 z m 26.34,-24.875 -44.64,0 c -0.66,-20.031 7.27,-28.36 22.19,-28.36 6.99,0 14.39,1.747 19.36,4.297 l 0.93,-8.601 c -6.18,-2.551 -13.71,-4.035 -22.04,-4.035 -20.16,0 -30.91,10.886 -30.91,34.277 0,20.027 10.75,34.949 29.3,34.949 18.41,0 26.08,-12.762 26.08,-27.558 0,-1.2 0,-2.95 -0.27,-4.969"
         id="path152"
         style="fill:#000000;fill-opacity:1;fill-rule:nonzero;stroke:none" /><path
         d="m 2041.66,205.164 0.26,-0.125 c 3.91,9.68 12.38,16.262 23.94,16.262 15.32,0 20.16,-9.68 20.16,-21.504 l 0,-46.652 -10.08,0 0,43.289 c 0,10.48 -2.82,16.535 -12.64,16.535 -11.96,0 -20.43,-11.836 -20.43,-27.696 l 0,-32.128 -9.95,0 0,58.75 c -3.22,0.535 -7.79,1.074 -11.7,1.335 l 0,5.786 c 5.92,0.808 14.8,1.207 21.65,0.945 0,-4.309 -0.41,-10.762 -1.21,-14.797"
         id="path154"
         style="fill:#000000;fill-opacity:1;fill-rule:nonzero;stroke:none" /><path
         d="m 2127.57,152.07 c -13.45,0 -17.35,5.918 -17.35,19.754 l 0,40.196 -14.51,0 0,7.941 14.51,0 0,22.18 10.09,2.82 0,-25 19.62,0 0,-7.941 -19.62,0 0,-36.024 c 0,-11.965 2.15,-15.058 10.08,-15.058 3.36,0 6.86,0.41 9.54,1.21 l 0,-8.73 c -3.48,-0.813 -8.19,-1.348 -12.36,-1.348"
         id="path156"
         style="fill:#000000;fill-opacity:1;fill-rule:nonzero;stroke:none" /><path
         d="m 2167.65,203.152 0.26,-0.136 c 2.69,9.816 9.54,19.765 23.66,18.144 l -0.53,-9.937 c -14.66,2.418 -21.78,-8.879 -21.78,-31.332 l 0,-26.746 -9.95,0 0,58.75 c -3.23,0.535 -7.8,1.074 -11.7,1.335 l 0,5.786 c 5.92,0.808 14.79,1.207 21.65,0.945 0,-4.445 -0.54,-11.027 -1.61,-16.809"
         id="path158"
         style="fill:#000000;fill-opacity:1;fill-rule:nonzero;stroke:none" /><path
         d="m 2226.66,213.508 c -9.41,0 -16.13,-6.86 -17.75,-17.348 l 33.87,0 c 0.28,10.356 -5.9,17.348 -16.12,17.348 z m 26.35,-24.875 -44.64,0 c -0.66,-20.031 7.26,-28.36 22.19,-28.36 6.99,0 14.38,1.747 19.35,4.297 l 0.94,-8.601 c -6.18,-2.551 -13.71,-4.035 -22.04,-4.035 -20.17,0 -30.92,10.886 -30.92,34.277 0,20.027 10.75,34.949 29.31,34.949 18.41,0 26.07,-12.762 26.07,-27.558 0,-1.2 0,-2.95 -0.26,-4.969"
         id="path160"
         style="fill:#000000;fill-opacity:1;fill-rule:nonzero;stroke:none" /></g></g></svg>
