<svg width="534" height="76" viewBox="0 0 534 76" fill="none" xmlns="http://www.w3.org/2000/svg">
  <text x="8" y="40" fill="#0097CE" font-family="Arial" font-size="24">Bayerisches Staatsministerium für</text>
  <text x="134" y="70" fill="#0097CE" font-family="Arial" font-size="24">Wissenschaft und Kunst</text>
  <g transform="translate(450, 5)">
    <path d="M84 30C84 30 78 24 72 24C66 24 60 30 60 30C60 30 54 24 48 24C42 24 36 30 36 30V60H84V30Z" fill="#FFFFFF"/>
    <path d="M84 30C84 30 78 24 72 24C66 24 60 30 60 30C60 30 54 24 48 24C42 24 36 30 36 30V60H84V30Z" stroke="#000000" stroke-width="2"/>
    <rect x="42" y="36" width="12" height="12" fill="#0000FF"/>
    <rect x="66" y="36" width="12" height="12" fill="#FF0000"/>
    <rect x="54" y="48" width="12" height="12" fill="#FFFFFF"/>
    <path d="M42 48L54 48L54 60L42 60L42 48Z" fill="#FFFFFF" stroke="#000000" stroke-width="1"/>
    <path d="M66 48L78 48L78 60L66 60L66 48Z" fill="#FFFFFF" stroke="#000000" stroke-width="1"/>
  </g>
</svg>
