<?xml version="1.0" encoding="UTF-8" standalone="no"?>
<svg xmlns="http://www.w3.org/2000/svg" viewBox="0 0 512 512">
  <!-- Question mark - centered with longer stem, smaller dot perfectly aligned -->
  <path d="M256 350c-15 0-28 13-28 28s13 28 28 28 28-13 28-28-13-28-28-28zm0-44h-26c-5.5 0-10-4.5-10-10v-60c0-34.6 19.2-44.6 33.4-54.4 14.2-9.8 20.6-15.2 20.6-28.1 0-17.7-14.3-32-32-32s-32 14.3-32 32c0 5.5-4.5 10-10 10h-52c-5.5 0-10-4.5-10-10 0-60.8 49.2-110 110-110s110 49.2 110 110c0 41.4-26 60.9-53.9 78.1-14 8.6-23.9 14.8-27.9 22.9-1.6 3.1-2.2 6.6-2.2 9.5v42c0 5.5-4.5 10-10 10z" fill="white"/>
</svg>
