<svg id="icon_setting" xmlns="http://www.w3.org/2000/svg" width="30.195" height="30.195" viewBox="0 0 30.195 30.195">
  <path id="Pfad_386" data-name="Pfad 386" d="M0,0H30.195V30.195H0Z" fill="none"/>
  <path id="Pfad_387" data-name="Pfad 387" d="M14.323,2A3.121,3.121,0,0,1,17.4,4.421a1.169,1.169,0,0,0,1.745.723,3.14,3.14,0,0,1,4.43,1.176A3.112,3.112,0,0,1,23.5,9.5a1.169,1.169,0,0,0,.722,1.744,3.169,3.169,0,0,1,0,6.158,1.169,1.169,0,0,0-.723,1.745,3.111,3.111,0,0,1,.074,3.179A3.14,3.14,0,0,1,19.146,23.5a1.169,1.169,0,0,0-1.744.722,3.169,3.169,0,0,1-6.158,0A1.169,1.169,0,0,0,9.5,23.5a3.14,3.14,0,0,1-4.43-1.177,3.112,3.112,0,0,1,.073-3.179A1.169,1.169,0,0,0,4.421,17.4a3.169,3.169,0,0,1,0-6.158A1.169,1.169,0,0,0,5.144,9.5,3.111,3.111,0,0,1,5.07,6.32,3.14,3.14,0,0,1,9.5,5.143a1.145,1.145,0,0,0,.6.173,1.172,1.172,0,0,0,1.14-.895A3.121,3.121,0,0,1,14.323,2Zm4.215,5.315a3.169,3.169,0,0,1-3.08-2.423,1.169,1.169,0,0,0-2.271,0A3.165,3.165,0,0,1,8.459,6.85a1.175,1.175,0,0,0-.614-.184A1.217,1.217,0,0,0,6.814,7.3a1.091,1.091,0,0,0,.038,1.158,3.169,3.169,0,0,1-1.96,4.729,1.169,1.169,0,0,0,0,2.271,3.169,3.169,0,0,1,1.958,4.728,1.091,1.091,0,0,0-.038,1.159,1.216,1.216,0,0,0,1.03.633,1.176,1.176,0,0,0,.615-.185,3.169,3.169,0,0,1,4.729,1.96,1.169,1.169,0,0,0,2.271,0A3.169,3.169,0,0,1,20.187,21.8a1.177,1.177,0,0,0,.615.185,1.216,1.216,0,0,0,1.03-.634,1.091,1.091,0,0,0-.038-1.159,3.169,3.169,0,0,1,1.96-4.729,1.169,1.169,0,0,0,0-2.271A3.169,3.169,0,0,1,21.8,8.46,1.091,1.091,0,0,0,21.833,7.3a1.216,1.216,0,0,0-1.03-.633,1.176,1.176,0,0,0-.615.185A3.168,3.168,0,0,1,18.538,7.315Z" transform="translate(0.774 0.774)" fill="#fff"/>
  <path id="Ellipse_2" data-name="Ellipse 2" d="M4-1A5,5,0,1,1-1,4,5.006,5.006,0,0,1,4-1ZM4,7A3,3,0,1,0,1,4,3,3,0,0,0,4,7Z" transform="translate(11 11.195)" fill="#fff"/>
</svg>
