<?xml version="1.0" ?><!DOCTYPE svg  PUBLIC '-//W3C//DTD SVG 1.1//EN'  'http://www.w3.org/Graphics/SVG/1.1/DTD/svg11.dtd'><svg enable-background="new 0 0 91 91" height="91px" id="Layer_1" version="1.1" viewBox="0 0 91 91" width="91px" xml:space="preserve" xmlns="http://www.w3.org/2000/svg" xmlns:xlink="http://www.w3.org/1999/xlink"><g><path d="M63.775,36.363V22.336h-36.55v14.025H18.15v20.421h9.129c-0.249,4.383-1.032,9.249-3.017,11.79l2.68,2.092   c3.928-5.03,3.95-15.602,3.781-19.885H33.6v18.839H37V50.779h3.4v18.839h3.4V50.779h3.399v18.839h3.4V50.779H54v18.839h3.4V50.779   h2.822c-0.281,4.174-0.479,14.159,3.359,19.796l2.809-1.913c-2.053-3.018-2.715-7.813-2.861-11.88h2.803   c3.594,0,6.518-2.924,6.518-6.518V36.363H63.775z M30.625,25.736h29.75v10.625h-29.75V25.736z M69.449,50.265   c0,1.72-1.398,3.117-3.117,3.117h-2.816c0.061-2.389,0.242-4.059,0.248-4.105c0.057-0.482-0.097-0.966-0.419-1.327   c-0.323-0.361-0.785-0.569-1.271-0.569H28.925c-0.475,0-0.929,0.199-1.25,0.548c-0.322,0.35-0.483,0.818-0.444,1.292   c0.083,0.996,0.149,2.463,0.147,4.162H21.55V39.761l47.899,0.002V50.265z"/><rect height="3.4" width="3.116" x="41.391" y="42.844"/><rect height="3.4" width="3.116" x="46.491" y="42.844"/></g></svg>