<svg xmlns="http://www.w3.org/2000/svg" viewBox="0 0 512 512">
  <!-- Outer arc - left -->
  <path d="M70 256c0-69 38-129.5 94-161.5c8-4.5 11-15 6.5-23s-15-11-23-6.5C79 102 32 174 32 256s47 154 115.5 191c8 4.5 18.5 1.5 23-6.5s1.5-18.5-6.5-23C108 385.5 70 325 70 256z" fill="white"/>
  
  <!-- Outer arc - right -->
  <path d="M442 256c0 69-38 129.5-94 161.5c-8 4.5-11 15-6.5 23s15 11 23 6.5C433 410 480 338 480 256s-47-154-115.5-191c-8-4.5-18.5-1.5-23 6.5s-1.5 18.5 6.5 23C404 126.5 442 187 442 256z" fill="white"/>
  
  <!-- Middle arc - left -->
  <path d="M130 256c0-47 26-88 65-110c7.5-4.5 10-14.5 5.5-22s-14.5-10-22-5.5C130 147 92 198 92 256s38 109 86.5 137.5c7.5 4.5 17.5 2 22-5.5s2-17.5-5.5-22C156 344 130 303 130 256z" fill="white"/>
  
  <!-- Middle arc - right -->
  <path d="M382 256c0 47-26 88-65 110c-7.5 4.5-10 14.5-5.5 22s14.5 10 22 5.5C382 365 420 314 420 256s-38-109-86.5-137.5c-7.5-4.5-17.5-2-22 5.5s-2 17.5 5.5 22C356 168 382 209 382 256z" fill="white"/>
  
  <!-- Inner arc - left -->
  <path d="M194 256c0-24 14-45 34-55c7-3.5 10-12 6.5-19s-12-10-19-6.5C184 192 162 221 162 256s22 64 53.5 80.5c7 3.5 15.5 0.5 19-6.5s0.5-15.5-6.5-19C208 301 194 280 194 256z" fill="white"/>
  
  <!-- Inner arc - right -->
  <path d="M318 256c0 24-14 45-34 55c-7 3.5-10 12-6.5 19s12 10 19 6.5c31.5-16.5 53.5-45.5 53.5-80.5s-22-64-53.5-80.5c-7-3.5-15.5-0.5-19 6.5s-0.5 15.5 6.5 19c20 10 34 31 34 55z" fill="white"/>
  
  <!-- Center circle -->
  <circle cx="256" cy="256" r="32" fill="white"/>
</svg>
